<?xml version="1.0" encoding="UTF-8" standalone="no"?><svg xmlns="http://www.w3.org/2000/svg" xmlns:xlink="http://www.w3.org/1999/xlink" contentScriptType="application/ecmascript" contentStyleType="text/css" height="539px" preserveAspectRatio="none" style="width:3747px;height:539px;" version="1.1" viewBox="0 0 3747 539" width="3747px" zoomAndPan="magnify"><defs><filter height="300%" id="fp659oswkvmae" width="300%" x="-1" y="-1"><feGaussianBlur result="blurOut" stdDeviation="2.0"/><feColorMatrix in="blurOut" result="blurOut2" type="matrix" values="0 0 0 0 0 0 0 0 0 0 0 0 0 0 0 0 0 0 .4 0"/><feOffset dx="4.0" dy="4.0" in="blurOut2" result="blurOut3"/><feBlend in="SourceGraphic" in2="blurOut3" mode="normal"/></filter></defs><g><!--MD5=[552dc1abada32b1139fee4676f830162]
cluster Events--><polygon fill="#FFFFFF" filter="url(#fp659oswkvmae)" points="1442,21,1497,21,1504,44.6094,2023,44.6094,2023,511.5,1442,511.5,1442,21" style="stroke:#000000;stroke-width:1.5;"/><line style="stroke:#000000;stroke-width:1.5;" x1="1442" x2="1504" y1="44.6094" y2="44.6094"/><text fill="#000000" font-family="sans-serif" font-size="14" font-weight="bold" lengthAdjust="spacing" textLength="49" x="1446" y="37.5332">Events</text><!--MD5=[e320b41f2d43b11d6de1346cab4ea5fc]
cluster View--><polygon fill="#FFFFFF" filter="url(#fp659oswkvmae)" points="2047,6,2086,6,2093,29.6094,3028,29.6094,3028,504.5,2047,504.5,2047,6" style="stroke:#000000;stroke-width:1.5;"/><line style="stroke:#000000;stroke-width:1.5;" x1="2047" x2="2093" y1="29.6094" y2="29.6094"/><text fill="#000000" font-family="sans-serif" font-size="14" font-weight="bold" lengthAdjust="spacing" textLength="33" x="2051" y="22.5332">View</text><!--MD5=[15636c1ca4a123c16a2a1a8e90aca7a9]
cluster Model--><polygon fill="#FFFFFF" filter="url(#fp659oswkvmae)" points="16,6,66,6,73,29.6094,1418,29.6094,1418,532,16,532,16,6" style="stroke:#000000;stroke-width:1.5;"/><line style="stroke:#000000;stroke-width:1.5;" x1="16" x2="73" y1="29.6094" y2="29.6094"/><text fill="#000000" font-family="sans-serif" font-size="14" font-weight="bold" lengthAdjust="spacing" textLength="44" x="20" y="22.5332">Model</text><!--MD5=[e5f667b5311306cc91fbdfbce3163ce7]
cluster Exceptions--><polygon fill="#FFFFFF" filter="url(#fp659oswkvmae)" points="3052,28,3136,28,3143,51.6094,3730,51.6094,3730,486.5,3052,486.5,3052,28" style="stroke:#000000;stroke-width:1.5;"/><line style="stroke:#000000;stroke-width:1.5;" x1="3052" x2="3143" y1="51.6094" y2="51.6094"/><text fill="#000000" font-family="sans-serif" font-size="14" font-weight="bold" lengthAdjust="spacing" textLength="78" x="3056" y="44.5332">Exceptions</text><!--MD5=[127c0bf9d5b22241e4ccdf18661fbe4f]
class UpdateTurtle--><rect codeLine="3" fill="#FEFECE" filter="url(#fp659oswkvmae)" height="61.8359" id="UpdateTurtle" style="stroke:#A80036;stroke-width:1.5;" width="144" x="1459" y="57"/><ellipse cx="1492.45" cy="73" fill="#B4A7E5" rx="11" ry="11" style="stroke:#A80036;stroke-width:1.0;"/><path d="M1493.4031,69.6406 L1493.4031,76.2969 L1495.1219,76.2969 Q1495.7313,76.2969 1495.9969,76.5313 Q1496.2625,76.7656 1496.2625,77.1563 Q1496.2625,77.5313 1495.9969,77.7656 Q1495.7313,78 1495.1219,78 L1489.9813,78 Q1489.3719,78 1489.1063,77.7656 Q1488.8406,77.5313 1488.8406,77.1406 Q1488.8406,76.7656 1489.1063,76.5313 Q1489.3719,76.2969 1489.9813,76.2969 L1491.7,76.2969 L1491.7,69.6406 L1489.9813,69.6406 Q1489.3719,69.6406 1489.1063,69.4063 Q1488.8406,69.1719 1488.8406,68.7813 Q1488.8406,68.4063 1489.1063,68.1719 Q1489.3719,67.9375 1489.9813,67.9375 L1495.1219,67.9375 Q1495.7313,67.9375 1495.9969,68.1719 Q1496.2625,68.4063 1496.2625,68.7813 Q1496.2625,69.1719 1495.9969,69.4063 Q1495.7313,69.6406 1495.1219,69.6406 L1493.4031,69.6406 Z " fill="#000000"/><text fill="#000000" font-family="sans-serif" font-size="12" font-style="italic" lengthAdjust="spacing" textLength="71" x="1510.55" y="77.9102">UpdateTurtle</text><line style="stroke:#A80036;stroke-width:1.5;" x1="1460" x2="1602" y1="89" y2="89"/><line style="stroke:#A80036;stroke-width:1.5;" x1="1460" x2="1602" y1="97" y2="97"/><ellipse cx="1470" cy="108" fill="#84BE84" rx="3" ry="3" style="stroke:#038048;stroke-width:1.0;"/><text fill="#000000" font-family="sans-serif" font-size="11" lengthAdjust="spacing" textLength="118" x="1479" y="112.4189">execute(TurtleRecord e)</text><!--MD5=[849e9af05bb26f66384182859f5ff325]
class UpdateCommands--><rect codeLine="7" fill="#FEFECE" filter="url(#fp659oswkvmae)" height="61.8359" id="UpdateCommands" style="stroke:#A80036;stroke-width:1.5;" width="170" x="1638" y="57"/><ellipse cx="1667.85" cy="73" fill="#B4A7E5" rx="11" ry="11" style="stroke:#A80036;stroke-width:1.0;"/><path d="M1668.8031,69.6406 L1668.8031,76.2969 L1670.5219,76.2969 Q1671.1313,76.2969 1671.3969,76.5313 Q1671.6625,76.7656 1671.6625,77.1563 Q1671.6625,77.5313 1671.3969,77.7656 Q1671.1313,78 1670.5219,78 L1665.3813,78 Q1664.7719,78 1664.5063,77.7656 Q1664.2406,77.5313 1664.2406,77.1406 Q1664.2406,76.7656 1664.5063,76.5313 Q1664.7719,76.2969 1665.3813,76.2969 L1667.1,76.2969 L1667.1,69.6406 L1665.3813,69.6406 Q1664.7719,69.6406 1664.5063,69.4063 Q1664.2406,69.1719 1664.2406,68.7813 Q1664.2406,68.4063 1664.5063,68.1719 Q1664.7719,67.9375 1665.3813,67.9375 L1670.5219,67.9375 Q1671.1313,67.9375 1671.3969,68.1719 Q1671.6625,68.4063 1671.6625,68.7813 Q1671.6625,69.1719 1671.3969,69.4063 Q1671.1313,69.6406 1670.5219,69.6406 L1668.8031,69.6406 Z " fill="#000000"/><text fill="#000000" font-family="sans-serif" font-size="12" font-style="italic" lengthAdjust="spacing" textLength="105" x="1685.15" y="77.9102">UpdateCommands</text><line style="stroke:#A80036;stroke-width:1.5;" x1="1639" x2="1807" y1="89" y2="89"/><line style="stroke:#A80036;stroke-width:1.5;" x1="1639" x2="1807" y1="97" y2="97"/><ellipse cx="1649" cy="108" fill="#84BE84" rx="3" ry="3" style="stroke:#038048;stroke-width:1.0;"/><text fill="#000000" font-family="sans-serif" font-size="11" lengthAdjust="spacing" textLength="144" x="1658" y="112.4189">execute(CommandsRecord e)</text><!--MD5=[7c2e74d6b2c3697d8333153d0b1fea61]
class UpdateVariables--><rect codeLine="11" fill="#FEFECE" filter="url(#fp659oswkvmae)" height="61.8359" id="UpdateVariables" style="stroke:#A80036;stroke-width:1.5;" width="163" x="1843.5" y="57"/><ellipse cx="1875.6" cy="73" fill="#B4A7E5" rx="11" ry="11" style="stroke:#A80036;stroke-width:1.0;"/><path d="M1876.5531,69.6406 L1876.5531,76.2969 L1878.2719,76.2969 Q1878.8813,76.2969 1879.1469,76.5313 Q1879.4125,76.7656 1879.4125,77.1563 Q1879.4125,77.5313 1879.1469,77.7656 Q1878.8813,78 1878.2719,78 L1873.1313,78 Q1872.5219,78 1872.2563,77.7656 Q1871.9906,77.5313 1871.9906,77.1406 Q1871.9906,76.7656 1872.2563,76.5313 Q1872.5219,76.2969 1873.1313,76.2969 L1874.85,76.2969 L1874.85,69.6406 L1873.1313,69.6406 Q1872.5219,69.6406 1872.2563,69.4063 Q1871.9906,69.1719 1871.9906,68.7813 Q1871.9906,68.4063 1872.2563,68.1719 Q1872.5219,67.9375 1873.1313,67.9375 L1878.2719,67.9375 Q1878.8813,67.9375 1879.1469,68.1719 Q1879.4125,68.4063 1879.4125,68.7813 Q1879.4125,69.1719 1879.1469,69.4063 Q1878.8813,69.6406 1878.2719,69.6406 L1876.5531,69.6406 Z " fill="#000000"/><text fill="#000000" font-family="sans-serif" font-size="12" font-style="italic" lengthAdjust="spacing" textLength="93" x="1893.4" y="77.9102">UpdateVariables</text><line style="stroke:#A80036;stroke-width:1.5;" x1="1844.5" x2="2005.5" y1="89" y2="89"/><line style="stroke:#A80036;stroke-width:1.5;" x1="1844.5" x2="2005.5" y1="97" y2="97"/><ellipse cx="1854.5" cy="108" fill="#84BE84" rx="3" ry="3" style="stroke:#038048;stroke-width:1.0;"/><text fill="#000000" font-family="sans-serif" font-size="11" lengthAdjust="spacing" textLength="137" x="1863.5" y="112.4189">execute(VariablesRecord e)</text><!--MD5=[903baae53cb165ae04761fe927f0e830]
class VariablesRecord--><rect codeLine="15" fill="#FEFECE" filter="url(#fp659oswkvmae)" height="61.8359" id="VariablesRecord" style="stroke:#A80036;stroke-width:1.5;" width="180" x="1458" y="235.5"/><ellipse cx="1498.2" cy="251.5" fill="#ADD1B2" rx="11" ry="11" style="stroke:#A80036;stroke-width:1.0;"/><path d="M1500.9656,247.375 Q1501.1219,247.1563 1501.3094,247.0469 Q1501.4969,246.9375 1501.7156,246.9375 Q1502.0906,246.9375 1502.325,247.2031 Q1502.5594,247.4531 1502.5594,248.0625 L1502.5594,249.5156 Q1502.5594,250.125 1502.325,250.3906 Q1502.0906,250.6563 1501.7156,250.6563 Q1501.3719,250.6563 1501.1688,250.4531 Q1500.9656,250.2656 1500.8563,249.75 Q1500.8094,249.3906 1500.6219,249.2031 Q1500.2938,248.8281 1499.6844,248.6094 Q1499.075,248.3906 1498.45,248.3906 Q1497.6844,248.3906 1497.0438,248.7188 Q1496.4188,249.0469 1495.9188,249.7969 Q1495.4344,250.5469 1495.4344,251.5781 L1495.4344,252.6719 Q1495.4344,253.9063 1496.325,254.7344 Q1497.2156,255.5469 1498.8094,255.5469 Q1499.7469,255.5469 1500.4031,255.2969 Q1500.7938,255.1406 1501.2156,254.7031 Q1501.4813,254.4375 1501.6219,254.3594 Q1501.7781,254.2813 1501.9813,254.2813 Q1502.3094,254.2813 1502.5594,254.5469 Q1502.825,254.7969 1502.825,255.1406 Q1502.825,255.4844 1502.4813,255.8906 Q1501.9813,256.4688 1501.1844,256.7969 Q1500.1063,257.25 1498.8094,257.25 Q1497.2938,257.25 1496.0906,256.625 Q1495.1063,256.125 1494.4188,255.0625 Q1493.7313,253.9844 1493.7313,252.7031 L1493.7313,251.5469 Q1493.7313,250.2188 1494.3406,249.0781 Q1494.9656,247.9219 1496.0594,247.3125 Q1497.1531,246.6875 1498.3875,246.6875 Q1499.1219,246.6875 1499.7625,246.8594 Q1500.4188,247.0156 1500.9656,247.375 Z " fill="#000000"/><text fill="#000000" font-family="sans-serif" font-size="12" lengthAdjust="spacing" textLength="92" x="1517.8" y="256.4102">VariablesRecord</text><line style="stroke:#A80036;stroke-width:1.5;" x1="1459" x2="1637" y1="267.5" y2="267.5"/><ellipse cx="1469" cy="278.5" fill="none" rx="3" ry="3" style="stroke:#038048;stroke-width:1.0;"/><text fill="#000000" font-family="sans-serif" font-size="11" lengthAdjust="spacing" textLength="154" x="1478" y="282.9189">variables: List&lt;DisplayVariable&gt;</text><line style="stroke:#A80036;stroke-width:1.5;" x1="1459" x2="1637" y1="289.3359" y2="289.3359"/><!--MD5=[d73fbbab3a66c2fb1fca8fd632a21d7f]
class CommandsRecord--><rect codeLine="19" fill="#FEFECE" filter="url(#fp659oswkvmae)" height="61.8359" id="CommandsRecord" style="stroke:#A80036;stroke-width:1.5;" width="195" x="1673.5" y="235.5"/><ellipse cx="1714.15" cy="251.5" fill="#ADD1B2" rx="11" ry="11" style="stroke:#A80036;stroke-width:1.0;"/><path d="M1716.9156,247.375 Q1717.0719,247.1563 1717.2594,247.0469 Q1717.4469,246.9375 1717.6656,246.9375 Q1718.0406,246.9375 1718.275,247.2031 Q1718.5094,247.4531 1718.5094,248.0625 L1718.5094,249.5156 Q1718.5094,250.125 1718.275,250.3906 Q1718.0406,250.6563 1717.6656,250.6563 Q1717.3219,250.6563 1717.1188,250.4531 Q1716.9156,250.2656 1716.8063,249.75 Q1716.7594,249.3906 1716.5719,249.2031 Q1716.2438,248.8281 1715.6344,248.6094 Q1715.025,248.3906 1714.4,248.3906 Q1713.6344,248.3906 1712.9938,248.7188 Q1712.3688,249.0469 1711.8688,249.7969 Q1711.3844,250.5469 1711.3844,251.5781 L1711.3844,252.6719 Q1711.3844,253.9063 1712.275,254.7344 Q1713.1656,255.5469 1714.7594,255.5469 Q1715.6969,255.5469 1716.3531,255.2969 Q1716.7438,255.1406 1717.1656,254.7031 Q1717.4313,254.4375 1717.5719,254.3594 Q1717.7281,254.2813 1717.9313,254.2813 Q1718.2594,254.2813 1718.5094,254.5469 Q1718.775,254.7969 1718.775,255.1406 Q1718.775,255.4844 1718.4313,255.8906 Q1717.9313,256.4688 1717.1344,256.7969 Q1716.0563,257.25 1714.7594,257.25 Q1713.2438,257.25 1712.0406,256.625 Q1711.0563,256.125 1710.3688,255.0625 Q1709.6813,253.9844 1709.6813,252.7031 L1709.6813,251.5469 Q1709.6813,250.2188 1710.2906,249.0781 Q1710.9156,247.9219 1712.0094,247.3125 Q1713.1031,246.6875 1714.3375,246.6875 Q1715.0719,246.6875 1715.7125,246.8594 Q1716.3688,247.0156 1716.9156,247.375 Z " fill="#000000"/><text fill="#000000" font-family="sans-serif" font-size="12" lengthAdjust="spacing" textLength="106" x="1733.85" y="256.4102">CommandsRecord</text><line style="stroke:#A80036;stroke-width:1.5;" x1="1674.5" x2="1867.5" y1="267.5" y2="267.5"/><ellipse cx="1684.5" cy="278.5" fill="none" rx="3" ry="3" style="stroke:#038048;stroke-width:1.0;"/><text fill="#000000" font-family="sans-serif" font-size="11" lengthAdjust="spacing" textLength="169" x="1693.5" y="282.9189">commands: List&lt;DisplayCommand&gt;</text><line style="stroke:#A80036;stroke-width:1.5;" x1="1674.5" x2="1867.5" y1="289.3359" y2="289.3359"/><!--MD5=[a4a84ccac99a57a5495dd57182a2c12e]
class TurtleRecord--><rect codeLine="23" fill="#FEFECE" filter="url(#fp659oswkvmae)" height="103.3438" id="TurtleRecord" style="stroke:#A80036;stroke-width:1.5;" width="103" x="1903.5" y="215"/><ellipse cx="1918.5" cy="231" fill="#ADD1B2" rx="11" ry="11" style="stroke:#A80036;stroke-width:1.0;"/><path d="M1921.2656,226.875 Q1921.4219,226.6563 1921.6094,226.5469 Q1921.7969,226.4375 1922.0156,226.4375 Q1922.3906,226.4375 1922.625,226.7031 Q1922.8594,226.9531 1922.8594,227.5625 L1922.8594,229.0156 Q1922.8594,229.625 1922.625,229.8906 Q1922.3906,230.1563 1922.0156,230.1563 Q1921.6719,230.1563 1921.4688,229.9531 Q1921.2656,229.7656 1921.1563,229.25 Q1921.1094,228.8906 1920.9219,228.7031 Q1920.5938,228.3281 1919.9844,228.1094 Q1919.375,227.8906 1918.75,227.8906 Q1917.9844,227.8906 1917.3438,228.2188 Q1916.7188,228.5469 1916.2188,229.2969 Q1915.7344,230.0469 1915.7344,231.0781 L1915.7344,232.1719 Q1915.7344,233.4063 1916.625,234.2344 Q1917.5156,235.0469 1919.1094,235.0469 Q1920.0469,235.0469 1920.7031,234.7969 Q1921.0938,234.6406 1921.5156,234.2031 Q1921.7813,233.9375 1921.9219,233.8594 Q1922.0781,233.7813 1922.2813,233.7813 Q1922.6094,233.7813 1922.8594,234.0469 Q1923.125,234.2969 1923.125,234.6406 Q1923.125,234.9844 1922.7813,235.3906 Q1922.2813,235.9688 1921.4844,236.2969 Q1920.4063,236.75 1919.1094,236.75 Q1917.5938,236.75 1916.3906,236.125 Q1915.4063,235.625 1914.7188,234.5625 Q1914.0313,233.4844 1914.0313,232.2031 L1914.0313,231.0469 Q1914.0313,229.7188 1914.6406,228.5781 Q1915.2656,227.4219 1916.3594,226.8125 Q1917.4531,226.1875 1918.6875,226.1875 Q1919.4219,226.1875 1920.0625,226.3594 Q1920.7188,226.5156 1921.2656,226.875 Z " fill="#000000"/><text fill="#000000" font-family="sans-serif" font-size="12" lengthAdjust="spacing" textLength="71" x="1932.5" y="235.9102">TurtleRecord</text><line style="stroke:#A80036;stroke-width:1.5;" x1="1904.5" x2="2005.5" y1="247" y2="247"/><ellipse cx="1914.5" cy="258" fill="none" rx="3" ry="3" style="stroke:#038048;stroke-width:1.0;"/><text fill="#000000" font-family="sans-serif" font-size="11" lengthAdjust="spacing" textLength="25" x="1923.5" y="262.4189">id: int</text><ellipse cx="1914.5" cy="271.8359" fill="none" rx="3" ry="3" style="stroke:#038048;stroke-width:1.0;"/><text fill="#000000" font-family="sans-serif" font-size="11" lengthAdjust="spacing" textLength="73" x="1923.5" y="276.2549">xCoord: double</text><ellipse cx="1914.5" cy="285.6719" fill="none" rx="3" ry="3" style="stroke:#038048;stroke-width:1.0;"/><text fill="#000000" font-family="sans-serif" font-size="11" lengthAdjust="spacing" textLength="76" x="1923.5" y="290.0908">yCoord : double</text><ellipse cx="1914.5" cy="299.5078" fill="none" rx="3" ry="3" style="stroke:#038048;stroke-width:1.0;"/><text fill="#000000" font-family="sans-serif" font-size="11" lengthAdjust="spacing" textLength="74" x="1923.5" y="303.9268">rotation: double</text><line style="stroke:#A80036;stroke-width:1.5;" x1="1904.5" x2="2005.5" y1="310.3438" y2="310.3438"/><!--MD5=[efe2484ea38177bb5b9c9547cf22e78e]
class DisplayVariable--><rect codeLine="30" fill="#FEFECE" filter="url(#fp659oswkvmae)" height="75.6719" id="DisplayVariable" style="stroke:#A80036;stroke-width:1.5;" width="118" x="1489" y="419.5"/><ellipse cx="1504" cy="435.5" fill="#ADD1B2" rx="11" ry="11" style="stroke:#A80036;stroke-width:1.0;"/><path d="M1506.7656,431.375 Q1506.9219,431.1563 1507.1094,431.0469 Q1507.2969,430.9375 1507.5156,430.9375 Q1507.8906,430.9375 1508.125,431.2031 Q1508.3594,431.4531 1508.3594,432.0625 L1508.3594,433.5156 Q1508.3594,434.125 1508.125,434.3906 Q1507.8906,434.6563 1507.5156,434.6563 Q1507.1719,434.6563 1506.9688,434.4531 Q1506.7656,434.2656 1506.6563,433.75 Q1506.6094,433.3906 1506.4219,433.2031 Q1506.0938,432.8281 1505.4844,432.6094 Q1504.875,432.3906 1504.25,432.3906 Q1503.4844,432.3906 1502.8438,432.7188 Q1502.2188,433.0469 1501.7188,433.7969 Q1501.2344,434.5469 1501.2344,435.5781 L1501.2344,436.6719 Q1501.2344,437.9063 1502.125,438.7344 Q1503.0156,439.5469 1504.6094,439.5469 Q1505.5469,439.5469 1506.2031,439.2969 Q1506.5938,439.1406 1507.0156,438.7031 Q1507.2813,438.4375 1507.4219,438.3594 Q1507.5781,438.2813 1507.7813,438.2813 Q1508.1094,438.2813 1508.3594,438.5469 Q1508.625,438.7969 1508.625,439.1406 Q1508.625,439.4844 1508.2813,439.8906 Q1507.7813,440.4688 1506.9844,440.7969 Q1505.9063,441.25 1504.6094,441.25 Q1503.0938,441.25 1501.8906,440.625 Q1500.9063,440.125 1500.2188,439.0625 Q1499.5313,437.9844 1499.5313,436.7031 L1499.5313,435.5469 Q1499.5313,434.2188 1500.1406,433.0781 Q1500.7656,431.9219 1501.8594,431.3125 Q1502.9531,430.6875 1504.1875,430.6875 Q1504.9219,430.6875 1505.5625,430.8594 Q1506.2188,431.0156 1506.7656,431.375 Z " fill="#000000"/><text fill="#000000" font-family="sans-serif" font-size="12" lengthAdjust="spacing" textLength="86" x="1518" y="440.4102">DisplayVariable</text><line style="stroke:#A80036;stroke-width:1.5;" x1="1490" x2="1606" y1="451.5" y2="451.5"/><ellipse cx="1500" cy="462.5" fill="none" rx="3" ry="3" style="stroke:#038048;stroke-width:1.0;"/><text fill="#000000" font-family="sans-serif" font-size="11" lengthAdjust="spacing" textLength="60" x="1509" y="466.9189">name: String</text><ellipse cx="1500" cy="476.3359" fill="none" rx="3" ry="3" style="stroke:#038048;stroke-width:1.0;"/><text fill="#000000" font-family="sans-serif" font-size="11" lengthAdjust="spacing" textLength="64" x="1509" y="480.7549">value: double</text><line style="stroke:#A80036;stroke-width:1.5;" x1="1490" x2="1606" y1="487.1719" y2="487.1719"/><!--MD5=[2a0f3265b372d1322689490392359015]
class DisplayCommand--><rect codeLine="35" fill="#FEFECE" filter="url(#fp659oswkvmae)" height="75.6719" id="DisplayCommand" style="stroke:#A80036;stroke-width:1.5;" width="132" x="1642" y="419.5"/><ellipse cx="1657" cy="435.5" fill="#ADD1B2" rx="11" ry="11" style="stroke:#A80036;stroke-width:1.0;"/><path d="M1659.7656,431.375 Q1659.9219,431.1563 1660.1094,431.0469 Q1660.2969,430.9375 1660.5156,430.9375 Q1660.8906,430.9375 1661.125,431.2031 Q1661.3594,431.4531 1661.3594,432.0625 L1661.3594,433.5156 Q1661.3594,434.125 1661.125,434.3906 Q1660.8906,434.6563 1660.5156,434.6563 Q1660.1719,434.6563 1659.9688,434.4531 Q1659.7656,434.2656 1659.6563,433.75 Q1659.6094,433.3906 1659.4219,433.2031 Q1659.0938,432.8281 1658.4844,432.6094 Q1657.875,432.3906 1657.25,432.3906 Q1656.4844,432.3906 1655.8438,432.7188 Q1655.2188,433.0469 1654.7188,433.7969 Q1654.2344,434.5469 1654.2344,435.5781 L1654.2344,436.6719 Q1654.2344,437.9063 1655.125,438.7344 Q1656.0156,439.5469 1657.6094,439.5469 Q1658.5469,439.5469 1659.2031,439.2969 Q1659.5938,439.1406 1660.0156,438.7031 Q1660.2813,438.4375 1660.4219,438.3594 Q1660.5781,438.2813 1660.7813,438.2813 Q1661.1094,438.2813 1661.3594,438.5469 Q1661.625,438.7969 1661.625,439.1406 Q1661.625,439.4844 1661.2813,439.8906 Q1660.7813,440.4688 1659.9844,440.7969 Q1658.9063,441.25 1657.6094,441.25 Q1656.0938,441.25 1654.8906,440.625 Q1653.9063,440.125 1653.2188,439.0625 Q1652.5313,437.9844 1652.5313,436.7031 L1652.5313,435.5469 Q1652.5313,434.2188 1653.1406,433.0781 Q1653.7656,431.9219 1654.8594,431.3125 Q1655.9531,430.6875 1657.1875,430.6875 Q1657.9219,430.6875 1658.5625,430.8594 Q1659.2188,431.0156 1659.7656,431.375 Z " fill="#000000"/><text fill="#000000" font-family="sans-serif" font-size="12" lengthAdjust="spacing" textLength="100" x="1671" y="440.4102">DisplayCommand</text><line style="stroke:#A80036;stroke-width:1.5;" x1="1643" x2="1773" y1="451.5" y2="451.5"/><ellipse cx="1653" cy="462.5" fill="none" rx="3" ry="3" style="stroke:#038048;stroke-width:1.0;"/><text fill="#000000" font-family="sans-serif" font-size="11" lengthAdjust="spacing" textLength="60" x="1662" y="466.9189">name: String</text><ellipse cx="1653" cy="476.3359" fill="none" rx="3" ry="3" style="stroke:#038048;stroke-width:1.0;"/><text fill="#000000" font-family="sans-serif" font-size="11" lengthAdjust="spacing" textLength="79" x="1662" y="480.7549">signature: String</text><line style="stroke:#A80036;stroke-width:1.5;" x1="1643" x2="1773" y1="487.1719" y2="487.1719"/><!--MD5=[c045e12321b83266d36d22b9096c24ea]
class View--><rect codeLine="42" fill="#FEFECE" filter="url(#fp659oswkvmae)" height="61.8359" id="View" style="stroke:#A80036;stroke-width:1.5;" width="297" x="2350.5" y="426.5"/><ellipse cx="2481.75" cy="442.5" fill="#ADD1B2" rx="11" ry="11" style="stroke:#A80036;stroke-width:1.0;"/><path d="M2484.5156,438.375 Q2484.6719,438.1563 2484.8594,438.0469 Q2485.0469,437.9375 2485.2656,437.9375 Q2485.6406,437.9375 2485.875,438.2031 Q2486.1094,438.4531 2486.1094,439.0625 L2486.1094,440.5156 Q2486.1094,441.125 2485.875,441.3906 Q2485.6406,441.6563 2485.2656,441.6563 Q2484.9219,441.6563 2484.7188,441.4531 Q2484.5156,441.2656 2484.4063,440.75 Q2484.3594,440.3906 2484.1719,440.2031 Q2483.8438,439.8281 2483.2344,439.6094 Q2482.625,439.3906 2482,439.3906 Q2481.2344,439.3906 2480.5938,439.7188 Q2479.9688,440.0469 2479.4688,440.7969 Q2478.9844,441.5469 2478.9844,442.5781 L2478.9844,443.6719 Q2478.9844,444.9063 2479.875,445.7344 Q2480.7656,446.5469 2482.3594,446.5469 Q2483.2969,446.5469 2483.9531,446.2969 Q2484.3438,446.1406 2484.7656,445.7031 Q2485.0313,445.4375 2485.1719,445.3594 Q2485.3281,445.2813 2485.5313,445.2813 Q2485.8594,445.2813 2486.1094,445.5469 Q2486.375,445.7969 2486.375,446.1406 Q2486.375,446.4844 2486.0313,446.8906 Q2485.5313,447.4688 2484.7344,447.7969 Q2483.6563,448.25 2482.3594,448.25 Q2480.8438,448.25 2479.6406,447.625 Q2478.6563,447.125 2477.9688,446.0625 Q2477.2813,444.9844 2477.2813,443.7031 L2477.2813,442.5469 Q2477.2813,441.2188 2477.8906,440.0781 Q2478.5156,438.9219 2479.6094,438.3125 Q2480.7031,437.6875 2481.9375,437.6875 Q2482.6719,437.6875 2483.3125,437.8594 Q2483.9688,438.0156 2484.5156,438.375 Z " fill="#000000"/><text fill="#000000" font-family="sans-serif" font-size="12" lengthAdjust="spacing" textLength="26" x="2502.25" y="447.4102">View</text><line style="stroke:#A80036;stroke-width:1.5;" x1="2351.5" x2="2646.5" y1="458.5" y2="458.5"/><line style="stroke:#A80036;stroke-width:1.5;" x1="2351.5" x2="2646.5" y1="466.5" y2="466.5"/><ellipse cx="2361.5" cy="477.5" fill="#84BE84" rx="3" ry="3" style="stroke:#038048;stroke-width:1.0;"/><text fill="#000000" font-family="sans-serif" font-size="11" lengthAdjust="spacing" textLength="271" x="2370.5" y="481.9189">View(Controller controller, TrackableEnvironment model)</text><!--MD5=[8fb2ca2ef64ab3f4a6773900ee7ab83b]
class TurtleSandbox--><rect codeLine="51" fill="#FEFECE" filter="url(#fp659oswkvmae)" height="48" id="TurtleSandbox" style="stroke:#A80036;stroke-width:1.5;" width="111" x="2807.5" y="242.5"/><ellipse cx="2822.5" cy="258.5" fill="#ADD1B2" rx="11" ry="11" style="stroke:#A80036;stroke-width:1.0;"/><path d="M2825.2656,254.375 Q2825.4219,254.1563 2825.6094,254.0469 Q2825.7969,253.9375 2826.0156,253.9375 Q2826.3906,253.9375 2826.625,254.2031 Q2826.8594,254.4531 2826.8594,255.0625 L2826.8594,256.5156 Q2826.8594,257.125 2826.625,257.3906 Q2826.3906,257.6563 2826.0156,257.6563 Q2825.6719,257.6563 2825.4688,257.4531 Q2825.2656,257.2656 2825.1563,256.75 Q2825.1094,256.3906 2824.9219,256.2031 Q2824.5938,255.8281 2823.9844,255.6094 Q2823.375,255.3906 2822.75,255.3906 Q2821.9844,255.3906 2821.3438,255.7188 Q2820.7188,256.0469 2820.2188,256.7969 Q2819.7344,257.5469 2819.7344,258.5781 L2819.7344,259.6719 Q2819.7344,260.9063 2820.625,261.7344 Q2821.5156,262.5469 2823.1094,262.5469 Q2824.0469,262.5469 2824.7031,262.2969 Q2825.0938,262.1406 2825.5156,261.7031 Q2825.7813,261.4375 2825.9219,261.3594 Q2826.0781,261.2813 2826.2813,261.2813 Q2826.6094,261.2813 2826.8594,261.5469 Q2827.125,261.7969 2827.125,262.1406 Q2827.125,262.4844 2826.7813,262.8906 Q2826.2813,263.4688 2825.4844,263.7969 Q2824.4063,264.25 2823.1094,264.25 Q2821.5938,264.25 2820.3906,263.625 Q2819.4063,263.125 2818.7188,262.0625 Q2818.0313,260.9844 2818.0313,259.7031 L2818.0313,258.5469 Q2818.0313,257.2188 2818.6406,256.0781 Q2819.2656,254.9219 2820.3594,254.3125 Q2821.4531,253.6875 2822.6875,253.6875 Q2823.4219,253.6875 2824.0625,253.8594 Q2824.7188,254.0156 2825.2656,254.375 Z " fill="#000000"/><text fill="#000000" font-family="sans-serif" font-size="12" lengthAdjust="spacing" textLength="79" x="2836.5" y="263.4102">TurtleSandbox</text><line style="stroke:#A80036;stroke-width:1.5;" x1="2808.5" x2="2917.5" y1="274.5" y2="274.5"/><line style="stroke:#A80036;stroke-width:1.5;" x1="2808.5" x2="2917.5" y1="282.5" y2="282.5"/><path d="M2778,66.5 L2778,109.2031 A0,0 0 0 0 2778,109.2031 L2887.27,109.2031 L2867.22,242.25 L2895.27,109.2031 L3012,109.2031 A0,0 0 0 0 3012,109.2031 L3012,76.5 L3002,66.5 L2778,66.5 A0,0 0 0 0 2778,66.5 " fill="#FBFB77" filter="url(#fp659oswkvmae)" style="stroke:#A80036;stroke-width:1.0;"/><path d="M3002,66.5 L3002,76.5 L3012,76.5 L3002,66.5 " fill="#FBFB77" style="stroke:#A80036;stroke-width:1.0;"/><text fill="#000000" font-family="sans-serif" font-size="13" lengthAdjust="spacing" textLength="169" x="2784" y="84.9951">where the turtle's displayed :)</text><text fill="#000000" font-family="sans-serif" font-size="13" lengthAdjust="spacing" textLength="213" x="2784" y="101.3467">Probably extends some kind of Pane</text><!--MD5=[3b3b6896349c39f54fba09a0a4f08330]
class ViewController--><rect codeLine="62" fill="#FEFECE" filter="url(#fp659oswkvmae)" height="89.5078" id="ViewController" style="stroke:#A80036;stroke-width:1.5;" width="225" x="2510.5" y="221.5"/><ellipse cx="2578.75" cy="237.5" fill="#B4A7E5" rx="11" ry="11" style="stroke:#A80036;stroke-width:1.0;"/><path d="M2579.7031,234.1406 L2579.7031,240.7969 L2581.4219,240.7969 Q2582.0313,240.7969 2582.2969,241.0313 Q2582.5625,241.2656 2582.5625,241.6563 Q2582.5625,242.0313 2582.2969,242.2656 Q2582.0313,242.5 2581.4219,242.5 L2576.2813,242.5 Q2575.6719,242.5 2575.4063,242.2656 Q2575.1406,242.0313 2575.1406,241.6406 Q2575.1406,241.2656 2575.4063,241.0313 Q2575.6719,240.7969 2576.2813,240.7969 L2578,240.7969 L2578,234.1406 L2576.2813,234.1406 Q2575.6719,234.1406 2575.4063,233.9063 Q2575.1406,233.6719 2575.1406,233.2813 Q2575.1406,232.9063 2575.4063,232.6719 Q2575.6719,232.4375 2576.2813,232.4375 L2581.4219,232.4375 Q2582.0313,232.4375 2582.2969,232.6719 Q2582.5625,232.9063 2582.5625,233.2813 Q2582.5625,233.6719 2582.2969,233.9063 Q2582.0313,234.1406 2581.4219,234.1406 L2579.7031,234.1406 Z " fill="#000000"/><text fill="#000000" font-family="sans-serif" font-size="12" font-style="italic" lengthAdjust="spacing" textLength="80" x="2599.25" y="242.4102">ViewController</text><line style="stroke:#A80036;stroke-width:1.5;" x1="2511.5" x2="2734.5" y1="253.5" y2="253.5"/><line style="stroke:#A80036;stroke-width:1.5;" x1="2511.5" x2="2734.5" y1="261.5" y2="261.5"/><ellipse cx="2521.5" cy="272.5" fill="#84BE84" rx="3" ry="3" style="stroke:#038048;stroke-width:1.0;"/><text fill="#000000" font-family="sans-serif" font-size="11" lengthAdjust="spacing" textLength="136" x="2530.5" y="276.9189">setBackground(String color)</text><ellipse cx="2521.5" cy="286.3359" fill="#84BE84" rx="3" ry="3" style="stroke:#038048;stroke-width:1.0;"/><text fill="#000000" font-family="sans-serif" font-size="11" lengthAdjust="spacing" textLength="199" x="2530.5" y="290.7549">setLanguage(String englishSucksAmirite)</text><ellipse cx="2521.5" cy="300.1719" fill="#84BE84" rx="3" ry="3" style="stroke:#038048;stroke-width:1.0;"/><text fill="#000000" font-family="sans-serif" font-size="11" lengthAdjust="spacing" textLength="98" x="2530.5" y="304.5908">otherStyleMethods()</text><path d="M2513.5,42 L2513.5,133.7578 A0,0 0 0 0 2513.5,133.7578 L2622.71,133.7578 L2624.25,221.42 L2630.71,133.7578 L2742.5,133.7578 A0,0 0 0 0 2742.5,133.7578 L2742.5,52 L2732.5,42 L2513.5,42 A0,0 0 0 0 2513.5,42 " fill="#FBFB77" filter="url(#fp659oswkvmae)" style="stroke:#A80036;stroke-width:1.0;"/><path d="M2732.5,42 L2732.5,52 L2742.5,52 L2732.5,42 " fill="#FBFB77" style="stroke:#A80036;stroke-width:1.0;"/><text fill="#000000" font-family="sans-serif" font-size="13" lengthAdjust="spacing" textLength="134" x="2519.5" y="60.4951">Set aspects of the view</text><text fill="#000000" font-family="sans-serif" font-size="13" lengthAdjust="spacing" textLength="204" x="2519.5" y="76.8467">such as language and stuff. Nested</text><text fill="#000000" font-family="sans-serif" font-size="13" lengthAdjust="spacing" textLength="208" x="2519.5" y="93.1982">class implements this in view and is</text><text fill="#000000" font-family="sans-serif" font-size="13" lengthAdjust="spacing" textLength="199" x="2519.5" y="109.5498">passed to classes that manipulate</text><text fill="#000000" font-family="sans-serif" font-size="13" lengthAdjust="spacing" textLength="112" x="2519.5" y="125.9014">how the view looks.</text><!--MD5=[129e7c0b9d53eb958cd6b211ffdc83bd]
class ModelController--><rect codeLine="72" fill="#FEFECE" filter="url(#fp659oswkvmae)" height="89.5078" id="ModelController" style="stroke:#A80036;stroke-width:1.5;" width="182" x="2284" y="221.5"/><ellipse cx="2327.35" cy="237.5" fill="#ADD1B2" rx="11" ry="11" style="stroke:#A80036;stroke-width:1.0;"/><path d="M2330.1156,233.375 Q2330.2719,233.1563 2330.4594,233.0469 Q2330.6469,232.9375 2330.8656,232.9375 Q2331.2406,232.9375 2331.475,233.2031 Q2331.7094,233.4531 2331.7094,234.0625 L2331.7094,235.5156 Q2331.7094,236.125 2331.475,236.3906 Q2331.2406,236.6563 2330.8656,236.6563 Q2330.5219,236.6563 2330.3188,236.4531 Q2330.1156,236.2656 2330.0063,235.75 Q2329.9594,235.3906 2329.7719,235.2031 Q2329.4438,234.8281 2328.8344,234.6094 Q2328.225,234.3906 2327.6,234.3906 Q2326.8344,234.3906 2326.1938,234.7188 Q2325.5688,235.0469 2325.0688,235.7969 Q2324.5844,236.5469 2324.5844,237.5781 L2324.5844,238.6719 Q2324.5844,239.9063 2325.475,240.7344 Q2326.3656,241.5469 2327.9594,241.5469 Q2328.8969,241.5469 2329.5531,241.2969 Q2329.9438,241.1406 2330.3656,240.7031 Q2330.6313,240.4375 2330.7719,240.3594 Q2330.9281,240.2813 2331.1313,240.2813 Q2331.4594,240.2813 2331.7094,240.5469 Q2331.975,240.7969 2331.975,241.1406 Q2331.975,241.4844 2331.6313,241.8906 Q2331.1313,242.4688 2330.3344,242.7969 Q2329.2563,243.25 2327.9594,243.25 Q2326.4438,243.25 2325.2406,242.625 Q2324.2563,242.125 2323.5688,241.0625 Q2322.8813,239.9844 2322.8813,238.7031 L2322.8813,237.5469 Q2322.8813,236.2188 2323.4906,235.0781 Q2324.1156,233.9219 2325.2094,233.3125 Q2326.3031,232.6875 2327.5375,232.6875 Q2328.2719,232.6875 2328.9125,232.8594 Q2329.5688,233.0156 2330.1156,233.375 Z " fill="#000000"/><text fill="#000000" font-family="sans-serif" font-size="12" lengthAdjust="spacing" textLength="87" x="2347.65" y="242.4102">ModelController</text><line style="stroke:#A80036;stroke-width:1.5;" x1="2285" x2="2465" y1="253.5" y2="253.5"/><line style="stroke:#A80036;stroke-width:1.5;" x1="2285" x2="2465" y1="261.5" y2="261.5"/><ellipse cx="2295" cy="272.5" fill="#84BE84" rx="3" ry="3" style="stroke:#038048;stroke-width:1.0;"/><text fill="#000000" font-family="sans-serif" font-size="11" lengthAdjust="spacing" textLength="156" x="2304" y="276.9189">sendCommand(String command)</text><ellipse cx="2295" cy="286.3359" fill="#84BE84" rx="3" ry="3" style="stroke:#038048;stroke-width:1.0;"/><text fill="#000000" font-family="sans-serif" font-size="11" lengthAdjust="spacing" textLength="144" x="2304" y="290.7549">sendCommand(File command)</text><ellipse cx="2295" cy="300.1719" fill="#84BE84" rx="3" ry="3" style="stroke:#038048;stroke-width:1.0;"/><text fill="#000000" font-family="sans-serif" font-size="11" lengthAdjust="spacing" textLength="122" x="2304" y="304.5908">setLanguage(String lang)</text><path d="M2262,66.5 L2262,109.2031 A0,0 0 0 0 2262,109.2031 L2366.58,109.2031 L2373.75,221.48 L2374.58,109.2031 L2478,109.2031 A0,0 0 0 0 2478,109.2031 L2478,76.5 L2468,66.5 L2262,66.5 A0,0 0 0 0 2262,66.5 " fill="#FBFB77" filter="url(#fp659oswkvmae)" style="stroke:#A80036;stroke-width:1.0;"/><path d="M2468,66.5 L2468,76.5 L2478,76.5 L2468,66.5 " fill="#FBFB77" style="stroke:#A80036;stroke-width:1.0;"/><text fill="#000000" font-family="sans-serif" font-size="13" lengthAdjust="spacing" textLength="177" x="2268" y="84.9951">This contains methods needed</text><text fill="#000000" font-family="sans-serif" font-size="13" lengthAdjust="spacing" textLength="195" x="2268" y="101.3467">to talk to the model from the view.</text><!--MD5=[8b5a2963907f345d8fb0c8058e1ca15f]
class SettingsScene--><rect codeLine="81" fill="#FEFECE" filter="url(#fp659oswkvmae)" height="61.8359" id="SettingsScene" style="stroke:#A80036;stroke-width:1.5;" width="152" x="2083" y="235.5"/><ellipse cx="2116" cy="251.5" fill="#ADD1B2" rx="11" ry="11" style="stroke:#A80036;stroke-width:1.0;"/><path d="M2118.7656,247.375 Q2118.9219,247.1563 2119.1094,247.0469 Q2119.2969,246.9375 2119.5156,246.9375 Q2119.8906,246.9375 2120.125,247.2031 Q2120.3594,247.4531 2120.3594,248.0625 L2120.3594,249.5156 Q2120.3594,250.125 2120.125,250.3906 Q2119.8906,250.6563 2119.5156,250.6563 Q2119.1719,250.6563 2118.9688,250.4531 Q2118.7656,250.2656 2118.6563,249.75 Q2118.6094,249.3906 2118.4219,249.2031 Q2118.0938,248.8281 2117.4844,248.6094 Q2116.875,248.3906 2116.25,248.3906 Q2115.4844,248.3906 2114.8438,248.7188 Q2114.2188,249.0469 2113.7188,249.7969 Q2113.2344,250.5469 2113.2344,251.5781 L2113.2344,252.6719 Q2113.2344,253.9063 2114.125,254.7344 Q2115.0156,255.5469 2116.6094,255.5469 Q2117.5469,255.5469 2118.2031,255.2969 Q2118.5938,255.1406 2119.0156,254.7031 Q2119.2813,254.4375 2119.4219,254.3594 Q2119.5781,254.2813 2119.7813,254.2813 Q2120.1094,254.2813 2120.3594,254.5469 Q2120.625,254.7969 2120.625,255.1406 Q2120.625,255.4844 2120.2813,255.8906 Q2119.7813,256.4688 2118.9844,256.7969 Q2117.9063,257.25 2116.6094,257.25 Q2115.0938,257.25 2113.8906,256.625 Q2112.9063,256.125 2112.2188,255.0625 Q2111.5313,253.9844 2111.5313,252.7031 L2111.5313,251.5469 Q2111.5313,250.2188 2112.1406,249.0781 Q2112.7656,247.9219 2113.8594,247.3125 Q2114.9531,246.6875 2116.1875,246.6875 Q2116.9219,246.6875 2117.5625,246.8594 Q2118.2188,247.0156 2118.7656,247.375 Z " fill="#000000"/><text fill="#000000" font-family="sans-serif" font-size="12" lengthAdjust="spacing" textLength="80" x="2134" y="256.4102">SettingsScene</text><line style="stroke:#A80036;stroke-width:1.5;" x1="2084" x2="2234" y1="267.5" y2="267.5"/><rect fill="none" height="6" style="stroke:#C82930;stroke-width:1.0;" width="6" x="2091" y="275.5"/><text fill="#000000" font-family="sans-serif" font-size="11" lengthAdjust="spacing" textLength="126" x="2103" y="282.9189">controller : ViewController</text><line style="stroke:#A80036;stroke-width:1.5;" x1="2084" x2="2234" y1="289.3359" y2="289.3359"/><path d="M2063,75 L2063,101.3516 A0,0 0 0 0 2063,101.3516 L2141.96,101.3516 L2156.61,235.41 L2149.96,101.3516 L2227,101.3516 A0,0 0 0 0 2227,101.3516 L2227,85 L2217,75 L2063,75 A0,0 0 0 0 2063,75 " fill="#FBFB77" filter="url(#fp659oswkvmae)" style="stroke:#A80036;stroke-width:1.0;"/><path d="M2217,75 L2217,85 L2227,85 L2217,75 " fill="#FBFB77" style="stroke:#A80036;stroke-width:1.0;"/><text fill="#000000" font-family="sans-serif" font-size="13" lengthAdjust="spacing" textLength="143" x="2069" y="93.4951">Extens the Scene class.</text><!--MD5=[f9ab932a02975594977d17de73be6cc6]
class TrackableEnvironment--><rect codeLine="99" fill="#FEFECE" filter="url(#fp659oswkvmae)" height="103.3438" id="TrackableEnvironment" style="stroke:#A80036;stroke-width:1.5;" width="276" x="862" y="215"/><ellipse cx="932.75" cy="231" fill="#B4A7E5" rx="11" ry="11" style="stroke:#A80036;stroke-width:1.0;"/><path d="M933.7031,227.6406 L933.7031,234.2969 L935.4219,234.2969 Q936.0313,234.2969 936.2969,234.5313 Q936.5625,234.7656 936.5625,235.1563 Q936.5625,235.5313 936.2969,235.7656 Q936.0313,236 935.4219,236 L930.2813,236 Q929.6719,236 929.4063,235.7656 Q929.1406,235.5313 929.1406,235.1406 Q929.1406,234.7656 929.4063,234.5313 Q929.6719,234.2969 930.2813,234.2969 L932,234.2969 L932,227.6406 L930.2813,227.6406 Q929.6719,227.6406 929.4063,227.4063 Q929.1406,227.1719 929.1406,226.7813 Q929.1406,226.4063 929.4063,226.1719 Q929.6719,225.9375 930.2813,225.9375 L935.4219,225.9375 Q936.0313,225.9375 936.2969,226.1719 Q936.5625,226.4063 936.5625,226.7813 Q936.5625,227.1719 936.2969,227.4063 Q936.0313,227.6406 935.4219,227.6406 L933.7031,227.6406 Z " fill="#000000"/><text fill="#000000" font-family="sans-serif" font-size="12" font-style="italic" lengthAdjust="spacing" textLength="126" x="953.25" y="235.9102">TrackableEnvironment</text><line style="stroke:#A80036;stroke-width:1.5;" x1="863" x2="1137" y1="247" y2="247"/><line style="stroke:#A80036;stroke-width:1.5;" x1="863" x2="1137" y1="255" y2="255"/><ellipse cx="873" cy="266" fill="#84BE84" rx="3" ry="3" style="stroke:#038048;stroke-width:1.0;"/><text fill="#000000" font-family="sans-serif" font-size="11" lengthAdjust="spacing" textLength="204" x="882" y="270.4189">setOnTurtleUpdate(UpdateTurtle callback);</text><ellipse cx="873" cy="279.8359" fill="#84BE84" rx="3" ry="3" style="stroke:#038048;stroke-width:1.0;"/><text fill="#000000" font-family="sans-serif" font-size="11" lengthAdjust="spacing" textLength="230" x="882" y="284.2549">setOnVariableUpdate(UpdateVariable callback);</text><ellipse cx="873" cy="293.6719" fill="#84BE84" rx="3" ry="3" style="stroke:#038048;stroke-width:1.0;"/><text fill="#000000" font-family="sans-serif" font-size="11" lengthAdjust="spacing" textLength="250" x="882" y="298.0908">setOnCommandUpdate(UpdateCommands callback);</text><ellipse cx="873" cy="307.5078" fill="#84BE84" rx="3" ry="3" style="stroke:#038048;stroke-width:1.0;"/><text fill="#000000" font-family="sans-serif" font-size="11" lengthAdjust="spacing" textLength="189" x="882" y="311.9268">runCommand(String command) : double</text><path d="M736.5,42 L736.5,133.7578 A0,0 0 0 0 736.5,133.7578 L877.95,133.7578 L954.43,214.91 L885.95,133.7578 L945.5,133.7578 A0,0 0 0 0 945.5,133.7578 L945.5,52 L935.5,42 L736.5,42 A0,0 0 0 0 736.5,42 " fill="#FBFB77" filter="url(#fp659oswkvmae)" style="stroke:#A80036;stroke-width:1.0;"/><path d="M935.5,42 L935.5,52 L945.5,52 L935.5,42 " fill="#FBFB77" style="stroke:#A80036;stroke-width:1.0;"/><text fill="#000000" font-family="sans-serif" font-size="13" lengthAdjust="spacing" textLength="153" x="742.5" y="60.4951">The trackable interface will</text><text fill="#000000" font-family="sans-serif" font-size="13" lengthAdjust="spacing" textLength="163" x="742.5" y="76.8467">define a class internal to the</text><text fill="#000000" font-family="sans-serif" font-size="13" lengthAdjust="spacing" textLength="185" x="742.5" y="93.1982">model which represents a turtle.</text><text fill="#000000" font-family="sans-serif" font-size="13" lengthAdjust="spacing" textLength="188" x="742.5" y="109.5498">This interface defines how a view</text><text fill="#000000" font-family="sans-serif" font-size="13" lengthAdjust="spacing" textLength="148" x="742.5" y="125.9014">can observe the changes.</text><path d="M891.5,436 L891.5,478.7031 A0,0 0 0 0 891.5,478.7031 L1152.5,478.7031 A0,0 0 0 0 1152.5,478.7031 L1152.5,446 L1142.5,436 L1023.58,436 L1005.9,318.15 L1015.58,436 L891.5,436 A0,0 0 0 0 891.5,436 " fill="#FBFB77" filter="url(#fp659oswkvmae)" style="stroke:#A80036;stroke-width:1.0;"/><path d="M1142.5,436 L1142.5,446 L1152.5,446 L1142.5,436 " fill="#FBFB77" style="stroke:#A80036;stroke-width:1.0;"/><text fill="#000000" font-family="sans-serif" font-size="13" lengthAdjust="spacing" textLength="240" x="897.5" y="454.4951">One possible change is to create a single</text><text fill="#000000" font-family="sans-serif" font-size="13" lengthAdjust="spacing" textLength="202" x="897.5" y="470.8467">interface that has all the callbacks.</text><!--MD5=[5d0a77e8f66918aa15fe0099dd6d4ba9]
class Environment--><rect codeLine="110" fill="#FEFECE" filter="url(#fp659oswkvmae)" height="117.1797" id="Environment" style="stroke:#A80036;stroke-width:1.5;" width="228" x="628" y="399"/><ellipse cx="703.25" cy="415" fill="#ADD1B2" rx="11" ry="11" style="stroke:#A80036;stroke-width:1.0;"/><path d="M706.0156,410.875 Q706.1719,410.6563 706.3594,410.5469 Q706.5469,410.4375 706.7656,410.4375 Q707.1406,410.4375 707.375,410.7031 Q707.6094,410.9531 707.6094,411.5625 L707.6094,413.0156 Q707.6094,413.625 707.375,413.8906 Q707.1406,414.1563 706.7656,414.1563 Q706.4219,414.1563 706.2188,413.9531 Q706.0156,413.7656 705.9063,413.25 Q705.8594,412.8906 705.6719,412.7031 Q705.3438,412.3281 704.7344,412.1094 Q704.125,411.8906 703.5,411.8906 Q702.7344,411.8906 702.0938,412.2188 Q701.4688,412.5469 700.9688,413.2969 Q700.4844,414.0469 700.4844,415.0781 L700.4844,416.1719 Q700.4844,417.4063 701.375,418.2344 Q702.2656,419.0469 703.8594,419.0469 Q704.7969,419.0469 705.4531,418.7969 Q705.8438,418.6406 706.2656,418.2031 Q706.5313,417.9375 706.6719,417.8594 Q706.8281,417.7813 707.0313,417.7813 Q707.3594,417.7813 707.6094,418.0469 Q707.875,418.2969 707.875,418.6406 Q707.875,418.9844 707.5313,419.3906 Q707.0313,419.9688 706.2344,420.2969 Q705.1563,420.75 703.8594,420.75 Q702.3438,420.75 701.1406,420.125 Q700.1563,419.625 699.4688,418.5625 Q698.7813,417.4844 698.7813,416.2031 L698.7813,415.0469 Q698.7813,413.7188 699.3906,412.5781 Q700.0156,411.4219 701.1094,410.8125 Q702.2031,410.1875 703.4375,410.1875 Q704.1719,410.1875 704.8125,410.3594 Q705.4688,410.5156 706.0156,410.875 Z " fill="#000000"/><text fill="#000000" font-family="sans-serif" font-size="12" lengthAdjust="spacing" textLength="69" x="723.75" y="419.9102">Environment</text><line style="stroke:#A80036;stroke-width:1.5;" x1="629" x2="855" y1="431" y2="431"/><rect fill="none" height="6" style="stroke:#C82930;stroke-width:1.0;" width="6" x="636" y="439"/><text fill="#000000" font-family="sans-serif" font-size="11" lengthAdjust="spacing" textLength="73" x="648" y="446.4189">Parser : Parser</text><line style="stroke:#A80036;stroke-width:1.5;" x1="629" x2="855" y1="452.8359" y2="452.8359"/><polygon fill="#FFFF44" points="639,458.8359,643,462.8359,639,466.8359,635,462.8359" style="stroke:#B38D22;stroke-width:1.0;"/><text fill="#000000" font-family="sans-serif" font-size="11" lengthAdjust="spacing" textLength="162" x="648" y="468.2549">notifyTurtleUpdate(TurtleInfo info)</text><polygon fill="#FFFF44" points="639,472.6719,643,476.6719,639,480.6719,635,476.6719" style="stroke:#B38D22;stroke-width:1.0;"/><text fill="#000000" font-family="sans-serif" font-size="11" lengthAdjust="spacing" textLength="202" x="648" y="482.0908">notifyCommandUpdate(CommandInfo info)</text><polygon fill="#FFFF44" points="639,486.5078,643,490.5078,639,494.5078,635,490.5078" style="stroke:#B38D22;stroke-width:1.0;"/><text fill="#000000" font-family="sans-serif" font-size="11" lengthAdjust="spacing" textLength="109" x="648" y="495.9268">notifyVariableUpdate()</text><ellipse cx="639" cy="505.3438" fill="#84BE84" rx="3" ry="3" style="stroke:#038048;stroke-width:1.0;"/><text fill="#000000" font-family="sans-serif" font-size="11" lengthAdjust="spacing" textLength="189" x="648" y="509.7627">runCommand(String command) : double</text><!--MD5=[bee99cd56515ff0e9549d4d9a8d933d6]
class ExecutionBundle--><rect codeLine="124" fill="#FEFECE" filter="url(#fp659oswkvmae)" height="48" id="ExecutionBundle" style="stroke:#A80036;stroke-width:1.5;" width="124" x="703" y="242.5"/><ellipse cx="718" cy="258.5" fill="#ADD1B2" rx="11" ry="11" style="stroke:#A80036;stroke-width:1.0;"/><path d="M720.7656,254.375 Q720.9219,254.1563 721.1094,254.0469 Q721.2969,253.9375 721.5156,253.9375 Q721.8906,253.9375 722.125,254.2031 Q722.3594,254.4531 722.3594,255.0625 L722.3594,256.5156 Q722.3594,257.125 722.125,257.3906 Q721.8906,257.6563 721.5156,257.6563 Q721.1719,257.6563 720.9688,257.4531 Q720.7656,257.2656 720.6563,256.75 Q720.6094,256.3906 720.4219,256.2031 Q720.0938,255.8281 719.4844,255.6094 Q718.875,255.3906 718.25,255.3906 Q717.4844,255.3906 716.8438,255.7188 Q716.2188,256.0469 715.7188,256.7969 Q715.2344,257.5469 715.2344,258.5781 L715.2344,259.6719 Q715.2344,260.9063 716.125,261.7344 Q717.0156,262.5469 718.6094,262.5469 Q719.5469,262.5469 720.2031,262.2969 Q720.5938,262.1406 721.0156,261.7031 Q721.2813,261.4375 721.4219,261.3594 Q721.5781,261.2813 721.7813,261.2813 Q722.1094,261.2813 722.3594,261.5469 Q722.625,261.7969 722.625,262.1406 Q722.625,262.4844 722.2813,262.8906 Q721.7813,263.4688 720.9844,263.7969 Q719.9063,264.25 718.6094,264.25 Q717.0938,264.25 715.8906,263.625 Q714.9063,263.125 714.2188,262.0625 Q713.5313,260.9844 713.5313,259.7031 L713.5313,258.5469 Q713.5313,257.2188 714.1406,256.0781 Q714.7656,254.9219 715.8594,254.3125 Q716.9531,253.6875 718.1875,253.6875 Q718.9219,253.6875 719.5625,253.8594 Q720.2188,254.0156 720.7656,254.375 Z " fill="#000000"/><text fill="#000000" font-family="sans-serif" font-size="12" lengthAdjust="spacing" textLength="92" x="732" y="263.4102">ExecutionBundle</text><line style="stroke:#A80036;stroke-width:1.5;" x1="704" x2="826" y1="274.5" y2="274.5"/><line style="stroke:#A80036;stroke-width:1.5;" x1="704" x2="826" y1="282.5" y2="282.5"/><path d="M442,229 L442,304.4063 A0,0 0 0 0 442,304.4063 L668,304.4063 A0,0 0 0 0 668,304.4063 L668,270.5 L702.99,266.5 L668,262.5 L668,239 L658,229 L442,229 A0,0 0 0 0 442,229 " fill="#FBFB77" filter="url(#fp659oswkvmae)" style="stroke:#A80036;stroke-width:1.0;"/><path d="M658,229 L658,239 L668,239 L658,229 " fill="#FBFB77" style="stroke:#A80036;stroke-width:1.0;"/><text fill="#000000" font-family="sans-serif" font-size="13" lengthAdjust="spacing" textLength="168" x="448" y="247.4951">This is a private nested class</text><text fill="#000000" font-family="sans-serif" font-size="13" lengthAdjust="spacing" textLength="205" x="448" y="263.8467">within the Environment. It is passed</text><text fill="#000000" font-family="sans-serif" font-size="13" lengthAdjust="spacing" textLength="204" x="448" y="280.1982">to ASTs and the Turtle to give them</text><text fill="#000000" font-family="sans-serif" font-size="13" lengthAdjust="spacing" textLength="175" x="448" y="296.5498">access to needed commands.</text><!--MD5=[fbaae9c78a4168dfb3ec13c690c751b4]
class InfoBundle--><rect codeLine="127" fill="#FEFECE" filter="url(#fp659oswkvmae)" height="89.5078" id="InfoBundle" style="stroke:#A80036;stroke-width:1.5;" width="206" x="495" y="43"/><ellipse cx="563.75" cy="59" fill="#B4A7E5" rx="11" ry="11" style="stroke:#A80036;stroke-width:1.0;"/><path d="M564.7031,55.6406 L564.7031,62.2969 L566.4219,62.2969 Q567.0313,62.2969 567.2969,62.5313 Q567.5625,62.7656 567.5625,63.1563 Q567.5625,63.5313 567.2969,63.7656 Q567.0313,64 566.4219,64 L561.2813,64 Q560.6719,64 560.4063,63.7656 Q560.1406,63.5313 560.1406,63.1406 Q560.1406,62.7656 560.4063,62.5313 Q560.6719,62.2969 561.2813,62.2969 L563,62.2969 L563,55.6406 L561.2813,55.6406 Q560.6719,55.6406 560.4063,55.4063 Q560.1406,55.1719 560.1406,54.7813 Q560.1406,54.4063 560.4063,54.1719 Q560.6719,53.9375 561.2813,53.9375 L566.4219,53.9375 Q567.0313,53.9375 567.2969,54.1719 Q567.5625,54.4063 567.5625,54.7813 Q567.5625,55.1719 567.2969,55.4063 Q567.0313,55.6406 566.4219,55.6406 L564.7031,55.6406 Z " fill="#000000"/><text fill="#000000" font-family="sans-serif" font-size="12" font-style="italic" lengthAdjust="spacing" textLength="60" x="584.25" y="63.9102">InfoBundle</text><line style="stroke:#A80036;stroke-width:1.5;" x1="496" x2="700" y1="75" y2="75"/><line style="stroke:#A80036;stroke-width:1.5;" x1="496" x2="700" y1="83" y2="83"/><polygon fill="#FFFF44" points="506,89,510,93,506,97,502,93" style="stroke:#B38D22;stroke-width:1.0;"/><text fill="#000000" font-family="sans-serif" font-size="11" lengthAdjust="spacing" textLength="86" x="515" y="98.4189">getTurtle() : Turtle</text><polygon fill="#FFFF44" points="506,102.8359,510,106.8359,506,110.8359,502,106.8359" style="stroke:#B38D22;stroke-width:1.0;"/><text fill="#000000" font-family="sans-serif" font-size="11" lengthAdjust="spacing" textLength="180" x="515" y="112.2549">getLookupTable() : Map&lt;String, AST&gt;</text><polygon fill="#FFFF44" points="506,116.6719,510,120.6719,506,124.6719,502,120.6719" style="stroke:#B38D22;stroke-width:1.0;"/><text fill="#000000" font-family="sans-serif" font-size="11" lengthAdjust="spacing" textLength="162" x="515" y="126.0908">notifyTurtleUpdate(TurtleInfo info)</text><!--MD5=[6726c37a1df62ed999e73b9093df1790]
class EnvironmentFactory--><rect codeLine="137" fill="#FEFECE" filter="url(#fp659oswkvmae)" height="61.8359" id="EnvironmentFactory" style="stroke:#A80036;stroke-width:1.5;" width="225" x="1176.5" y="57"/><ellipse cx="1230.75" cy="73" fill="#ADD1B2" rx="11" ry="11" style="stroke:#A80036;stroke-width:1.0;"/><path d="M1233.5156,68.875 Q1233.6719,68.6563 1233.8594,68.5469 Q1234.0469,68.4375 1234.2656,68.4375 Q1234.6406,68.4375 1234.875,68.7031 Q1235.1094,68.9531 1235.1094,69.5625 L1235.1094,71.0156 Q1235.1094,71.625 1234.875,71.8906 Q1234.6406,72.1563 1234.2656,72.1563 Q1233.9219,72.1563 1233.7188,71.9531 Q1233.5156,71.7656 1233.4063,71.25 Q1233.3594,70.8906 1233.1719,70.7031 Q1232.8438,70.3281 1232.2344,70.1094 Q1231.625,69.8906 1231,69.8906 Q1230.2344,69.8906 1229.5938,70.2188 Q1228.9688,70.5469 1228.4688,71.2969 Q1227.9844,72.0469 1227.9844,73.0781 L1227.9844,74.1719 Q1227.9844,75.4063 1228.875,76.2344 Q1229.7656,77.0469 1231.3594,77.0469 Q1232.2969,77.0469 1232.9531,76.7969 Q1233.3438,76.6406 1233.7656,76.2031 Q1234.0313,75.9375 1234.1719,75.8594 Q1234.3281,75.7813 1234.5313,75.7813 Q1234.8594,75.7813 1235.1094,76.0469 Q1235.375,76.2969 1235.375,76.6406 Q1235.375,76.9844 1235.0313,77.3906 Q1234.5313,77.9688 1233.7344,78.2969 Q1232.6563,78.75 1231.3594,78.75 Q1229.8438,78.75 1228.6406,78.125 Q1227.6563,77.625 1226.9688,76.5625 Q1226.2813,75.4844 1226.2813,74.2031 L1226.2813,73.0469 Q1226.2813,71.7188 1226.8906,70.5781 Q1227.5156,69.4219 1228.6094,68.8125 Q1229.7031,68.1875 1230.9375,68.1875 Q1231.6719,68.1875 1232.3125,68.3594 Q1232.9688,68.5156 1233.5156,68.875 Z " fill="#000000"/><text fill="#000000" font-family="sans-serif" font-size="12" lengthAdjust="spacing" textLength="108" x="1251.25" y="77.9102">EnvironmentFactory</text><line style="stroke:#A80036;stroke-width:1.5;" x1="1177.5" x2="1400.5" y1="89" y2="89"/><line style="stroke:#A80036;stroke-width:1.5;" x1="1177.5" x2="1400.5" y1="97" y2="97"/><text fill="#000000" font-family="sans-serif" font-size="11" lengthAdjust="spacing" text-decoration="underline" textLength="213" x="1182.5" y="112.4189">createEnvironment() : TrackableEnvironment</text><path d="M980.5,66.5 L980.5,109.2031 A0,0 0 0 0 980.5,109.2031 L1141.5,109.2031 A0,0 0 0 0 1141.5,109.2031 L1141.5,92 L1176.44,88 L1141.5,84 L1141.5,76.5 L1131.5,66.5 L980.5,66.5 A0,0 0 0 0 980.5,66.5 " fill="#FBFB77" filter="url(#fp659oswkvmae)" style="stroke:#A80036;stroke-width:1.0;"/><path d="M1131.5,66.5 L1131.5,76.5 L1141.5,76.5 L1131.5,66.5 " fill="#FBFB77" style="stroke:#A80036;stroke-width:1.0;"/><text fill="#000000" font-family="sans-serif" font-size="13" lengthAdjust="spacing" textLength="132" x="986.5" y="84.9951">Just a static class that</text><text fill="#000000" font-family="sans-serif" font-size="13" lengthAdjust="spacing" textLength="140" x="986.5" y="101.3467">creates an Environment.</text><!--MD5=[9576cffdcfadfab2c93d5099f3fbacae]
class Turtle--><rect codeLine="145" fill="#FEFECE" filter="url(#fp659oswkvmae)" height="144.8516" id="Turtle" style="stroke:#A80036;stroke-width:1.5;" width="152" x="255" y="194"/><ellipse cx="311.25" cy="210" fill="#ADD1B2" rx="11" ry="11" style="stroke:#A80036;stroke-width:1.0;"/><path d="M314.0156,205.875 Q314.1719,205.6563 314.3594,205.5469 Q314.5469,205.4375 314.7656,205.4375 Q315.1406,205.4375 315.375,205.7031 Q315.6094,205.9531 315.6094,206.5625 L315.6094,208.0156 Q315.6094,208.625 315.375,208.8906 Q315.1406,209.1563 314.7656,209.1563 Q314.4219,209.1563 314.2188,208.9531 Q314.0156,208.7656 313.9063,208.25 Q313.8594,207.8906 313.6719,207.7031 Q313.3438,207.3281 312.7344,207.1094 Q312.125,206.8906 311.5,206.8906 Q310.7344,206.8906 310.0938,207.2188 Q309.4688,207.5469 308.9688,208.2969 Q308.4844,209.0469 308.4844,210.0781 L308.4844,211.1719 Q308.4844,212.4063 309.375,213.2344 Q310.2656,214.0469 311.8594,214.0469 Q312.7969,214.0469 313.4531,213.7969 Q313.8438,213.6406 314.2656,213.2031 Q314.5313,212.9375 314.6719,212.8594 Q314.8281,212.7813 315.0313,212.7813 Q315.3594,212.7813 315.6094,213.0469 Q315.875,213.2969 315.875,213.6406 Q315.875,213.9844 315.5313,214.3906 Q315.0313,214.9688 314.2344,215.2969 Q313.1563,215.75 311.8594,215.75 Q310.3438,215.75 309.1406,215.125 Q308.1563,214.625 307.4688,213.5625 Q306.7813,212.4844 306.7813,211.2031 L306.7813,210.0469 Q306.7813,208.7188 307.3906,207.5781 Q308.0156,206.4219 309.1094,205.8125 Q310.2031,205.1875 311.4375,205.1875 Q312.1719,205.1875 312.8125,205.3594 Q313.4688,205.5156 314.0156,205.875 Z " fill="#000000"/><text fill="#000000" font-family="sans-serif" font-size="12" lengthAdjust="spacing" textLength="31" x="331.75" y="214.9102">Turtle</text><line style="stroke:#A80036;stroke-width:1.5;" x1="256" x2="406" y1="226" y2="226"/><rect fill="none" height="6" style="stroke:#C82930;stroke-width:1.0;" width="6" x="263" y="234"/><text fill="#000000" font-family="sans-serif" font-size="11" lengthAdjust="spacing" textLength="6" x="275" y="241.4189">x</text><rect fill="none" height="6" style="stroke:#C82930;stroke-width:1.0;" width="6" x="263" y="247.8359"/><text fill="#000000" font-family="sans-serif" font-size="11" lengthAdjust="spacing" textLength="6" x="275" y="255.2549">y</text><rect fill="none" height="6" style="stroke:#C82930;stroke-width:1.0;" width="6" x="263" y="261.6719"/><text fill="#000000" font-family="sans-serif" font-size="11" lengthAdjust="spacing" textLength="36" x="275" y="269.0908">rotation</text><rect fill="none" height="6" style="stroke:#C82930;stroke-width:1.0;" width="6" x="263" y="275.5078"/><text fill="#000000" font-family="sans-serif" font-size="11" lengthAdjust="spacing" textLength="59" x="275" y="282.9268">Environment</text><line style="stroke:#A80036;stroke-width:1.5;" x1="256" x2="406" y1="289.3438" y2="289.3438"/><polygon fill="#FFFF44" points="266,295.3438,270,299.3438,266,303.3438,262,299.3438" style="stroke:#B38D22;stroke-width:1.0;"/><text fill="#000000" font-family="sans-serif" font-size="11" lengthAdjust="spacing" textLength="126" x="275" y="304.7627">setXY(double x, double y)</text><polygon fill="#FFFF44" points="266,309.1797,270,313.1797,266,317.1797,262,313.1797" style="stroke:#B38D22;stroke-width:1.0;"/><text fill="#000000" font-family="sans-serif" font-size="11" lengthAdjust="spacing" textLength="107" x="275" y="318.5986">rotate(double rotation)</text><polygon fill="#FFFF44" points="266,323.0156,270,327.0156,266,331.0156,262,327.0156" style="stroke:#B38D22;stroke-width:1.0;"/><text fill="#000000" font-family="sans-serif" font-size="11" lengthAdjust="spacing" textLength="81" x="275" y="332.4346">move (double x);</text><path d="M277.5,436 L277.5,478.7031 A0,0 0 0 0 277.5,478.7031 L470.5,478.7031 A0,0 0 0 0 470.5,478.7031 L470.5,446 L460.5,436 L373.25,436 L347.32,339.22 L365.25,436 L277.5,436 A0,0 0 0 0 277.5,436 " fill="#FBFB77" filter="url(#fp659oswkvmae)" style="stroke:#A80036;stroke-width:1.0;"/><path d="M460.5,436 L460.5,446 L470.5,446 L460.5,436 " fill="#FBFB77" style="stroke:#A80036;stroke-width:1.0;"/><text fill="#000000" font-family="sans-serif" font-size="13" lengthAdjust="spacing" textLength="172" x="283.5" y="454.4951">When move or rotate is called</text><text fill="#000000" font-family="sans-serif" font-size="13" lengthAdjust="spacing" textLength="147" x="283.5" y="470.8467">it notifies the environment</text><!--MD5=[628cc5a2753cca06eb1ffef55c386535]
class Parser--><rect codeLine="155" fill="#FEFECE" filter="url(#fp659oswkvmae)" height="61.8359" id="Parser" style="stroke:#A80036;stroke-width:1.5;" width="217" x="242.5" y="57"/><ellipse cx="328.75" cy="73" fill="#B4A7E5" rx="11" ry="11" style="stroke:#A80036;stroke-width:1.0;"/><path d="M329.7031,69.6406 L329.7031,76.2969 L331.4219,76.2969 Q332.0313,76.2969 332.2969,76.5313 Q332.5625,76.7656 332.5625,77.1563 Q332.5625,77.5313 332.2969,77.7656 Q332.0313,78 331.4219,78 L326.2813,78 Q325.6719,78 325.4063,77.7656 Q325.1406,77.5313 325.1406,77.1406 Q325.1406,76.7656 325.4063,76.5313 Q325.6719,76.2969 326.2813,76.2969 L328,76.2969 L328,69.6406 L326.2813,69.6406 Q325.6719,69.6406 325.4063,69.4063 Q325.1406,69.1719 325.1406,68.7813 Q325.1406,68.4063 325.4063,68.1719 Q325.6719,67.9375 326.2813,67.9375 L331.4219,67.9375 Q332.0313,67.9375 332.2969,68.1719 Q332.5625,68.4063 332.5625,68.7813 Q332.5625,69.1719 332.2969,69.4063 Q332.0313,69.6406 331.4219,69.6406 L329.7031,69.6406 Z " fill="#000000"/><text fill="#000000" font-family="sans-serif" font-size="12" font-style="italic" lengthAdjust="spacing" textLength="36" x="349.25" y="77.9102">Parser</text><line style="stroke:#A80036;stroke-width:1.5;" x1="243.5" x2="458.5" y1="89" y2="89"/><line style="stroke:#A80036;stroke-width:1.5;" x1="243.5" x2="458.5" y1="97" y2="97"/><ellipse cx="253.5" cy="108" fill="#84BE84" rx="3" ry="3" style="stroke:#038048;stroke-width:1.0;"/><text fill="#000000" font-family="sans-serif" font-size="11" lengthAdjust="spacing" textLength="191" x="262.5" y="112.4189">parseCommand(String Command) : AST</text><!--MD5=[77e9c0e6165332395ff9be2e8cf5de7f]
class ASTNode--><rect codeLine="164" fill="#FEFECE" filter="url(#fp659oswkvmae)" height="75.6719" id="ASTNode" style="stroke:#A80036;stroke-width:1.5;" width="188" x="32" y="228.5"/><ellipse cx="95.25" cy="244.5" fill="#A9DCDF" rx="11" ry="11" style="stroke:#A80036;stroke-width:1.0;"/><path d="M97.4375,246.2656 L93.2969,246.2656 L92.875,247.2969 L93.2969,247.2969 Q93.9063,247.2969 94.1719,247.5313 Q94.4375,247.7656 94.4375,248.1563 Q94.4375,248.5313 94.1719,248.7656 Q93.9063,249 93.2969,249 L91,249 Q90.3906,249 90.1406,248.7656 Q89.875,248.5313 89.875,248.1406 Q89.875,247.7656 90.1563,247.5313 Q90.4219,247.2813 91.0469,247.2969 L93.7188,240.6406 L92.6094,240.6406 Q92,240.6406 91.7344,240.4063 Q91.4688,240.1719 91.4688,239.7813 Q91.4688,239.4063 91.7344,239.1719 Q92,238.9375 92.6094,238.9375 L96.2813,238.9375 L99.6719,247.2969 Q100.2656,247.2969 100.4531,247.4375 Q100.8438,247.7031 100.8438,248.1563 Q100.8438,248.5313 100.5781,248.7656 Q100.3281,249 99.7188,249 L97.4219,249 Q96.8125,249 96.5469,248.7656 Q96.2813,248.5313 96.2813,248.1406 Q96.2813,247.7656 96.5469,247.5313 Q96.8125,247.2969 97.4219,247.2969 L97.8438,247.2969 L97.4375,246.2656 Z M96.7188,244.5625 L95.3594,241.1875 L93.9844,244.5625 L96.7188,244.5625 Z " fill="#000000"/><text fill="#000000" font-family="sans-serif" font-size="12" font-style="italic" lengthAdjust="spacing" textLength="53" x="115.75" y="249.4102">ASTNode</text><line style="stroke:#A80036;stroke-width:1.5;" x1="33" x2="219" y1="260.5" y2="260.5"/><rect fill="none" height="6" style="stroke:#C82930;stroke-width:1.0;" width="6" x="40" y="268.5"/><text fill="#000000" font-family="sans-serif" font-size="11" lengthAdjust="spacing" textLength="119" x="52" y="275.9189">children: List&lt;ASTNode&gt;</text><line style="stroke:#A80036;stroke-width:1.5;" x1="33" x2="219" y1="282.3359" y2="282.3359"/><ellipse cx="43" cy="293.3359" fill="#84BE84" rx="3" ry="3" style="stroke:#038048;stroke-width:1.0;"/><text fill="#000000" font-family="sans-serif" font-size="11" lengthAdjust="spacing" textLength="162" x="52" y="297.7549">evaluate(InfoBundle env) : double</text><path d="M32.5,58.5 L32.5,117.5547 A0,0 0 0 0 32.5,117.5547 L116.98,117.5547 L124.74,228.47 L124.98,117.5547 L207.5,117.5547 A0,0 0 0 0 207.5,117.5547 L207.5,68.5 L197.5,58.5 L32.5,58.5 A0,0 0 0 0 32.5,58.5 " fill="#FBFB77" filter="url(#fp659oswkvmae)" style="stroke:#A80036;stroke-width:1.0;"/><path d="M197.5,58.5 L197.5,68.5 L207.5,68.5 L197.5,58.5 " fill="#FBFB77" style="stroke:#A80036;stroke-width:1.0;"/><text fill="#000000" font-family="sans-serif" font-size="13" lengthAdjust="spacing" textLength="146" x="38.5" y="76.9951">A variable or function that</text><text fill="#000000" font-family="sans-serif" font-size="13" lengthAdjust="spacing" textLength="154" x="38.5" y="93.3467">forms of tree of evaluatable</text><text fill="#000000" font-family="sans-serif" font-size="13" lengthAdjust="spacing" textLength="32" x="38.5" y="109.6982">ASTs</text><!--MD5=[521817ab83e81da341a3f4b5e91bae41]
class Command--><rect codeLine="169" fill="#FEFECE" filter="url(#fp659oswkvmae)" height="48" id="Command" style="stroke:#A80036;stroke-width:1.5;" width="91" x="151.5" y="433.5"/><ellipse cx="166.5" cy="449.5" fill="#ADD1B2" rx="11" ry="11" style="stroke:#A80036;stroke-width:1.0;"/><path d="M169.2656,445.375 Q169.4219,445.1563 169.6094,445.0469 Q169.7969,444.9375 170.0156,444.9375 Q170.3906,444.9375 170.625,445.2031 Q170.8594,445.4531 170.8594,446.0625 L170.8594,447.5156 Q170.8594,448.125 170.625,448.3906 Q170.3906,448.6563 170.0156,448.6563 Q169.6719,448.6563 169.4688,448.4531 Q169.2656,448.2656 169.1563,447.75 Q169.1094,447.3906 168.9219,447.2031 Q168.5938,446.8281 167.9844,446.6094 Q167.375,446.3906 166.75,446.3906 Q165.9844,446.3906 165.3438,446.7188 Q164.7188,447.0469 164.2188,447.7969 Q163.7344,448.5469 163.7344,449.5781 L163.7344,450.6719 Q163.7344,451.9063 164.625,452.7344 Q165.5156,453.5469 167.1094,453.5469 Q168.0469,453.5469 168.7031,453.2969 Q169.0938,453.1406 169.5156,452.7031 Q169.7813,452.4375 169.9219,452.3594 Q170.0781,452.2813 170.2813,452.2813 Q170.6094,452.2813 170.8594,452.5469 Q171.125,452.7969 171.125,453.1406 Q171.125,453.4844 170.7813,453.8906 Q170.2813,454.4688 169.4844,454.7969 Q168.4063,455.25 167.1094,455.25 Q165.5938,455.25 164.3906,454.625 Q163.4063,454.125 162.7188,453.0625 Q162.0313,451.9844 162.0313,450.7031 L162.0313,449.5469 Q162.0313,448.2188 162.6406,447.0781 Q163.2656,445.9219 164.3594,445.3125 Q165.4531,444.6875 166.6875,444.6875 Q167.4219,444.6875 168.0625,444.8594 Q168.7188,445.0156 169.2656,445.375 Z " fill="#000000"/><text fill="#000000" font-family="sans-serif" font-size="12" lengthAdjust="spacing" textLength="59" x="180.5" y="454.4102">Command</text><line style="stroke:#A80036;stroke-width:1.5;" x1="152.5" x2="241.5" y1="465.5" y2="465.5"/><line style="stroke:#A80036;stroke-width:1.5;" x1="152.5" x2="241.5" y1="473.5" y2="473.5"/><!--MD5=[fe9f42c77618f11d36cfbe6bc6ad320a]
class Variables--><rect codeLine="172" fill="#FEFECE" filter="url(#fp659oswkvmae)" height="48" id="Variables" style="stroke:#A80036;stroke-width:1.5;" width="84" x="32" y="433.5"/><ellipse cx="47" cy="449.5" fill="#ADD1B2" rx="11" ry="11" style="stroke:#A80036;stroke-width:1.0;"/><path d="M49.7656,445.375 Q49.9219,445.1563 50.1094,445.0469 Q50.2969,444.9375 50.5156,444.9375 Q50.8906,444.9375 51.125,445.2031 Q51.3594,445.4531 51.3594,446.0625 L51.3594,447.5156 Q51.3594,448.125 51.125,448.3906 Q50.8906,448.6563 50.5156,448.6563 Q50.1719,448.6563 49.9688,448.4531 Q49.7656,448.2656 49.6563,447.75 Q49.6094,447.3906 49.4219,447.2031 Q49.0938,446.8281 48.4844,446.6094 Q47.875,446.3906 47.25,446.3906 Q46.4844,446.3906 45.8438,446.7188 Q45.2188,447.0469 44.7188,447.7969 Q44.2344,448.5469 44.2344,449.5781 L44.2344,450.6719 Q44.2344,451.9063 45.125,452.7344 Q46.0156,453.5469 47.6094,453.5469 Q48.5469,453.5469 49.2031,453.2969 Q49.5938,453.1406 50.0156,452.7031 Q50.2813,452.4375 50.4219,452.3594 Q50.5781,452.2813 50.7813,452.2813 Q51.1094,452.2813 51.3594,452.5469 Q51.625,452.7969 51.625,453.1406 Q51.625,453.4844 51.2813,453.8906 Q50.7813,454.4688 49.9844,454.7969 Q48.9063,455.25 47.6094,455.25 Q46.0938,455.25 44.8906,454.625 Q43.9063,454.125 43.2188,453.0625 Q42.5313,451.9844 42.5313,450.7031 L42.5313,449.5469 Q42.5313,448.2188 43.1406,447.0781 Q43.7656,445.9219 44.8594,445.3125 Q45.9531,444.6875 47.1875,444.6875 Q47.9219,444.6875 48.5625,444.8594 Q49.2188,445.0156 49.7656,445.375 Z " fill="#000000"/><text fill="#000000" font-family="sans-serif" font-size="12" lengthAdjust="spacing" textLength="52" x="61" y="454.4102">Variables</text><line style="stroke:#A80036;stroke-width:1.5;" x1="33" x2="115" y1="465.5" y2="465.5"/><line style="stroke:#A80036;stroke-width:1.5;" x1="33" x2="115" y1="473.5" y2="473.5"/><!--MD5=[e8c9f956a1fbce3212911aba705e0264]
class ModelException--><rect codeLine="183" fill="#FEFECE" filter="url(#fp659oswkvmae)" height="61.8359" id="ModelException" style="stroke:#A80036;stroke-width:1.5;" width="188" x="3331" y="235.5"/><ellipse cx="3377.75" cy="251.5" fill="#ADD1B2" rx="11" ry="11" style="stroke:#A80036;stroke-width:1.0;"/><path d="M3380.5156,247.375 Q3380.6719,247.1563 3380.8594,247.0469 Q3381.0469,246.9375 3381.2656,246.9375 Q3381.6406,246.9375 3381.875,247.2031 Q3382.1094,247.4531 3382.1094,248.0625 L3382.1094,249.5156 Q3382.1094,250.125 3381.875,250.3906 Q3381.6406,250.6563 3381.2656,250.6563 Q3380.9219,250.6563 3380.7188,250.4531 Q3380.5156,250.2656 3380.4063,249.75 Q3380.3594,249.3906 3380.1719,249.2031 Q3379.8438,248.8281 3379.2344,248.6094 Q3378.625,248.3906 3378,248.3906 Q3377.2344,248.3906 3376.5938,248.7188 Q3375.9688,249.0469 3375.4688,249.7969 Q3374.9844,250.5469 3374.9844,251.5781 L3374.9844,252.6719 Q3374.9844,253.9063 3375.875,254.7344 Q3376.7656,255.5469 3378.3594,255.5469 Q3379.2969,255.5469 3379.9531,255.2969 Q3380.3438,255.1406 3380.7656,254.7031 Q3381.0313,254.4375 3381.1719,254.3594 Q3381.3281,254.2813 3381.5313,254.2813 Q3381.8594,254.2813 3382.1094,254.5469 Q3382.375,254.7969 3382.375,255.1406 Q3382.375,255.4844 3382.0313,255.8906 Q3381.5313,256.4688 3380.7344,256.7969 Q3379.6563,257.25 3378.3594,257.25 Q3376.8438,257.25 3375.6406,256.625 Q3374.6563,256.125 3373.9688,255.0625 Q3373.2813,253.9844 3373.2813,252.7031 L3373.2813,251.5469 Q3373.2813,250.2188 3373.8906,249.0781 Q3374.5156,247.9219 3375.6094,247.3125 Q3376.7031,246.6875 3377.9375,246.6875 Q3378.6719,246.6875 3379.3125,246.8594 Q3379.9688,247.0156 3380.5156,247.375 Z " fill="#000000"/><text fill="#000000" font-family="sans-serif" font-size="12" lengthAdjust="spacing" textLength="86" x="3398.25" y="256.4102">ModelException</text><line style="stroke:#A80036;stroke-width:1.5;" x1="3332" x2="3518" y1="267.5" y2="267.5"/><line style="stroke:#A80036;stroke-width:1.5;" x1="3332" x2="3518" y1="275.5" y2="275.5"/><text fill="#000000" font-family="sans-serif" font-size="11" lengthAdjust="spacing" textLength="176" x="3337" y="290.9189">buildException(String format) : String</text><path d="M3270.5,444.5 L3270.5,470.8516 A0,0 0 0 0 3270.5,470.8516 L3579.5,470.8516 A0,0 0 0 0 3579.5,470.8516 L3579.5,454.5 L3569.5,444.5 L3429,444.5 L3425,297.87 L3421,444.5 L3270.5,444.5 A0,0 0 0 0 3270.5,444.5 " fill="#FBFB77" filter="url(#fp659oswkvmae)" style="stroke:#A80036;stroke-width:1.0;"/><path d="M3569.5,444.5 L3569.5,454.5 L3579.5,454.5 L3569.5,444.5 " fill="#FBFB77" style="stroke:#A80036;stroke-width:1.0;"/><text fill="#000000" font-family="sans-serif" font-size="13" lengthAdjust="spacing" textLength="288" x="3276.5" y="462.9951">ModelException extends java's RuntimeException</text><!--MD5=[0a367ff07e6d0026548cd0a5b9268854]
class InvalidSyntaxException--><rect codeLine="187" fill="#FEFECE" filter="url(#fp659oswkvmae)" height="48" id="InvalidSyntaxException" style="stroke:#A80036;stroke-width:1.5;" width="155" x="3558.5" y="64"/><ellipse cx="3573.5" cy="80" fill="#ADD1B2" rx="11" ry="11" style="stroke:#A80036;stroke-width:1.0;"/><path d="M3576.2656,75.875 Q3576.4219,75.6563 3576.6094,75.5469 Q3576.7969,75.4375 3577.0156,75.4375 Q3577.3906,75.4375 3577.625,75.7031 Q3577.8594,75.9531 3577.8594,76.5625 L3577.8594,78.0156 Q3577.8594,78.625 3577.625,78.8906 Q3577.3906,79.1563 3577.0156,79.1563 Q3576.6719,79.1563 3576.4688,78.9531 Q3576.2656,78.7656 3576.1563,78.25 Q3576.1094,77.8906 3575.9219,77.7031 Q3575.5938,77.3281 3574.9844,77.1094 Q3574.375,76.8906 3573.75,76.8906 Q3572.9844,76.8906 3572.3438,77.2188 Q3571.7188,77.5469 3571.2188,78.2969 Q3570.7344,79.0469 3570.7344,80.0781 L3570.7344,81.1719 Q3570.7344,82.4063 3571.625,83.2344 Q3572.5156,84.0469 3574.1094,84.0469 Q3575.0469,84.0469 3575.7031,83.7969 Q3576.0938,83.6406 3576.5156,83.2031 Q3576.7813,82.9375 3576.9219,82.8594 Q3577.0781,82.7813 3577.2813,82.7813 Q3577.6094,82.7813 3577.8594,83.0469 Q3578.125,83.2969 3578.125,83.6406 Q3578.125,83.9844 3577.7813,84.3906 Q3577.2813,84.9688 3576.4844,85.2969 Q3575.4063,85.75 3574.1094,85.75 Q3572.5938,85.75 3571.3906,85.125 Q3570.4063,84.625 3569.7188,83.5625 Q3569.0313,82.4844 3569.0313,81.2031 L3569.0313,80.0469 Q3569.0313,78.7188 3569.6406,77.5781 Q3570.2656,76.4219 3571.3594,75.8125 Q3572.4531,75.1875 3573.6875,75.1875 Q3574.4219,75.1875 3575.0625,75.3594 Q3575.7188,75.5156 3576.2656,75.875 Z " fill="#000000"/><text fill="#000000" font-family="sans-serif" font-size="12" lengthAdjust="spacing" textLength="123" x="3587.5" y="84.9102">InvalidSyntaxException</text><line style="stroke:#A80036;stroke-width:1.5;" x1="3559.5" x2="3712.5" y1="96" y2="96"/><line style="stroke:#A80036;stroke-width:1.5;" x1="3559.5" x2="3712.5" y1="104" y2="104"/><!--MD5=[149b42d421d6dabc6a72172a80c553aa]
class UnknownCommandException--><rect codeLine="190" fill="#FEFECE" filter="url(#fp659oswkvmae)" height="48" id="UnknownCommandException" style="stroke:#A80036;stroke-width:1.5;" width="196" x="3327" y="64"/><ellipse cx="3342" cy="80" fill="#ADD1B2" rx="11" ry="11" style="stroke:#A80036;stroke-width:1.0;"/><path d="M3344.7656,75.875 Q3344.9219,75.6563 3345.1094,75.5469 Q3345.2969,75.4375 3345.5156,75.4375 Q3345.8906,75.4375 3346.125,75.7031 Q3346.3594,75.9531 3346.3594,76.5625 L3346.3594,78.0156 Q3346.3594,78.625 3346.125,78.8906 Q3345.8906,79.1563 3345.5156,79.1563 Q3345.1719,79.1563 3344.9688,78.9531 Q3344.7656,78.7656 3344.6563,78.25 Q3344.6094,77.8906 3344.4219,77.7031 Q3344.0938,77.3281 3343.4844,77.1094 Q3342.875,76.8906 3342.25,76.8906 Q3341.4844,76.8906 3340.8438,77.2188 Q3340.2188,77.5469 3339.7188,78.2969 Q3339.2344,79.0469 3339.2344,80.0781 L3339.2344,81.1719 Q3339.2344,82.4063 3340.125,83.2344 Q3341.0156,84.0469 3342.6094,84.0469 Q3343.5469,84.0469 3344.2031,83.7969 Q3344.5938,83.6406 3345.0156,83.2031 Q3345.2813,82.9375 3345.4219,82.8594 Q3345.5781,82.7813 3345.7813,82.7813 Q3346.1094,82.7813 3346.3594,83.0469 Q3346.625,83.2969 3346.625,83.6406 Q3346.625,83.9844 3346.2813,84.3906 Q3345.7813,84.9688 3344.9844,85.2969 Q3343.9063,85.75 3342.6094,85.75 Q3341.0938,85.75 3339.8906,85.125 Q3338.9063,84.625 3338.2188,83.5625 Q3337.5313,82.4844 3337.5313,81.2031 L3337.5313,80.0469 Q3337.5313,78.7188 3338.1406,77.5781 Q3338.7656,76.4219 3339.8594,75.8125 Q3340.9531,75.1875 3342.1875,75.1875 Q3342.9219,75.1875 3343.5625,75.3594 Q3344.2188,75.5156 3344.7656,75.875 Z " fill="#000000"/><text fill="#000000" font-family="sans-serif" font-size="12" lengthAdjust="spacing" textLength="164" x="3356" y="84.9102">UnknownCommandException</text><line style="stroke:#A80036;stroke-width:1.5;" x1="3328" x2="3522" y1="96" y2="96"/><line style="stroke:#A80036;stroke-width:1.5;" x1="3328" x2="3522" y1="104" y2="104"/><!--MD5=[2b5ca906bcf2589a8790f6393bd6e6ab]
class IncorrectParameterCountException--><rect codeLine="193" fill="#FEFECE" filter="url(#fp659oswkvmae)" height="48" id="IncorrectParameterCountException" style="stroke:#A80036;stroke-width:1.5;" width="223" x="3068.5" y="64"/><ellipse cx="3083.5" cy="80" fill="#ADD1B2" rx="11" ry="11" style="stroke:#A80036;stroke-width:1.0;"/><path d="M3086.2656,75.875 Q3086.4219,75.6563 3086.6094,75.5469 Q3086.7969,75.4375 3087.0156,75.4375 Q3087.3906,75.4375 3087.625,75.7031 Q3087.8594,75.9531 3087.8594,76.5625 L3087.8594,78.0156 Q3087.8594,78.625 3087.625,78.8906 Q3087.3906,79.1563 3087.0156,79.1563 Q3086.6719,79.1563 3086.4688,78.9531 Q3086.2656,78.7656 3086.1563,78.25 Q3086.1094,77.8906 3085.9219,77.7031 Q3085.5938,77.3281 3084.9844,77.1094 Q3084.375,76.8906 3083.75,76.8906 Q3082.9844,76.8906 3082.3438,77.2188 Q3081.7188,77.5469 3081.2188,78.2969 Q3080.7344,79.0469 3080.7344,80.0781 L3080.7344,81.1719 Q3080.7344,82.4063 3081.625,83.2344 Q3082.5156,84.0469 3084.1094,84.0469 Q3085.0469,84.0469 3085.7031,83.7969 Q3086.0938,83.6406 3086.5156,83.2031 Q3086.7813,82.9375 3086.9219,82.8594 Q3087.0781,82.7813 3087.2813,82.7813 Q3087.6094,82.7813 3087.8594,83.0469 Q3088.125,83.2969 3088.125,83.6406 Q3088.125,83.9844 3087.7813,84.3906 Q3087.2813,84.9688 3086.4844,85.2969 Q3085.4063,85.75 3084.1094,85.75 Q3082.5938,85.75 3081.3906,85.125 Q3080.4063,84.625 3079.7188,83.5625 Q3079.0313,82.4844 3079.0313,81.2031 L3079.0313,80.0469 Q3079.0313,78.7188 3079.6406,77.5781 Q3080.2656,76.4219 3081.3594,75.8125 Q3082.4531,75.1875 3083.6875,75.1875 Q3084.4219,75.1875 3085.0625,75.3594 Q3085.7188,75.5156 3086.2656,75.875 Z " fill="#000000"/><text fill="#000000" font-family="sans-serif" font-size="12" lengthAdjust="spacing" textLength="191" x="3097.5" y="84.9102">IncorrectParameterCountException</text><line style="stroke:#A80036;stroke-width:1.5;" x1="3069.5" x2="3290.5" y1="96" y2="96"/><line style="stroke:#A80036;stroke-width:1.5;" x1="3069.5" x2="3290.5" y1="104" y2="104"/><!--MD5=[6533facdced2b1366a2104b22b48fa99]
link SettingsScene to View--><path codeLine="86" d="M2201.89,297.55 C2221.42,310.8 2245.04,326.22 2267,339 C2320.48,370.11 2383.19,401.58 2429.92,424.12 " fill="none" id="SettingsScene-to-View" style="stroke:#A80036;stroke-width:1.0;"/><polygon fill="#A80036" points="2434.68,426.41,2428.3127,418.8962,2430.1769,424.2371,2424.836,426.1012,2434.68,426.41" style="stroke:#A80036;stroke-width:1.0;"/><text fill="#000000" font-family="sans-serif" font-size="13" lengthAdjust="spacing" textLength="7" x="2412.8444" y="415.4106">1</text><!--MD5=[39005f893e54732bbecdb217897e58e7]
link ModelController to View--><path codeLine="87" d="M2404.07,311.81 C2426.11,345.4 2455.97,390.91 2476.27,421.86 " fill="none" id="ModelController-to-View" style="stroke:#A80036;stroke-width:1.0;"/><polygon fill="#A80036" points="2479.2,426.31,2477.6128,416.5899,2476.4595,422.1279,2470.9215,420.9746,2479.2,426.31" style="stroke:#A80036;stroke-width:1.0;"/><text fill="#000000" font-family="sans-serif" font-size="13" lengthAdjust="spacing" textLength="7" x="2467.3944" y="415.7754">1</text><!--MD5=[c2151deb1ef9b11b55a89783c55fabb9]
link ViewController to View--><path codeLine="88" d="M2593.93,311.81 C2571.89,345.4 2542.03,390.91 2521.73,421.86 " fill="none" id="ViewController-to-View" style="stroke:#A80036;stroke-width:1.0;"/><polygon fill="#A80036" points="2518.8,426.31,2527.0785,420.9746,2521.5405,422.1279,2520.3872,416.5899,2518.8,426.31" style="stroke:#A80036;stroke-width:1.0;"/><text fill="#000000" font-family="sans-serif" font-size="13" lengthAdjust="spacing" textLength="7" x="2515.1619" y="415.7754">1</text><!--MD5=[5efc0e67d88f5b24ef870c79163e7437]
link TurtleSandbox to View--><path codeLine="89" d="M2830.07,290.68 C2808.6,305.34 2779.71,324.24 2753,339 C2695.12,370.98 2626.98,402.17 2575.86,424.37 " fill="none" id="TurtleSandbox-to-View" style="stroke:#A80036;stroke-width:1.0;"/><polygon fill="#A80036" points="2570.97,426.49,2580.8184,426.5843,2575.5583,424.5032,2577.6395,419.2431,2570.97,426.49" style="stroke:#A80036;stroke-width:1.0;"/><text fill="#000000" font-family="sans-serif" font-size="13" lengthAdjust="spacing" textLength="7" x="2578.9478" y="415.5081">1</text><!--MD5=[9842b5e9805085da132a0f81df1a786b]
reverse link TrackableEnvironment to Environment--><path d="M914.51,330.13 C884.32,352.24 850.53,376.99 820.91,398.69 " fill="none" id="TrackableEnvironment-backto-Environment" style="stroke:#A80036;stroke-width:1.0;stroke-dasharray:7.0,7.0;"/><polygon fill="none" points="910.59,324.32,930.86,318.15,918.86,335.61,910.59,324.32" style="stroke:#A80036;stroke-width:1.0;"/><!--MD5=[c369b4d29689b6cf2e1df250a939e50a]
reverse link InfoBundle to ExecutionBundle--><path d="M653.76,147.93 C684.38,180.29 720.61,218.58 743.2,242.46 " fill="none" id="InfoBundle-backto-ExecutionBundle" style="stroke:#A80036;stroke-width:1.0;stroke-dasharray:7.0,7.0;"/><polygon fill="none" points="648.37,152.42,639.71,133.08,658.54,142.8,648.37,152.42" style="stroke:#A80036;stroke-width:1.0;"/><!--MD5=[7de93935da7ab67ed2b2a4b11ad08da9]
reverse link ASTNode to Command--><path d="M147.14,323.77 C160.88,360.35 178.07,406.12 188.26,433.24 " fill="none" id="ASTNode-backto-Command" style="stroke:#A80036;stroke-width:1.0;"/><polygon fill="none" points="140.51,326.02,140.03,304.84,153.61,321.1,140.51,326.02" style="stroke:#A80036;stroke-width:1.0;"/><!--MD5=[c3b1d4e9ddcf11a4746036261b245ad3]
reverse link ASTNode to Variables--><path d="M110.38,324.28 C100.34,360.77 87.83,406.24 80.4,433.24 " fill="none" id="ASTNode-backto-Variables" style="stroke:#A80036;stroke-width:1.0;"/><polygon fill="none" points="103.67,322.27,115.73,304.84,117.17,325.98,103.67,322.27" style="stroke:#A80036;stroke-width:1.0;"/><!--MD5=[35fed1afd684c01e3e49252e96f962a4]
link ExecutionBundle to Environment--><path codeLine="176" d="M762.18,290.68 C759.08,316.14 753.97,358.11 749.67,393.46 " fill="none" id="ExecutionBundle-to-Environment" style="stroke:#A80036;stroke-width:1.0;"/><polygon fill="#A80036" points="749.04,398.62,754.0925,390.1659,749.6408,393.6562,746.1504,389.2046,749.04,398.62" style="stroke:#A80036;stroke-width:1.0;"/><text fill="#000000" font-family="sans-serif" font-size="13" lengthAdjust="spacing" textLength="7" x="742.4714" y="387.9746">1</text><!--MD5=[1e6db586d90f3a7fc72d664fa578f751]
link Turtle to Environment--><path codeLine="177" d="M407.17,328.86 C412.74,332.48 418.38,335.9 424,339 C486.64,373.6 561.51,401.84 622.86,421.95 " fill="none" id="Turtle-to-Environment" style="stroke:#A80036;stroke-width:1.0;"/><polygon fill="#A80036" points="627.63,423.51,620.3209,416.9087,622.8781,421.9546,617.8322,424.5118,627.63,423.51" style="stroke:#A80036;stroke-width:1.0;"/><text fill="#000000" font-family="sans-serif" font-size="13" lengthAdjust="spacing" textLength="7" x="613.079" y="418.3206">1</text><!--MD5=[aee9d49730ee3449365b74cca72acbd3]
link InvalidSyntaxException to ModelException--><path codeLine="197" d="M3608.42,112.07 C3571.84,142.67 3507.03,196.88 3465.06,231.99 " fill="none" id="InvalidSyntaxException-to-ModelException" style="stroke:#A80036;stroke-width:1.0;"/><polygon fill="#A80036" points="3461.07,235.33,3470.5348,232.6066,3464.8994,232.115,3465.3909,226.4796,3461.07,235.33" style="stroke:#A80036;stroke-width:1.0;"/><text fill="#000000" font-family="sans-serif" font-size="13" lengthAdjust="spacing" textLength="7" x="3460.7876" y="224.7995">1</text><!--MD5=[3abae7cda2d9ef9967f40b733de005c7]
link UnknownCommandException to ModelException--><path codeLine="198" d="M3425,112.07 C3425,142.18 3425,195.14 3425,230.28 " fill="none" id="UnknownCommandException-to-ModelException" style="stroke:#A80036;stroke-width:1.0;"/><polygon fill="#A80036" points="3425,235.33,3429,226.33,3425,230.33,3421,226.33,3425,235.33" style="stroke:#A80036;stroke-width:1.0;"/><text fill="#000000" font-family="sans-serif" font-size="13" lengthAdjust="spacing" textLength="7" x="3417.2781" y="224.7995">1</text><!--MD5=[5ab5ed4a9cb3e0ec76949318de0ce9cb]
link IncorrectParameterCountException to ModelException--><path codeLine="199" d="M3212.03,112.07 C3254.59,142.73 3330.06,197.1 3378.78,232.2 " fill="none" id="IncorrectParameterCountException-to-ModelException" style="stroke:#A80036;stroke-width:1.0;"/><polygon fill="#A80036" points="3383.12,235.33,3378.1439,226.8307,3379.0591,232.413,3373.4767,233.3281,3383.12,235.33" style="stroke:#A80036;stroke-width:1.0;"/><text fill="#000000" font-family="sans-serif" font-size="13" lengthAdjust="spacing" textLength="7" x="3366.7604" y="224.7995">1</text><!--MD5=[86e78d055f300d886fcc525ca0008cf8]
link UpdateTurtle to UpdateCommands--><!--MD5=[2545c549832a4e15ab1225e8c1e9f671]
link UpdateCommands to UpdateVariables--><!--MD5=[ce7bbcddcf71d00ff03dcbfae6c061ff]
link UpdateTurtle to VariablesRecord--><!--MD5=[dd0d40bee2312680edaf3e1e03c3a28e]
link VariablesRecord to CommandsRecord--><!--MD5=[6a1465517d4063ae4f54273145e1e278]
link CommandsRecord to TurtleRecord--><!--MD5=[8d7910c1d28ae07e56b35a799a55eb23]
link VariablesRecord to DisplayVariable--><!--MD5=[8d1ffcaa057b4a4641b8b9d1f09ac5d8]
link DisplayVariable to DisplayCommand--><!--MD5=[8886931df1033a5234fd390ef3463de3]
@startuml
package Events {

	interface UpdateTurtle {
		+ execute(TurtleRecord e)
	}

	interface UpdateCommands {
		+ execute(CommandsRecord e)
	}

	interface UpdateVariables {
		+ execute(VariablesRecord e)
	}

	class VariablesRecord {
		+ variables: List<DisplayVariable>
	}

	class CommandsRecord {
		+ commands: List<DisplayCommand>
	}

	class TurtleRecord {
		+ id: int
		+ xCoord: double
		+ yCoord : double
		+ rotation: double
	}

	class DisplayVariable {
		+ name: String
		+ value: double
	}

	class DisplayCommand {
		+ name: String
		+ signature: String
	}
}

package View {
	class View {
		+ View(Controller controller, TrackableEnvironment model)
	}


	note top of TurtleSandbox
		where the turtle's displayed :)
		Probably extends some kind of Pane
	end note
	class TurtleSandbox {

	}

	note top of ViewController
		Set aspects of the view
		such as language and stuff. Nested
		class implements this in view and is
		passed to classes that manipulate
		how the view looks.
	end note
	interface ViewController {
		+ setBackground(String color)
		+ setLanguage(String englishSucksAmirite)
		+ otherStyleMethods()
	}

	note top of ModelController
		This contains methods needed
		to talk to the model from the view.
	end note
	class ModelController {
		+ sendCommand(String command)
		+ sendCommand(File command)
		+ setLanguage(String lang)
	}

	note top of SettingsScene
		Extens the Scene class.
	end note
	class SettingsScene {
		- controller : ViewController
	}
}

SettingsScene - -> "1" View
ModelController - -> "1" View
ViewController - -> "1" View
TurtleSandbox - -> "1" View

package Model {
	note top of TrackableEnvironment
		The trackable interface will
		define a class internal to the
		model which represents a turtle.
		This interface defines how a view
		can observe the changes.
	end note
	interface TrackableEnvironment {
		+ setOnTurtleUpdate(UpdateTurtle callback);
		+ setOnVariableUpdate(UpdateVariable callback);
		+ setOnCommandUpdate(UpdateCommands callback);
		+ runCommand(String command) : double
	}

	note bottom of TrackableEnvironment
		One possible change is to create a single
		interface that has all the callbacks.
	end note
	class Environment implements TrackableEnvironment {
		- Parser : Parser
		# notifyTurtleUpdate(TurtleInfo info)
		# notifyCommandUpdate(CommandInfo info)
		# notifyVariableUpdate()
		+ runCommand(String command) : double
	}

	note left of ExecutionBundle
		This is a private nested class 
		within the Environment. It is passed
		to ASTs and the Turtle to give them
		access to needed commands.
	end note
	class ExecutionBundle implements InfoBundle {
	}

	interface InfoBundle {
		# getTurtle() : Turtle
		# getLookupTable() : Map<String, AST>
		# notifyTurtleUpdate(TurtleInfo info)
	}

	note left of EnvironmentFactory
		Just a static class that
		creates an Environment.
	end note
	class EnvironmentFactory {
		{static} createEnvironment() : TrackableEnvironment
	}

	note bottom of Turtle
		When move or rotate is called
		it notifies the environment
	end note
	class Turtle {
		- x
		- y
		- rotation
		- Environment
		# setXY(double x, double y)
		# rotate(double rotation)
		# move (double x);
	}

	interface Parser {
		+ parseCommand(String Command) : AST
	}

	note top of ASTNode
		A variable or function that
		forms of tree of evaluatable
		ASTs
	end note
	abstract class ASTNode {
		- children: List<ASTNode>
		+ evaluate(InfoBundle env) : double
	}

	class Command extends ASTNode {
	}

	class Variables extends ASTNode {
	}
}

ExecutionBundle - -> "1" Environment
Turtle - -> "1" Environment

package Exceptions {
	note bottom of ModelException
		ModelException extends java's RuntimeException
	end note
	class ModelException {
		buildException(String format) : String
	}

	class InvalidSyntaxException {
	}

	class UnknownCommandException {
	}

	class IncorrectParameterCountException {
	}
}

InvalidSyntaxException - -> "1" ModelException
UnknownCommandException - -> "1" ModelException
IncorrectParameterCountException - -> "1" ModelException

'Model -[hidden]- -> Events
@enduml

@startuml
package Events {

	interface UpdateTurtle {
		+ execute(TurtleRecord e)
	}

	interface UpdateCommands {
		+ execute(CommandsRecord e)
	}

	interface UpdateVariables {
		+ execute(VariablesRecord e)
	}

	class VariablesRecord {
		+ variables: List<DisplayVariable>
	}

	class CommandsRecord {
		+ commands: List<DisplayCommand>
	}

	class TurtleRecord {
		+ id: int
		+ xCoord: double
		+ yCoord : double
		+ rotation: double
	}

	class DisplayVariable {
		+ name: String
		+ value: double
	}

	class DisplayCommand {
		+ name: String
		+ signature: String
	}
}

package View {
	class View {
		+ View(Controller controller, TrackableEnvironment model)
	}


	note top of TurtleSandbox
		where the turtle's displayed :)
		Probably extends some kind of Pane
	end note
	class TurtleSandbox {

	}

	note top of ViewController
		Set aspects of the view
		such as language and stuff. Nested
		class implements this in view and is
		passed to classes that manipulate
		how the view looks.
	end note
	interface ViewController {
		+ setBackground(String color)
		+ setLanguage(String englishSucksAmirite)
		+ otherStyleMethods()
	}

	note top of ModelController
		This contains methods needed
		to talk to the model from the view.
	end note
	class ModelController {
		+ sendCommand(String command)
		+ sendCommand(File command)
		+ setLanguage(String lang)
	}

	note top of SettingsScene
		Extens the Scene class.
	end note
	class SettingsScene {
		- controller : ViewController
	}
}

SettingsScene - -> "1" View
ModelController - -> "1" View
ViewController - -> "1" View
TurtleSandbox - -> "1" View

package Model {
	note top of TrackableEnvironment
		The trackable interface will
		define a class internal to the
		model which represents a turtle.
		This interface defines how a view
		can observe the changes.
	end note
	interface TrackableEnvironment {
		+ setOnTurtleUpdate(UpdateTurtle callback);
		+ setOnVariableUpdate(UpdateVariable callback);
		+ setOnCommandUpdate(UpdateCommands callback);
		+ runCommand(String command) : double
	}

	note bottom of TrackableEnvironment
		One possible change is to create a single
		interface that has all the callbacks.
	end note
	class Environment implements TrackableEnvironment {
		- Parser : Parser
		# notifyTurtleUpdate(TurtleInfo info)
		# notifyCommandUpdate(CommandInfo info)
		# notifyVariableUpdate()
		+ runCommand(String command) : double
	}

	note left of ExecutionBundle
		This is a private nested class 
		within the Environment. It is passed
		to ASTs and the Turtle to give them
		access to needed commands.
	end note
	class ExecutionBundle implements InfoBundle {
	}

	interface InfoBundle {
		# getTurtle() : Turtle
		# getLookupTable() : Map<String, AST>
		# notifyTurtleUpdate(TurtleInfo info)
	}

	note left of EnvironmentFactory
		Just a static class that
		creates an Environment.
	end note
	class EnvironmentFactory {
		{static} createEnvironment() : TrackableEnvironment
	}

	note bottom of Turtle
		When move or rotate is called
		it notifies the environment
	end note
	class Turtle {
		- x
		- y
		- rotation
		- Environment
		# setXY(double x, double y)
		# rotate(double rotation)
		# move (double x);
	}

	interface Parser {
		+ parseCommand(String Command) : AST
	}

	note top of ASTNode
		A variable or function that
		forms of tree of evaluatable
		ASTs
	end note
	abstract class ASTNode {
		- children: List<ASTNode>
		+ evaluate(InfoBundle env) : double
	}

	class Command extends ASTNode {
	}

	class Variables extends ASTNode {
	}
}

ExecutionBundle - -> "1" Environment
Turtle - -> "1" Environment

package Exceptions {
	note bottom of ModelException
		ModelException extends java's RuntimeException
	end note
	class ModelException {
		buildException(String format) : String
	}

	class InvalidSyntaxException {
	}

	class UnknownCommandException {
	}

	class IncorrectParameterCountException {
	}
}

InvalidSyntaxException - -> "1" ModelException
UnknownCommandException - -> "1" ModelException
IncorrectParameterCountException - -> "1" ModelException

@enduml

PlantUML version 1.2021.01(Tue Feb 02 15:55:08 CST 2021)
(GPL source distribution)
Java Runtime: OpenJDK Runtime Environment
JVM: OpenJDK 64-Bit Server VM
Default Encoding: Cp1252
Language: en
Country: US
--></g></svg>