<?xml version="1.0" encoding="UTF-8" standalone="no"?>
<!-- Created with Inkscape (http://www.inkscape.org/) -->

<svg
   xmlns:dc="http://purl.org/dc/elements/1.1/"
   xmlns:cc="http://creativecommons.org/ns#"
   xmlns:rdf="http://www.w3.org/1999/02/22-rdf-syntax-ns#"
   xmlns:svg="http://www.w3.org/2000/svg"
   xmlns="http://www.w3.org/2000/svg"
   xmlns:sodipodi="http://sodipodi.sourceforge.net/DTD/sodipodi-0.dtd"
   xmlns:inkscape="http://www.inkscape.org/namespaces/inkscape"
   version="1.1"
   id="svg3767"
   width="208.87912"
   height="167.73627"
   viewBox="0 0 208.87912 167.73627"
   sodipodi:docname="logo.svg"
   inkscape:version="0.92.5 (2060ec1f9f, 2020-04-08)">
  <metadata
     id="metadata3773">
    <rdf:RDF>
      <cc:Work
         rdf:about="">
        <dc:format>image/svg+xml</dc:format>
        <dc:type
           rdf:resource="http://purl.org/dc/dcmitype/StillImage" />
        <dc:title></dc:title>
      </cc:Work>
    </rdf:RDF>
  </metadata>
  <defs
     id="defs3771" />
  <sodipodi:namedview
     pagecolor="#ffffff"
     bordercolor="#666666"
     borderopacity="1"
     objecttolerance="10"
     gridtolerance="10"
     guidetolerance="10"
     inkscape:pageopacity="0"
     inkscape:pageshadow="2"
     inkscape:window-width="1920"
     inkscape:window-height="1080"
     id="namedview3769"
     showgrid="false"
     inkscape:zoom="6.4184226"
     inkscape:cx="85.901795"
     inkscape:cy="93.121186"
     inkscape:window-x="1920"
     inkscape:window-y="0"
     inkscape:window-maximized="0"
     inkscape:current-layer="svg3767" />
  <g
     id="g3777"
     transform="translate(-0.66101383,-0.44067327)">
    <path
       style="fill:#fefefe;stroke-width:1.05494511"
       d="M 0,83.868135 V 0 H 104.43956 208.87912 V 83.868135 167.73627 H 104.43956 0 Z"
       id="path3793"
       inkscape:connector-curvature="0" />
    <path
       style="fill:#cfd0cf;stroke-width:1.05494511"
       d="m 130.27988,152.9576 c -0.3618,-0.58541 -0.35323,-2.02411 0.0191,-3.19711 0.91256,-2.87522 -3.25042,-9.72064 -9.80755,-16.12708 -4.13871,-4.04362 -6.16122,-5.21925 -9.82423,-5.71056 -2.53694,-0.34027 -5.17447,-1.18053 -5.86118,-1.86725 -0.68672,-0.68672 -5.678666,-1.55101 -11.093218,-1.92066 l -9.84466,-0.67209 -5.274726,5.64585 c -2.901099,3.10521 -7.123403,7.88537 -9.382898,10.62258 -6.506489,7.88211 -11.18853,8.56796 -11.18853,1.63896 0,-9.04216 10.921792,-22.17943 19.84348,-23.86871 2.72652,-0.51626 3.324475,-1.03746 2.728246,-2.37805 -0.419972,-0.94428 -1.924923,-5.03996 -3.344335,-9.1015 -3.434526,-9.827633 -3.030606,-21.348813 1.061538,-30.278578 l 2.756355,-6.014844 -5.629126,-1.636432 C 66.343175,65.44815 63.46069,60.762419 61.131329,44.835167 c -0.947025,-6.475389 -0.808766,-8.228898 1.122922,-14.241759 2.523457,-7.854891 5.423527,-12.281222 7.290497,-11.127371 0.920293,0.568772 0.771902,1.139444 -0.547071,2.103901 -1.564481,1.143977 -1.078251,1.420488 3.58582,2.039198 2.967647,0.393673 5.760138,1.295413 6.205537,2.003866 0.4454,0.708454 0.835585,7.222164 0.867079,14.474912 0.04261,9.811916 0.542069,14.601095 1.951565,18.712867 2.215283,6.462414 3.194856,7.309151 6.444082,5.570217 1.885704,-1.009198 2.523054,-2.476488 2.974126,-6.846956 1.349292,-13.073382 9.701214,-21.232374 22.965664,-22.435151 5.62671,-0.510213 6.16902,-0.358916 7.8367,2.186286 1.81991,2.777519 1.86198,11.954034 0.0788,17.181932 -0.61785,1.811387 -0.25988,2.363637 1.88031,2.900791 1.4539,0.364905 3.98554,1.7778 5.62586,3.139767 1.70632,1.416766 4.56224,2.551707 6.67471,2.652533 2.03077,0.09693 4.4044,0.244326 5.27473,0.327557 6.27206,0.599805 8.96371,-3.733669 11.68208,-18.807792 1.11768,-6.198044 2.03217,-11.426107 2.03217,-11.617919 0,-0.191811 -0.83077,-0.355747 -1.84615,-0.3643 -1.36139,-0.01147 -1.15363,-0.374798 0.79121,-1.383662 1.45055,-0.752461 2.87472,-1.074554 3.16483,-0.715763 0.29011,0.358791 2.01456,1.253294 3.83211,1.987785 7.19027,2.905666 12.62198,11.946927 11.35934,18.908041 -1.07107,5.905005 -4.012,10.997884 -8.90189,15.4156 -5.7131,5.16145 -10.3868,7.048896 -19.47637,7.865443 -7.11221,0.638913 -7.37278,0.760672 -7.06364,3.300747 0.6615,5.435376 0.44375,7.107117 -2.24847,17.261634 -3.12457,11.785279 -6.29074,17.859169 -11.85725,22.746629 -2.11388,1.85601 -3.67488,3.48613 -3.46889,3.6225 6.05742,4.01004 12.25936,9.5942 14.63831,13.18018 5.44094,8.20154 5.17734,19.1451 -0.46114,19.1451 -1.43067,0 -2.89724,-0.47897 -3.25904,-1.06438 z"
       id="path3791"
       inkscape:connector-curvature="0" />
    <path
       style="fill:#a0a0a0;stroke-width:1.05494511"
       d="m 130.50997,153.36712 c -1.14075,-1.14075 -0.89842,-2.72515 0.30322,-1.9825 1.64385,1.01597 1.24993,-1.28077 -1.02853,-5.99663 -1.14592,-2.37177 -1.78189,-4.84115 -1.41329,-5.48751 0.36861,-0.64636 0.27798,-0.81953 -0.20141,-0.38481 -0.47938,0.43471 -3.83748,-2.0576 -7.46244,-5.53847 -5.89169,-5.6575 -7.05476,-6.32884 -10.96418,-6.32884 -2.49178,0 -4.10702,-0.43095 -3.75431,-1.00164 0.70924,-1.14757 -2.95884,-1.8231 -14.208811,-2.61677 -5.96161,-0.42059 -8.405512,-0.18175 -9.913658,0.96884 -1.100864,0.83987 -2.41812,1.26959 -2.927237,0.95494 -0.509117,-0.31465 -0.795223,0.035 -0.635792,0.77706 0.159431,0.74202 -0.263972,1.37072 -0.940895,1.39709 -0.676923,0.0264 -1.626373,0.48011 -2.10989,1.0083 -0.510766,0.55795 -0.326588,0.64236 0.43956,0.20147 2.0107,-1.15711 1.571065,0.92013 -0.613083,2.89675 -1.06247,0.96153 -2.274374,1.40562 -2.693119,0.98687 -0.418745,-0.41874 -0.43731,0.0831 -0.04126,1.1152 0.967436,2.52109 -8.470376,11.48006 -11.619239,11.02971 -5.232949,-0.74841 -2.267213,-12.63129 4.955062,-19.85357 4.520965,-4.52096 11.016123,-8.4137 14.038523,-8.4137 1.229839,0 1.523726,-0.53927 1.006111,-1.84616 -5.186167,-13.09415 -5.296582,-13.58449 -5.285491,-23.472527 0.01023,-9.146385 0.303093,-10.599318 3.351761,-16.630174 1.837287,-3.634508 2.988166,-6.390427 2.557509,-6.124267 -0.430657,0.266161 -3.248408,-0.23878 -6.261669,-1.122092 C 68.291817,65.91162 65.052409,61.982671 62.729425,52.915182 59.92311,41.961059 60.333586,34.101624 64.13643,25.975135 c 1.798061,-3.842368 3.768868,-6.986123 4.379573,-6.986123 1.428103,0 1.423092,1.37519 -0.01023,2.808516 -0.790843,0.790842 0.209978,1.333373 3.401011,1.84364 7.535693,1.205005 8.4632,2.751015 7.651566,12.753964 -0.819446,10.099219 0.881516,21.877992 3.86873,26.790071 l 2.062801,3.392004 3.004319,-2.139264 c 2.277037,-1.621392 2.884334,-2.766933 2.50867,-4.732089 -0.770339,-4.029769 2.81899,-13.335095 6.465871,-16.762756 7.839189,-7.36796 19.672359,-10.26109 23.808839,-5.821098 2.60766,2.798979 2.94488,11.441075 0.62034,15.897274 -1.49537,2.866662 -1.45268,2.942048 2.9076,5.133903 2.43388,1.223487 5.18471,2.890345 6.11295,3.704131 2.30617,2.021821 11.85141,2.94462 14.69836,1.420981 3.16027,-1.691321 5.75289,-8.274532 7.84239,-19.913408 1.33092,-7.413426 1.47055,-10.10054 0.55428,-10.666827 -0.79342,-0.490355 -0.44536,-0.960817 0.98818,-1.335696 3.30773,-0.864988 10.39888,3.375243 14.03195,8.390548 2.53388,3.497912 3.17248,5.427543 3.09378,9.348343 -0.1291,6.431355 -3.51987,13.285269 -8.81466,17.81741 -6.16249,5.274865 -10.58151,7.028249 -19.39261,7.69463 -7.2942,0.55166 -7.83223,0.758786 -7.83223,3.015184 0,1.33256 0.50709,2.736233 1.12686,3.119276 0.61978,0.383042 0.80664,1.47919 0.41526,2.435886 -0.39138,0.956695 -1.40899,5.021709 -2.26136,9.033366 -2.57597,12.123889 -5.42859,18.370569 -11.05454,24.207389 -4.75431,4.93253 -5.03275,5.49372 -3.30254,6.65636 9.12993,6.13504 14.23895,12.30931 16.19428,19.57086 1.52948,5.68003 0.015,10.7561 -3.32829,11.15507 -1.43873,0.17169 -2.95416,-0.0261 -3.36761,-0.43956 z m -67.078703,-10.6858 c 1.312215,-1.6732 1.274902,-1.71052 -0.3983,-0.3983 -1.015385,0.79632 -1.846154,1.62709 -1.846154,1.84615 0,0.86826 0.866306,0.30943 2.244454,-1.44785 z M 107.6044,79.120882 c 0,-0.58022 -0.20935,-1.054945 -0.46521,-1.054945 -0.25587,0 -0.75862,0.474725 -1.11721,1.054945 -0.3586,0.58022 -0.14926,1.054945 0.46521,1.054945 0.61446,0 1.11721,-0.474725 1.11721,-1.054945 z m 33.4945,-6.001926 c -1.01538,-0.265348 -2.67692,-0.265348 -3.69231,0 -1.01538,0.265348 -0.18461,0.48245 1.84616,0.48245 2.03077,0 2.86154,-0.217102 1.84615,-0.48245 z m 7.78292,-9.558514 c 1.31222,-1.673202 1.2749,-1.710515 -0.3983,-0.3983 -1.75728,1.378148 -2.31611,2.244454 -1.44785,2.244454 0.21906,0 1.04983,-0.830769 1.84615,-1.846154 z M 108.79391,39.296705 c 1.31221,-1.673202 1.2749,-1.710516 -0.39831,-0.3983 -1.01538,0.796319 -1.84615,1.627088 -1.84615,1.846154 0,0.868256 0.86631,0.309418 2.24446,-1.447854 z"
       id="path3789"
       inkscape:connector-curvature="0" />
    <path
       style="fill:#b46d3c;stroke-width:1.05494511"
       d="m 130.33608,152.17583 c -0.56353,-1.48025 -0.43955,-1.58479 0.62559,-0.52747 1.86792,1.8542 3.72362,1.63899 4.54841,-0.52748 0.56353,-1.48024 0.43954,-1.58479 -0.6256,-0.52747 -1.99455,1.9799 -3.33298,1.58846 -2.7103,-0.79266 0.34773,-1.32971 0.13648,-1.85447 -0.57061,-1.41746 -0.71944,0.44464 -0.90892,-0.12378 -0.52747,-1.58242 0.38522,-1.47311 0.19449,-2.02861 -0.54058,-1.57431 -0.71678,0.44299 -0.88909,0.059 -0.46705,-1.04084 0.41236,-1.07457 0.17771,-1.64655 -0.61193,-1.49174 -0.70439,0.1381 -1.21788,-0.56107 -1.14109,-1.5537 0.0768,-0.99264 -0.39793,-1.70473 -1.05495,-1.58242 -0.65701,0.1223 -1.12949,-0.6033 -1.04993,-1.61244 0.0795,-1.00914 -0.20461,-1.61896 -0.63145,-1.35516 -1.07984,0.66738 -5.48509,-3.59406 -4.82291,-4.66548 0.29658,-0.47989 -0.25875,-1.51971 -1.23407,-2.31073 -1.21962,-0.98916 -1.52595,-1.02649 -0.98107,-0.11954 0.43574,0.72528 0.34763,1.31868 -0.19579,1.31868 -1.17283,0 -3.52712,-2.64234 -2.90689,-3.26256 0.23708,-0.23709 -1.78461,-0.33949 -4.49268,-0.22754 -4.06883,0.16817 -4.37422,0.0659 -1.7589,-0.58876 2.69794,-0.6754 2.07542,-0.92053 -4.21978,-1.66165 -4.06154,-0.47816 -11.182415,-1.0014 -15.824173,-1.16274 -7.813287,-0.27161 -8.652058,-0.0926 -11.303148,2.41142 -1.574974,1.48764 -2.602236,3.12768 -2.282807,3.64453 0.82867,1.34082 -1.733226,4.12277 -3.048224,3.31005 -0.628053,-0.38816 -0.783965,-0.17007 -0.364096,0.5093 0.96737,1.56523 -2.429986,6.7015 -3.851546,5.82293 -0.61049,-0.37731 -0.791463,-0.17807 -0.405505,0.44643 0.908104,1.46934 -6.282952,5.91387 -8.309914,5.13605 -4.35759,-1.67216 0.799125,-14.79273 8.466471,-21.5418 2.778373,-2.44562 6.901673,-5.00088 9.162892,-5.67836 3.080949,-0.92308 3.947531,-1.64931 3.457819,-2.89784 C 73.664283,97.224901 73.2344,87.67676 78.887471,75.596423 c 2.183207,-4.665405 2.884765,-7.217819 2.114709,-7.693741 -0.725477,-0.448369 -0.847637,-0.219153 -0.329771,0.618771 0.615106,0.995265 0.190575,1.140952 -1.683157,0.577615 -5.549113,-1.668338 -11.472769,-4.700299 -11.472769,-5.872214 0,-0.876748 0.544432,-0.816466 1.846154,0.204415 1.670644,1.310209 1.709426,1.273449 0.40794,-0.386685 -0.791018,-1.008996 -1.80536,-1.607628 -2.254094,-1.330296 C 64.74282,63.428506 60.80496,48.155326 61.3966,37.978023 c 0.412711,-7.099374 4.891801,-18.989011 7.153582,-18.989011 0.801121,0 0.826494,0.60527 0.08357,1.993441 -0.875193,1.635315 -0.644956,2.106536 1.281566,2.622958 1.291631,0.346234 3.358426,0.635998 4.592875,0.643921 4.198101,0.02694 4.933703,2.488644 5.299215,17.733886 0.398189,16.608229 0.620997,19.172016 1.612888,18.558993 0.394348,-0.24372 1.306714,1.187709 2.027482,3.180955 l 1.310486,3.624084 3.362414,-2.564639 c 2.605435,-1.987262 3.249069,-3.157571 2.858945,-5.198373 -0.474953,-2.484558 0.505542,-6.098641 3.280692,-12.092552 1.454036,-3.140503 5.682254,-7.089126 8.596835,-8.028358 1.16044,-0.373955 2.87555,-1.350511 3.81136,-2.170125 0.93581,-0.819614 4.0611,-1.76967 6.9451,-2.111237 4.81859,-0.57069 5.42889,-0.385496 7.5293,2.284728 2.74889,3.494652 3.07725,11.100367 0.67788,15.701253 -0.87713,1.68193 -1.46761,3.142855 -1.31219,3.246499 0.15544,0.103649 1.81249,0.797323 3.68235,1.541505 1.86986,0.744184 4.52897,2.399596 5.90914,3.678695 1.81345,1.680648 4.04314,2.395618 8.03963,2.577975 6.50896,0.296999 9.57953,-1.343616 11.93211,-6.375373 1.86839,-3.996153 5.41078,-23.624072 4.52289,-25.060708 -0.93533,-1.513409 1.82665,-1.962312 4.70199,-0.76421 3.88689,1.619593 6.3725,3.97547 5.60818,5.315475 -0.36945,0.64773 -0.27809,0.820611 0.203,0.38418 0.48111,-0.436431 1.74404,-0.0069 2.80651,0.954713 2.18414,1.976626 2.62378,4.053864 0.61308,2.896759 -0.76615,-0.440899 -0.95033,-0.356479 -0.43957,0.201476 0.48353,0.528189 1.43298,0.960343 2.10989,0.960343 2.11117,0 2.06421,11.091517 -0.0648,15.296704 -1.02812,2.030769 -2.18711,3.454945 -2.57553,3.164835 -0.92624,-0.691812 -6.22681,4.298471 -5.61581,5.287083 0.25854,0.418334 -0.3495,1.478894 -1.3512,2.356801 -3.69751,3.240546 -8.59025,4.941937 -15.66311,5.44666 -4.5419,0.324112 -5.87563,0.222698 -3.56476,-0.271059 l 3.69231,-0.788927 -3.97014,-0.530365 c -2.18358,-0.291701 -4.5572,-0.157494 -5.27472,0.298237 -0.71753,0.455733 -0.81732,0.835872 -0.22176,0.844757 0.62553,0.0093 0.91287,1.7982 0.68039,4.235935 -0.25153,2.637595 0.038,4.21978 0.77228,4.21978 0.77461,0 0.85359,0.628758 0.23188,1.846154 -0.51853,1.015385 -1.94221,6.239638 -3.16372,11.609449 -2.50957,11.03216 -5.5229,16.60075 -12.6989,23.46748 -2.72859,2.61098 -4.48258,4.3912 -3.89775,3.95604 1.49492,-1.11236 2.99619,-0.98608 2.26881,0.19084 -0.33382,0.54013 -0.0512,1.32557 0.62821,1.74542 0.81593,0.50427 0.95096,0.30354 0.39783,-0.59144 -0.55815,-0.90311 -0.3487,-1.19194 0.62821,-0.8663 0.80604,0.26869 1.46553,1.0028 1.46553,1.63137 0,0.62857 0.43216,1.53846 0.96035,2.02198 0.55795,0.51076 0.64237,0.32658 0.20147,-0.43956 -1.27374,-2.21337 0.96635,-1.46921 3.41119,1.13321 1.26689,1.34854 1.94305,2.84883 1.50258,3.33396 -0.44047,0.48515 -0.2709,0.57981 0.37683,0.21036 2.09937,-1.19744 6.38602,5.18825 7.85494,11.70125 0.43482,1.92793 0.33827,5.1435 -0.21457,7.14569 -0.7815,2.8304 -1.5558,3.64036 -3.48006,3.64036 -1.38601,0 -2.78414,-0.81226 -3.17775,-1.84615 z M 64.351648,142.17555 c 0,-0.61747 -0.670319,-0.51494 -1.582417,0.24204 -0.87033,0.72231 -1.582418,1.47763 -1.582418,1.67848 0,0.20085 0.712088,0.092 1.582418,-0.24204 0.870329,-0.33398 1.582417,-1.08929 1.582417,-1.67848 z m 23.572828,-23.53973 c -0.343579,-0.89535 -0.850942,-1.40166 -1.127473,-1.12513 -0.276531,0.27654 -0.189867,1.0091 0.192585,1.62792 1.040229,1.68312 1.648225,1.35614 0.934888,-0.50279 z M 104.57412,104.7033 c 1.31222,-1.6732 1.27491,-1.71051 -0.3983,-0.3983 -1.01538,0.79632 -1.84615,1.62709 -1.84615,1.84615 0,0.86826 0.86631,0.30943 2.24445,-1.44785 z M 80.432987,91.079362 c -0.728889,-0.293859 -1.011585,-1.041818 -0.628211,-1.66213 0.411994,-0.66662 0.198977,-0.820018 -0.5209,-0.37511 -1.840763,1.137655 -1.45947,2.748997 0.628212,2.654816 1.113756,-0.05025 1.320405,-0.295246 0.520899,-0.617576 z m 16.6008,-7.236721 c -0.733947,-0.884351 -1.609095,-1.333264 -1.944775,-0.997584 -0.33568,0.335679 0.08801,1.05197 0.941539,1.591757 2.233288,1.412375 2.525092,1.239552 1.003236,-0.594173 z m 11.399243,-1.293187 c -0.88455,-1.015385 -1.41966,-2.36044 -1.18914,-2.989011 0.23051,-0.628572 -0.28528,-1.142858 -1.1462,-1.142858 -0.86093,0 -1.27663,0.514286 -0.92379,1.142858 0.98607,1.756652 3.74927,4.835165 4.33992,4.835165 0.29011,0 -0.19625,-0.83077 -1.08079,-1.846154 z m 4.44609,1.447854 c 0,-0.219066 -0.83077,-1.049835 -1.84615,-1.846154 -1.67321,-1.312216 -1.71052,-1.274902 -0.39831,0.3983 1.37815,1.757272 2.24446,2.316109 2.24446,1.447854 z m 21.92994,-2.910757 c -0.26336,-0.790097 -0.74156,-0.311898 -1.1146,1.114603 -0.45887,1.754738 -0.32158,2.166622 0.46127,1.383781 0.61303,-0.613031 0.90703,-1.737304 0.65333,-2.498384 z M 109.08125,64.0076 c 0.74642,-0.560549 0.59588,-0.717567 -0.42191,-0.440053 -0.87033,0.237309 -1.69272,1.341582 -1.82755,2.45394 -0.17224,1.421058 -0.0467,1.551914 0.42192,0.440054 0.36688,-0.87033 1.18927,-1.974603 1.82754,-2.453941 z m 26.72095,1.816578 c -0.35056,-0.350549 -1.26045,-0.388028 -2.02198,-0.08329 -0.84156,0.336766 -0.59159,0.586743 0.63737,0.637363 1.11208,0.04581 1.73516,-0.203528 1.38461,-0.554078 z m -31.0989,-1.116252 c -0.72528,-0.292655 -1.91209,-0.292655 -2.63737,0 -0.72527,0.292655 -0.13186,0.532099 1.31868,0.532099 1.45055,0 2.04396,-0.239444 1.31869,-0.532099 z m 44.17852,-1.147484 c 1.31222,-1.673202 1.2749,-1.710515 -0.3983,-0.3983 -1.75728,1.378148 -2.31611,2.244454 -1.44785,2.244454 0.21906,0 1.04983,-0.830769 1.84615,-1.846154 z m -33.41039,-5.465567 c 0.33382,-0.540128 0.12447,-1.280232 -0.46521,-1.644678 -0.58969,-0.364444 -1.07215,0.07748 -1.07215,0.982051 0,1.853038 0.63303,2.125882 1.53736,0.662627 z M 78.786581,52.549453 c -0.336765,-0.841565 -0.586742,-0.591588 -0.637363,0.637363 -0.04581,1.112087 0.203529,1.735164 0.554079,1.384615 0.350548,-0.35055 0.388028,-1.26044 0.08329,-2.021978 z m 22.852179,-4.594949 c -0.34358,-0.895354 -0.85094,-1.401663 -1.12747,-1.125132 -0.27653,0.276531 -0.18987,1.009093 0.19258,1.627916 1.04023,1.683124 1.64823,1.356142 0.93489,-0.502784 z M 77.731636,45.164837 c -0.336765,-0.841565 -0.586742,-0.591588 -0.637363,0.637363 -0.04581,1.112087 0.203529,1.735164 0.554079,1.384615 0.350548,-0.35055 0.388027,-1.26044 0.08329,-2.021978 z m 25.864344,-2.480266 c 1.28105,-0.246707 3.29693,-1.416304 4.47972,-2.599103 l 2.15055,-2.150543 -2.88512,1.34023 c -1.5868,0.737127 -2.88881,1.724292 -2.89334,2.1937 -0.005,0.469407 -0.41302,0.603295 -0.90776,0.297529 -0.49474,-0.305766 -1.80023,0.176146 -2.9011,1.070917 -1.100861,0.894772 -1.409946,1.327376 -0.686852,0.961344 0.723092,-0.366032 2.362852,-0.867365 3.643902,-1.114074 z M 62.940428,39.824177 c -0.292655,-0.725274 -0.532099,-0.131868 -0.532099,1.318682 0,1.450549 0.239444,2.043956 0.532099,1.318681 0.292654,-0.725275 0.292654,-1.912088 0,-2.637363 z m 0.02198,-4.153846 c -0.336766,-0.841565 -0.586743,-0.591588 -0.637363,0.637363 -0.04581,1.112087 0.203528,1.735164 0.554078,1.384615 0.350549,-0.350549 0.388028,-1.26044 0.08329,-2.021978 z m 15.103531,91.450549 c 1.36272,-1.45055 2.715036,-2.63736 3.005146,-2.63736 0.29011,0 -0.587481,1.18681 -1.950201,2.63736 -1.36272,1.45055 -2.715036,2.63737 -3.005146,2.63737 -0.29011,0 0.587481,-1.18682 1.950201,-2.63737 z M 163.94373,64.505155 c 2.23261,-2.514504 2.73759,-2.744263 2.73759,-1.245567 0,0.559806 -1.06813,1.578333 -2.37363,2.263395 -2.3609,1.238888 -2.36285,1.233432 -0.36396,-1.017828 z"
       id="path3787"
       inkscape:connector-curvature="0" />
    <path
       style="fill:#5f5f5f;stroke-width:1.05494511"
       d="m 130.33608,152.17583 c -0.56353,-1.48025 -0.43955,-1.58479 0.62559,-0.52747 1.86792,1.8542 3.72362,1.63899 4.54841,-0.52748 0.56353,-1.48024 0.43954,-1.58479 -0.6256,-0.52747 -1.99455,1.9799 -3.33298,1.58846 -2.7103,-0.79266 0.34773,-1.32971 0.13648,-1.85447 -0.57061,-1.41746 -0.71944,0.44464 -0.90892,-0.12378 -0.52747,-1.58242 0.38522,-1.47311 0.19449,-2.02861 -0.54058,-1.57431 -0.71678,0.44299 -0.88909,0.059 -0.46705,-1.04084 0.41236,-1.07457 0.17771,-1.64655 -0.61193,-1.49174 -0.70439,0.1381 -1.21788,-0.56107 -1.14109,-1.5537 0.0768,-0.99264 -0.39793,-1.70473 -1.05495,-1.58242 -0.65701,0.1223 -1.12949,-0.6033 -1.04993,-1.61244 0.0795,-1.00914 -0.20461,-1.61896 -0.63145,-1.35516 -1.07984,0.66738 -5.48509,-3.59406 -4.82291,-4.66548 0.29658,-0.47989 -0.25875,-1.51971 -1.23407,-2.31073 -1.21962,-0.98916 -1.52595,-1.02649 -0.98107,-0.11954 0.43574,0.72528 0.34763,1.31868 -0.19579,1.31868 -1.17283,0 -3.52712,-2.64234 -2.90689,-3.26256 0.23708,-0.23709 -1.78461,-0.33949 -4.49268,-0.22754 -4.06883,0.16817 -4.37422,0.0659 -1.7589,-0.58876 2.69794,-0.6754 2.07542,-0.92053 -4.21978,-1.66165 -4.06154,-0.47816 -11.182415,-1.0014 -15.824173,-1.16274 -7.813287,-0.27161 -8.652058,-0.0926 -11.303148,2.41142 -1.574974,1.48764 -2.602236,3.12768 -2.282807,3.64453 0.82867,1.34082 -1.733226,4.12277 -3.048224,3.31005 -0.628053,-0.38816 -0.783965,-0.17007 -0.364096,0.5093 0.96737,1.56523 -2.429986,6.7015 -3.851546,5.82293 -0.61049,-0.37731 -0.791463,-0.17807 -0.405505,0.44643 0.908104,1.46934 -6.282952,5.91387 -8.309914,5.13605 -4.35759,-1.67216 0.799125,-14.79273 8.466471,-21.5418 2.778373,-2.44562 6.901673,-5.00088 9.162892,-5.67836 3.080949,-0.92308 3.947531,-1.64931 3.457819,-2.89784 C 73.664283,97.224901 73.2344,87.67676 78.887471,75.596423 c 2.183207,-4.665405 2.884765,-7.217819 2.114709,-7.693741 -0.725477,-0.448369 -0.847637,-0.219153 -0.329771,0.618771 0.615106,0.995265 0.190575,1.140952 -1.683157,0.577615 -5.549113,-1.668338 -11.472769,-4.700299 -11.472769,-5.872214 0,-0.876748 0.544432,-0.816466 1.846154,0.204415 1.670644,1.310209 1.709426,1.273449 0.40794,-0.386685 -0.791018,-1.008996 -1.80536,-1.607628 -2.254094,-1.330296 C 64.74282,63.428506 60.80496,48.155326 61.3966,37.978023 c 0.412711,-7.099374 4.891801,-18.989011 7.153582,-18.989011 0.801121,0 0.826494,0.60527 0.08357,1.993441 -0.875193,1.635315 -0.644956,2.106536 1.281566,2.622958 1.291631,0.346234 3.358426,0.635998 4.592875,0.643921 4.198101,0.02694 4.933703,2.488644 5.299215,17.733886 0.398189,16.608229 0.620997,19.172016 1.612888,18.558993 0.394348,-0.24372 1.306714,1.187709 2.027482,3.180955 l 1.310486,3.624084 3.362414,-2.564639 c 2.605435,-1.987262 3.249069,-3.157571 2.858945,-5.198373 -0.474953,-2.484558 0.505542,-6.098641 3.280692,-12.092552 1.454036,-3.140503 5.682254,-7.089126 8.596835,-8.028358 1.16044,-0.373955 2.87555,-1.350511 3.81136,-2.170125 0.93581,-0.819614 4.0611,-1.76967 6.9451,-2.111237 4.81859,-0.57069 5.42889,-0.385496 7.5293,2.284728 2.74889,3.494652 3.07725,11.100367 0.67788,15.701253 -0.87713,1.68193 -1.46761,3.142855 -1.31219,3.246499 0.15544,0.103649 1.81249,0.797323 3.68235,1.541505 1.86986,0.744184 4.52897,2.399596 5.90914,3.678695 1.81345,1.680648 4.04314,2.395618 8.03963,2.577975 6.50896,0.296999 9.57953,-1.343616 11.93211,-6.375373 1.86839,-3.996153 5.41078,-23.624072 4.52289,-25.060708 -0.93533,-1.513409 1.82665,-1.962312 4.70199,-0.76421 3.88689,1.619593 6.3725,3.97547 5.60818,5.315475 -0.36945,0.64773 -0.27809,0.820611 0.203,0.38418 0.48111,-0.436431 1.74404,-0.0069 2.80651,0.954713 2.18414,1.976626 2.62378,4.053864 0.61308,2.896759 -0.76615,-0.440899 -0.95033,-0.356479 -0.43957,0.201476 0.48353,0.528189 1.43298,0.960343 2.10989,0.960343 2.11117,0 2.06421,11.091517 -0.0648,15.296704 -1.02812,2.030769 -2.18711,3.454945 -2.57553,3.164835 -0.92624,-0.691812 -6.22681,4.298471 -5.61581,5.287083 0.25854,0.418334 -0.3495,1.478894 -1.3512,2.356801 -3.69751,3.240546 -8.59025,4.941937 -15.66311,5.44666 -4.5419,0.324112 -5.87563,0.222698 -3.56476,-0.271059 l 3.69231,-0.788927 -3.97014,-0.530365 c -2.18358,-0.291701 -4.5572,-0.157494 -5.27472,0.298237 -0.71753,0.455733 -0.81732,0.835872 -0.22176,0.844757 0.62553,0.0093 0.91287,1.7982 0.68039,4.235935 -0.25153,2.637595 0.038,4.21978 0.77228,4.21978 0.77461,0 0.85359,0.628758 0.23188,1.846154 -0.51853,1.015385 -1.93544,6.211887 -3.14868,11.547783 -1.31778,5.795616 -3.47575,11.765396 -5.35991,14.827556 -3.90776,6.35091 -11.05346,12.33128 -13.56473,11.35256 -1.45885,-0.56858 -1.20322,-0.94919 1.37187,-2.04253 1.74066,-0.73906 5.00267,-3.3797 7.2489,-5.86808 l 4.08406,-4.52435 -3.55659,-1.30005 c -1.95612,-0.71503 -5.38164,-2.09918 -7.61227,-3.07589 -2.29924,-1.00675 -5.95425,-1.63745 -8.43956,-1.4563 -3.74101,0.27267 -4.63299,0.81813 -6.08263,3.71967 -0.93432,1.87008 -1.91239,3.18652 -2.17349,2.92541 -0.261112,-0.26111 -2.798981,1.88498 -5.639715,4.76908 -3.329183,3.38001 -4.802041,5.60676 -4.14387,6.26493 1.696008,1.696 26.084945,3.26625 27.575775,1.77543 1.04455,-1.04455 2.63041,-0.79349 1.94928,0.30859 -0.33382,0.54013 -0.0512,1.32557 0.62821,1.74542 0.81593,0.50427 0.95096,0.30354 0.39783,-0.59144 -0.55815,-0.90311 -0.3487,-1.19194 0.62821,-0.8663 0.80604,0.26869 1.46553,1.0028 1.46553,1.63137 0,0.62857 0.43216,1.53846 0.96035,2.02198 0.55795,0.51076 0.64237,0.32658 0.20147,-0.43956 -1.27374,-2.21337 0.96635,-1.46921 3.41119,1.13321 1.26689,1.34854 1.94305,2.84883 1.50258,3.33396 -0.44047,0.48515 -0.2709,0.57981 0.37683,0.21036 2.09937,-1.19744 6.38602,5.18825 7.85494,11.70125 0.43482,1.92793 0.33827,5.1435 -0.21457,7.14569 -0.7815,2.8304 -1.5558,3.64036 -3.48006,3.64036 -1.38601,0 -2.78414,-0.81226 -3.17775,-1.84615 z M 64.351648,142.17555 c 0,-0.61747 -0.670319,-0.51494 -1.582417,0.24204 -0.87033,0.72231 -1.582418,1.47763 -1.582418,1.67848 0,0.20085 0.712088,0.092 1.582418,-0.24204 0.870329,-0.33398 1.582417,-1.08929 1.582417,-1.67848 z m 23.782526,-22.8919 c -0.333151,-0.53905 2.021702,-3.465 5.233009,-6.50213 11.156627,-10.55147 12.219787,-15.21378 5.817732,-25.512541 -1.76707,-2.842619 -2.613162,-4.975739 -1.880204,-4.740266 1.963138,0.630688 7.014279,10.222277 7.788719,14.789972 0.62674,3.696565 0.9147,3.956045 4.39016,3.956045 2.04568,0 6.28916,1.21568 9.42996,2.70152 8.07581,3.82047 9.92146,3.28127 12.1053,-3.53648 0.98344,-3.070217 2.10091,-7.668376 2.48326,-10.218132 l 0.6952,-4.635921 -7.62436,2.651493 c -4.1934,1.45832 -8.63394,2.375345 -9.86788,2.037833 -2.37804,-0.650449 -11.03835,-10.099216 -9.25648,-10.099216 0.57548,0 2.67173,1.898901 4.65831,4.219781 2.1779,2.544385 4.53135,4.21978 5.92756,4.21978 2.84006,0 15.73822,-4.088994 16.43026,-5.208744 0.80473,-1.302089 -1.51831,-13.939691 -3.22257,-17.531167 -2.53045,-5.332525 -12.72323,-9.949654 -14.7446,-6.679011 -0.39923,0.645969 -2.80088,2.092358 -5.33699,3.214202 -2.53611,1.121842 -4.59978,2.373543 -4.58594,2.781557 0.0138,0.408013 0.45282,2.5852 0.97549,4.83819 1.40036,6.036234 -0.003,8.87149 -4.09363,8.271098 -2.67962,-0.393284 -5.026961,0.695956 -12.929454,5.999669 -5.310493,3.564105 -10.153261,6.314252 -10.761707,6.111437 -0.608444,-0.202814 2.91413,-2.986254 7.827945,-6.185421 11.83404,-7.704618 13.537186,-8.554959 15.898146,-7.937553 2.80079,0.732421 3.35032,-0.702963 2.53597,-6.623974 l -0.70668,-5.138196 h -4.61884 c -2.540368,0 -5.120909,-0.310291 -5.734539,-0.689535 -1.382526,-0.854449 -6.989736,2.535992 -10.759395,6.505748 -6.296897,6.631144 -9.049912,21.470538 -6.031918,32.513462 1.923691,7.03883 5.344711,14.24176 6.764111,14.24176 0.736802,0 1.612894,0.71208 1.946871,1.58241 0.333977,0.87033 0.887509,1.58242 1.230072,1.58242 0.342563,0 0.350263,-0.44104 0.01711,-0.98009 z M 135.8022,65.824178 c -0.35056,-0.350549 -1.26045,-0.388028 -2.02198,-0.08329 -0.84156,0.336766 -0.59159,0.586743 0.63737,0.637363 1.11208,0.04581 1.73516,-0.203528 1.38461,-0.554078 z m 13.07962,-2.263736 c 1.31222,-1.673202 1.2749,-1.710515 -0.3983,-0.3983 -1.75728,1.378148 -2.31611,2.244454 -1.44785,2.244454 0.21906,0 1.04983,-0.830769 1.84615,-1.846154 z m -33.41039,-5.465567 c 0.33382,-0.540128 0.12447,-1.280232 -0.46521,-1.644678 -0.58969,-0.364444 -1.07215,0.07748 -1.07215,0.982051 0,1.853038 0.63303,2.125882 1.53736,0.662627 z M 78.786581,52.549453 c -0.336765,-0.841565 -0.586742,-0.591588 -0.637363,0.637363 -0.04581,1.112087 0.203529,1.735164 0.554079,1.384615 0.350548,-0.35055 0.388028,-1.26044 0.08329,-2.021978 z m 22.852179,-4.594949 c -0.34358,-0.895354 -0.85094,-1.401663 -1.12747,-1.125132 -0.27653,0.276531 -0.18987,1.009093 0.19258,1.627916 1.04023,1.683124 1.64823,1.356142 0.93489,-0.502784 z M 77.731636,45.164837 c -0.336765,-0.841565 -0.586742,-0.591588 -0.637363,0.637363 -0.04581,1.112087 0.203529,1.735164 0.554079,1.384615 0.350548,-0.35055 0.388027,-1.26044 0.08329,-2.021978 z m 25.864344,-2.480266 c 1.28105,-0.246707 3.29693,-1.416304 4.47972,-2.599103 l 2.15055,-2.150543 -2.88512,1.34023 c -1.5868,0.737127 -2.88881,1.724292 -2.89334,2.1937 -0.005,0.469407 -0.41302,0.603295 -0.90776,0.297529 -0.49474,-0.305766 -1.80023,0.176146 -2.9011,1.070917 -1.100861,0.894772 -1.409946,1.327376 -0.686852,0.961344 0.723092,-0.366032 2.362852,-0.867365 3.643902,-1.114074 z M 62.940428,39.824177 c -0.292655,-0.725274 -0.532099,-0.131868 -0.532099,1.318682 0,1.450549 0.239444,2.043956 0.532099,1.318681 0.292654,-0.725275 0.292654,-1.912088 0,-2.637363 z m 0.02198,-4.153846 c -0.336766,-0.841565 -0.586743,-0.591588 -0.637363,0.637363 -0.04581,1.112087 0.203528,1.735164 0.554078,1.384615 0.350549,-0.350549 0.388028,-1.26044 0.08329,-2.021978 z m 15.103531,91.450549 c 1.36272,-1.45055 2.715036,-2.63736 3.005146,-2.63736 0.29011,0 -0.587481,1.18681 -1.950201,2.63736 -1.36272,1.45055 -2.715036,2.63737 -3.005146,2.63737 -0.29011,0 0.587481,-1.18682 1.950201,-2.63737 z M 163.94373,64.505155 c 2.23261,-2.514504 2.73759,-2.744263 2.73759,-1.245567 0,0.559806 -1.06813,1.578333 -2.37363,2.263395 -2.3609,1.238888 -2.36285,1.233432 -0.36396,-1.017828 z"
       id="path3785"
       inkscape:connector-curvature="0" />
    <path
       style="fill:#34ab0e;stroke-width:1.05494511"
       d="m 131.58383,153.38604 c -0.34976,-0.34978 -0.20327,-1.77395 0.32554,-3.16483 0.59367,-1.56148 0.58058,-2.5289 -0.0343,-2.5289 -0.54764,0 -0.69258,-0.78996 -0.32208,-1.75547 0.49228,-1.28286 0.29309,-1.52029 -0.73986,-0.88189 -1.04152,0.64371 -1.23069,0.39721 -0.71882,-0.93667 0.38205,-0.99565 0.32038,-1.57896 -0.13705,-1.29625 -0.45745,0.28272 -1.43651,-0.45439 -2.17569,-1.63802 -1.1033,-1.76665 -1.09388,-2.02381 0.0526,-1.43595 0.76811,0.39385 0.57316,0.0405 -0.4332,-0.78512 -1.00637,-0.82568 -1.48109,-1.88644 -1.05495,-2.35726 0.42615,-0.47082 0.25042,-0.55719 -0.39052,-0.19194 -0.64093,0.36525 -2.26653,-0.50809 -3.61245,-1.94075 -1.34593,-1.43267 -2.03209,-2.60485 -1.52479,-2.60485 1.17165,0 -1.37185,-2.59221 -2.71721,-2.76923 -0.55121,-0.0725 -1.50494,-0.19121 -2.11941,-0.26374 -0.61446,-0.0725 -0.89713,-0.48791 -0.62816,-0.92308 0.26898,-0.43516 -1.7206,-0.69992 -4.42126,-0.58834 -4.03719,0.16679 -4.34755,0.0638 -1.74546,-0.57932 2.89708,-0.71602 2.67569,-0.85055 -2.61678,-1.59014 -3.17988,-0.44438 -10.333182,-1.01178 -15.896218,-1.26091 l -10.114612,-0.45294 -3.092787,3.42264 -3.092787,3.42264 3.66288,-3.16484 c 3.607289,-3.1168 3.599283,-3.09158 -0.527472,1.66202 -2.304695,2.65477 -4.54096,4.64769 -4.969478,4.42872 -0.428519,-0.21896 -0.504604,0.31727 -0.169076,1.19163 0.421484,1.09838 -1.182354,2.73635 -5.188806,5.29925 -3.18937,2.04022 -5.989653,4.28188 -6.222854,4.98148 -0.250453,0.75136 -0.984776,0.92542 -1.794065,0.42526 -0.951076,-0.58781 -1.164773,-2.13058 -0.698773,-5.04478 0.828878,-5.18352 3.522181,-10.58746 4.863566,-9.75844 0.548862,0.33921 0.744033,-0.0448 0.433712,-0.85358 -0.729617,-1.90135 7.65092,-9.53803 9.632585,-8.7776 0.813969,0.31236 1.366957,0.01 1.228862,-0.67206 -0.138094,-0.68199 1.448131,-1.67829 3.524946,-2.21401 l 3.776027,-0.97402 -2.540051,-6.28853 c -1.397029,-3.4587 -2.749983,-8.02334 -3.006568,-10.14364 -0.385024,-3.181688 -0.199249,-2.933705 1.063507,1.41962 2.196976,7.57403 5.806631,15.29671 7.149838,15.29671 0.634158,0 1.833962,0.83076 2.666229,1.84615 0.832267,1.01538 1.244576,1.30444 0.916241,0.64233 -0.328335,-0.66209 1.416681,-3.01363 3.877811,-5.22563 7.192526,-6.46449 11.312923,-12.19892 11.298523,-15.724394 -0.0127,-3.116159 -3.09726,-11.034656 -5.563063,-14.281286 -0.693371,-0.912937 0.03908,-0.327009 1.627655,1.302064 1.617668,1.658897 3.706128,5.744887 4.747248,9.287805 1.73583,5.906961 2.0685,6.326631 5.02376,6.337621 1.74066,0.006 5.70428,1.19395 8.80806,2.63883 3.10376,1.44488 6.96823,2.62705 8.58772,2.62705 2.78709,0 3.05782,-0.43707 5.0641,-8.17582 3.29526,-12.710705 3.36252,-13.137592 1.99063,-12.6333 -9.2169,3.388029 -15.45749,4.918607 -17.21803,4.222919 -1.14185,-0.451214 -3.94837,-2.914527 -6.2367,-5.474031 -2.91961,-3.265579 -3.45466,-4.278258 -1.79383,-3.395121 1.30172,0.692186 3.40858,2.667644 4.6819,4.389906 2.66476,3.604269 4.87452,3.864346 12.93188,1.522007 9.18465,-2.670048 9.52013,-3.151981 8.05416,-11.5702 -1.73084,-9.939188 -3.42549,-12.716142 -9.70067,-15.896015 -4.89013,-2.478014 -5.51181,-2.569836 -7.17969,-1.060424 -2.27356,2.057546 -3.93671,2.177954 -2.26528,0.164001 0.84449,-1.017552 0.88536,-1.704799 0.12918,-2.172149 -0.95733,-0.59166 -1.61212,1.482023 -1.23525,3.911957 0.0665,0.42833 -1.48787,1.450924 -3.45401,2.272432 l -3.57481,1.493651 0.55854,6.958337 0.55855,6.958337 h -4.04813 c -3.18852,0 -6.136058,1.376768 -13.880677,6.48354 -5.407897,3.565946 -10.075904,6.240175 -10.373349,5.942729 -0.297446,-0.297446 4.337372,-3.702214 10.299597,-7.566153 8.843802,-5.731402 11.376219,-6.907657 13.749579,-6.38638 2.66333,0.584965 2.90917,0.375575 2.90917,-2.477828 0,-1.714233 -0.28437,-4.538632 -0.63193,-6.276443 -0.60185,-3.009258 -0.93799,-3.187408 -7.061871,-3.742701 -5.983944,-0.542606 -6.755731,-0.350886 -11.126908,2.764051 -4.885385,3.481363 -10.715201,13.479797 -10.71692,18.380064 -4.58e-4,1.305495 -0.425564,2.373627 -0.94468,2.373627 -1.971572,0 2.616953,-13.482226 5.776878,-16.973904 1.416474,-1.565186 1.406224,-1.824069 -0.09503,-2.400152 -0.925514,-0.355154 -1.42008,-0.220718 -1.099034,0.298745 0.321046,0.519463 -0.361046,0.697416 -1.515761,0.395452 -1.154714,-0.301964 -1.881823,-0.901203 -1.615798,-1.33164 0.266026,-0.430438 -0.623437,-0.570976 -1.976585,-0.312305 -4.013058,0.767145 -9.813672,-5.146486 -11.820947,-12.05127 -0.923753,-3.177601 -1.441533,-6.687642 -1.15062,-7.800093 0.290911,-1.11245 0.04335,-2.022637 -0.550147,-2.022637 -0.667729,0 -0.909834,-2.513431 -0.635105,-6.593407 0.460442,-6.837986 5.394854,-19.78022 7.541492,-19.78022 0.712488,0 0.659916,0.46195 -0.144068,1.265934 -2.106982,2.106983 -1.463353,2.897343 2.931782,3.600154 7.450209,1.191337 8.171178,2.506988 7.450228,13.595451 l -0.342953,5.274725 -0.75554,-4.21978 c -0.667173,-3.726233 -0.760751,-3.417766 -0.800086,2.637363 -0.03393,5.223029 0.177986,6.228637 0.889251,4.21978 0.651308,-1.839517 0.776974,-0.722534 0.415402,3.692308 -0.38773,4.734251 -0.22836,5.930816 0.632283,4.747253 0.885623,-1.217915 1.012376,-0.780581 0.550271,1.898596 -0.330224,1.914558 -0.182572,3.222778 0.328112,2.907158 1.279603,-0.790838 2.287208,2.190887 1.464689,4.334338 -0.492279,1.282858 -0.29309,1.520284 0.739858,0.881886 1.021495,-0.631319 1.233931,-0.405649 0.766012,0.813729 -0.981141,2.556813 1.489467,2.787491 5.036186,0.470222 2.662634,-1.739647 3.180472,-2.783188 3.263378,-6.576317 0.127579,-5.836993 4.442991,-14.68596 7.286072,-14.940453 4.899189,-0.438543 7.454749,-1.523005 9.980169,-4.235126 2.10205,-2.257455 2.16787,-2.45332 0.30555,-0.909275 -1.3055,1.082379 -2.37363,1.431852 -2.37363,0.776605 0,-1.602628 5.60086,-4.410375 8.79778,-4.410375 6.65417,0 10.0789,9.001225 6.59614,17.336654 -0.93903,2.247411 -1.58242,4.168742 -1.42975,4.269625 0.15267,0.100884 1.74223,0.76528 3.53236,1.476439 3.77235,1.498629 10.11285,6.978238 9.16793,7.92315 -0.35336,0.353367 0.17674,0.642485 1.17802,0.642485 1.00128,0 1.52711,-0.474725 1.16851,-1.054945 -0.40081,-0.648518 1.34114,-1.054945 4.52149,-1.054945 3.81313,0 5.66964,-0.548247 7.06039,-2.085014 1.0378,-1.146757 2.19646,-1.893699 2.57481,-1.65987 0.37834,0.233828 0.74394,-0.370772 0.81246,-1.343558 0.0685,-0.972785 1.11345,-6.278592 2.32208,-11.79068 1.20864,-5.512088 2.20377,-11.299455 2.21139,-12.860817 0.0146,-2.973453 1.53759,-4.765245 2.59553,-3.053462 0.33968,0.549592 0.13511,1.29744 -0.45457,1.661886 -0.58968,0.364444 -1.04207,1.465378 -1.00528,2.446521 0.0484,1.292498 0.32968,1.130048 1.02094,-0.589733 0.52476,-1.305494 1.70949,-2.373626 2.63276,-2.373626 1.00025,0 1.37446,0.492221 0.92594,1.217942 -0.48404,0.783184 -0.28736,0.930335 0.55094,0.412233 1.63395,-1.009837 7.72128,4.611778 7.00764,6.471509 -0.2797,0.728889 0.0188,1.651167 0.66332,2.049507 0.7516,0.464516 0.89618,0.192879 0.40317,-0.757424 -0.42279,-0.814923 -0.0214,-0.560176 0.89194,0.566107 2.22409,2.742574 2.06272,9.646632 -0.34665,14.831336 -2.47029,5.315813 -9.96849,12.678845 -11.77475,11.56251 -0.85594,-0.529 -1.04633,-0.379813 -0.54678,0.428468 1.5504,2.508608 -6.23729,4.520137 -13.65316,3.526553 -3.72612,-0.49923 -7.17816,-0.634465 -7.6712,-0.300522 -1.16692,0.790375 -0.2864,9.5742 0.95975,9.5742 0.56393,0 0.56773,0.753797 0.01,1.846154 -0.51908,1.015385 -1.98544,6.093711 -3.25858,11.285169 -3.26131,13.29862 -6.54946,19.07379 -13.70368,24.06868 -2.54964,1.78009 -2.55815,1.83627 -0.52748,3.48177 1.13519,0.91987 1.39723,1.32658 0.5823,0.90379 -0.9503,-0.49301 -1.22193,-0.34843 -0.75742,0.40317 0.39834,0.64453 1.37312,0.92288 2.16617,0.61855 0.79307,-0.30432 1.80067,0.0271 2.23912,0.73654 0.54334,0.87917 0.35747,1.01812 -0.58377,0.4364 -0.89438,-0.55276 -1.12576,-0.44058 -0.65668,0.3184 0.39834,0.64453 1.31737,0.94426 2.0423,0.66608 1.87085,-0.71791 8.54837,6.41799 7.53701,8.05439 -0.50826,0.82239 -0.37592,1.0414 0.35595,0.58909 1.46355,-0.90453 3.74853,3.18874 2.94661,5.2785 -0.33531,0.87382 -0.13988,1.27248 0.44623,0.91025 1.52154,-0.94036 1.31063,9.3397 -0.22307,10.8734 -1.36818,1.36818 -3.27506,1.648 -4.29309,0.62999 z m 3.84,-2.02583 c 0.50305,-1.31094 0.23244,-1.40123 -1.46956,-0.49036 -2.44542,1.30876 -2.67722,2.09719 -0.61659,2.09719 0.80826,0 1.74702,-0.72307 2.08615,-1.60683 z M 62.64428,133.39576 c 0.360259,-0.93882 0.183401,-1.36227 -0.414605,-0.99268 -0.573574,0.35448 -1.042862,1.09123 -1.042862,1.63721 0,1.51746 0.756149,1.18308 1.457467,-0.64453 z m 69.22385,0.23868 c 0,-0.18896 -1.30549,-1.49445 -2.9011,-2.9011 l -2.9011,-2.55751 2.55752,2.9011 c 2.39039,2.71151 3.24468,3.38488 3.24468,2.55751 z m -63.824174,-8.09597 c 1.050183,-1.16044 1.672061,-2.10989 1.381951,-2.10989 -0.290109,0 -1.386713,0.94945 -2.436896,2.10989 -1.050183,1.16044 -1.672062,2.10989 -1.381952,2.10989 0.29011,0 1.386714,-0.94945 2.436897,-2.10989 z m 47.829004,-3.55395 -2.46637,-1.03176 2.4176,-0.42365 c 2.53914,-0.44493 8.83885,-6.15294 10.76697,-9.75568 0.88961,-1.66224 0.80553,-2.11409 -0.39339,-2.11409 -0.83865,0 -4.53447,-1.42379 -8.21294,-3.164 -3.67847,-1.7402 -7.84483,-3.16438 -9.25859,-3.16483 -1.8312,-6e-4 -4.94101,2.44742 -10.813178,8.51203 -4.533503,4.68208 -8.242733,8.92453 -8.242733,9.42767 0,0.50314 -1.542857,1.11926 -3.428571,1.36916 -3.143152,0.41654 -3.077285,0.46325 0.791209,0.56098 2.320879,0.0587 9.679121,0.73334 16.351643,1.49937 8.03136,0.92201 12.60893,1.04188 13.54329,0.35466 1.10965,-0.81613 0.88409,-1.2587 -1.05494,-2.06986 z m -34.927905,-3.41309 c -0.35055,-0.35055 -1.26044,-0.38802 -2.021978,-0.0832 -0.841565,0.33676 -0.591588,0.58674 0.637363,0.63736 1.112087,0.0458 1.735164,-0.20352 1.384615,-0.55408 z M 151.62638,72.153848 c -0.35056,-0.350548 -1.26045,-0.388027 -2.02199,-0.08329 -0.84156,0.336765 -0.59159,0.586742 0.63737,0.637363 1.11208,0.04581 1.73516,-0.203529 1.38462,-0.554079 z m 3.97055,-1.460443 c 0.36959,-0.598007 -0.0539,-0.774865 -0.99269,-0.414605 -1.8276,0.701318 -2.16199,1.457466 -0.64453,1.457466 0.54598,0 1.28273,-0.469288 1.63722,-1.042861 z m 8.51339,-6.605491 3.09847,-3.428571 -3.42857,3.09847 c -3.19591,2.888208 -3.91348,3.758673 -3.09847,3.758673 0.18156,0 1.72441,-1.542857 3.42857,-3.428572 z m -15.2285,-0.527472 c 1.31222,-1.673202 1.2749,-1.710515 -0.3983,-0.3983 -1.75728,1.378148 -2.31611,2.244454 -1.44785,2.244454 0.21906,0 1.04983,-0.830769 1.84615,-1.846154 z M 69.410079,62.505497 c -0.879035,-1.015385 -2.12499,-2.795605 -2.768787,-3.956044 -0.643797,-1.16044 -1.184976,-1.580504 -1.202619,-0.933478 -0.0352,1.29089 3.970372,6.735676 4.955245,6.735676 0.337924,0 -0.104799,-0.83077 -0.983839,-1.846154 z M 100.21978,62.27487 c 0,-0.56201 -0.712088,-0.748583 -1.582418,-0.414605 -0.870329,0.333977 -1.582417,0.793803 -1.582417,1.021836 0,0.228032 0.712088,0.414605 1.582417,0.414605 0.87033,0 1.582418,-0.459827 1.582418,-1.021836 z m 6.04396,0.384473 c -0.35056,-0.350549 -1.26044,-0.388028 -2.02198,-0.08329 -0.84157,0.336766 -0.59159,0.586742 0.63736,0.637363 1.11208,0.04581 1.73517,-0.203529 1.38462,-0.554079 z m 46.49955,-6.247695 c -0.32481,-0.324805 -0.91469,0.260689 -1.31085,1.301098 -0.5725,1.503506 -0.45133,1.624681 0.59056,0.590553 0.72097,-0.715605 1.0451,-1.566847 0.72029,-1.891651 z m 0.90241,-4.983075 c -0.29265,-0.725274 -0.5321,-0.131868 -0.5321,1.318682 0,1.450549 0.23945,2.043956 0.5321,1.318681 0.29265,-0.725275 0.29265,-1.912088 0,-2.637363 z m -41.84152,1.959022 c 0,-0.228033 -0.73675,-0.697321 -1.63722,-1.042862 -0.93881,-0.360259 -1.36227,-0.183401 -0.99268,0.414605 0.61953,1.002413 2.6299,1.482671 2.6299,0.628257 z m 58.74262,-1.893088 c -0.33676,-0.841564 -0.58674,-0.591587 -0.63736,0.637363 -0.0458,1.112088 0.20352,1.735165 0.55408,1.384616 0.35055,-0.35055 0.38802,-1.26044 0.0832,-2.021979 z m -55.98361,-1.474024 c 0.18652,-1.270848 -0.0772,-1.350489 -1.24968,-0.377405 -0.81736,0.678343 -1.20643,1.685872 -0.8646,2.238951 0.75898,1.228057 1.79466,0.316177 2.11428,-1.861546 z M 64.017351,49.384617 c -0.336766,-0.841564 -0.586743,-0.591588 -0.637363,0.637363 -0.04581,1.112087 0.203528,1.735164 0.554078,1.384616 0.350549,-0.35055 0.388028,-1.26044 0.08329,-2.021979 z m 37.621409,-1.430113 c -0.34358,-0.895354 -0.85094,-1.401663 -1.12747,-1.125132 -0.27653,0.276531 -0.18987,1.009093 0.19258,1.627916 1.04023,1.683124 1.64823,1.356142 0.93489,-0.502784 z m 13.35025,-2.002133 c 0,-0.255867 -0.47472,-0.758609 -1.05494,-1.117204 -0.58022,-0.358596 -1.05495,-0.14925 -1.05495,0.465212 0,0.614463 0.47473,1.117205 1.05495,1.117205 0.58022,0 1.05494,-0.209345 1.05494,-0.465213 z M 62.972825,40.371728 c -0.267475,-1.026428 -0.503908,-0.442056 -0.525407,1.298603 -0.0215,1.74066 0.197344,2.580463 0.486317,1.866232 0.288974,-0.714233 0.306564,-2.138409 0.03909,-3.164835 z m 92.824745,0.573328 c -0.33676,-0.841564 -0.58674,-0.591587 -0.63736,0.637363 -0.0458,1.112088 0.20352,1.735165 0.55408,1.384616 0.35055,-0.35055 0.38802,-1.26044 0.0832,-2.021979 z m -35.97826,-2.728415 c -1.81655,-1.739907 -1.83903,-1.717426 -0.50461,0.504614 0.76815,1.279107 1.62372,2.098573 1.90125,1.821036 0.27754,-0.277537 -0.35095,-1.324079 -1.39664,-2.32565 z m 46.86201,0.418028 c 0,-0.219066 -0.83077,-1.049835 -1.84616,-1.846154 -1.6732,-1.312216 -1.71052,-1.274902 -0.3983,0.3983 1.37815,1.757272 2.24446,2.316109 2.24446,1.447854 z M 62.940428,34.549452 c -0.292655,-0.725275 -0.532099,-0.131868 -0.532099,1.318681 0,1.45055 0.239444,2.043956 0.532099,1.318682 0.292654,-0.725275 0.292654,-1.912088 0,-2.637363 z m 15.846153,-4.153846 c -0.336765,-0.841565 -0.586742,-0.591588 -0.637363,0.637363 -0.04581,1.112087 0.203529,1.735164 0.554079,1.384615 0.350548,-0.35055 0.388028,-1.26044 0.08329,-2.021978 z M 66.429229,25.846155 c 0,-0.58022 -0.460186,-0.342857 -1.022636,0.527472 -0.56245,0.87033 -1.022636,2.057143 -1.022636,2.637363 0,0.58022 0.460186,0.342857 1.022636,-0.527472 0.56245,-0.87033 1.022636,-2.057143 1.022636,-2.637363 z m 9.241101,-0.109891 c -0.35055,-0.350548 -1.26044,-0.388027 -2.021979,-0.08329 -0.841564,0.336766 -0.591588,0.586743 0.637363,0.637363 1.112088,0.04581 1.735164,-0.203528 1.384616,-0.554078 z M 64.351648,143.1035 c 0,-0.24378 1.245264,-1.25918 2.767252,-2.25643 1.521988,-0.99724 2.444998,-1.29176 2.051136,-0.65447 -0.752656,1.21782 -4.818388,3.67403 -4.818388,2.9109 z M 74.901099,92.307696 c 0,-2.03077 0.3794,-3.692308 0.843111,-3.692308 0.463711,0 0.649136,1.661538 0.412055,3.692308 -0.237081,2.030769 -0.616481,3.692308 -0.843111,3.692308 -0.226631,0 -0.412055,-1.661539 -0.412055,-3.692308 z M 140.05626,74.15498 c 1.31225,-0.252335 3.21115,-0.242755 4.21978,0.02129 1.00862,0.264044 -0.0651,0.470501 -2.38593,0.458792 -2.32088,-0.01171 -3.14611,-0.227746 -1.83385,-0.480082 z M 99.164835,42.185854 c 0,-1.195556 3.978795,-3.411973 5.309275,-2.957567 0.53489,0.182685 -0.44087,1.140843 -2.16837,2.129242 -1.7275,0.988399 -3.140905,1.361145 -3.140905,0.828325 z"
       id="path3783"
       inkscape:connector-curvature="0" />
    <path
       style="fill:#2e2e2e;stroke-width:1.05494511"
       d="m 131.34813,152.97912 c -0.37805,-0.6117 0.0764,-0.76622 1.09916,-0.37375 4.2913,1.64674 4.90175,-7.76923 1.00252,-15.46395 -2.69298,-5.31436 -10.56611,-12.25658 -16.87838,-14.88271 -2.99393,-1.24558 -3.03428,-1.33928 -0.74724,-1.73497 2.53751,-0.43901 8.83655,-6.14327 10.76697,-9.75031 0.88961,-1.66224 0.80553,-2.11409 -0.39339,-2.11409 -0.83865,0 -4.53447,-1.42379 -8.21294,-3.164 -3.67847,-1.7402 -7.84483,-3.16438 -9.25859,-3.16483 -1.8312,-6e-4 -4.94101,2.44742 -10.813178,8.51203 -4.533503,4.68208 -8.242733,8.96636 -8.242733,9.52062 0,1.73307 4.379373,2.76532 15.104941,3.56032 5.69673,0.42225 10.12067,1.00476 9.83097,1.29445 -0.28969,0.2897 -7.50829,-0.0758 -16.041322,-0.81228 l -15.514607,-1.33902 -4.865815,5.32054 c -2.676198,2.92629 -5.717477,6.44948 -6.758397,7.82931 -1.843734,2.44405 -1.845754,2.42712 -0.07827,-0.65604 0.997874,-1.74065 3.967954,-5.41978 6.600177,-8.17582 3.83216,-4.01243 5.484386,-5.01099 8.291205,-5.01099 3.117033,0 3.386505,-0.22205 2.43255,-2.00454 -0.894788,-1.67192 -0.33204,-2.6703 3.391454,-6.01685 7.182351,-6.45525 11.302385,-12.19107 11.287995,-15.714874 -0.0127,-3.116159 -3.09726,-11.034656 -5.563067,-14.281286 -0.693371,-0.912937 0.03908,-0.327009 1.627655,1.302064 1.617672,1.658897 3.706132,5.744887 4.747252,9.287805 1.73583,5.906961 2.0685,6.326631 5.02376,6.337621 1.74066,0.006 5.70428,1.19395 8.80806,2.63883 3.10376,1.44488 6.96823,2.62705 8.58772,2.62705 2.78709,0 3.05782,-0.43707 5.0641,-8.17582 3.29526,-12.710705 3.36252,-13.137592 1.99063,-12.6333 -9.2169,3.388029 -15.45749,4.918607 -17.21803,4.222919 -1.14185,-0.451214 -3.94837,-2.914527 -6.2367,-5.474031 -2.91961,-3.265579 -3.45466,-4.278258 -1.79383,-3.395121 1.30172,0.692186 3.40858,2.667644 4.6819,4.389906 2.66476,3.604269 4.87452,3.864346 12.93188,1.522007 9.18465,-2.670048 9.52013,-3.151981 8.05416,-11.5702 -1.72676,-9.915752 -3.43009,-12.71847 -9.64291,-15.866741 l -5.29593,-2.683651 -2.85563,2.246531 c -1.5706,1.235591 -4.34749,2.869956 -6.17085,3.631922 l -3.31521,1.385392 0.55854,6.958337 0.55855,6.958337 h -4.04813 c -3.18852,0 -6.136062,1.376768 -13.880681,6.48354 -5.407897,3.565946 -10.075904,6.240175 -10.373349,5.942729 -0.297446,-0.297446 4.337372,-3.702214 10.299597,-7.566153 8.843802,-5.731402 11.376223,-6.907657 13.749583,-6.38638 2.66333,0.584965 2.90917,0.375575 2.90917,-2.477828 0,-1.714233 -0.28437,-4.538632 -0.63193,-6.276443 -0.60185,-3.009258 -0.93799,-3.187408 -7.061875,-3.742701 -5.983944,-0.542606 -6.755731,-0.350886 -11.126908,2.764051 -4.885385,3.481363 -10.715201,13.479797 -10.71692,18.380064 -4.58e-4,1.305495 -0.425564,2.373627 -0.94468,2.373627 -1.148077,0 0.0099,-5.235584 2.512111,-11.357904 1.69409,-4.145065 10.088161,-12.905833 12.365639,-12.905833 0.537629,0 0.675281,-0.952238 0.305889,-2.116085 -1.248432,-3.933463 2.480157,-13.71596 6.893083,-18.085002 2.256901,-2.234458 4.952761,-4.060876 5.990791,-4.058707 1.28797,0.0027 0.78194,0.677886 -1.59346,2.126139 -1.91443,1.167207 -3.191917,2.589609 -2.838845,3.160892 0.353075,0.571283 -0.121365,1.038696 -1.054305,1.038696 -2.127162,0 -5.758483,7.774555 -5.789711,12.395605 -0.02139,3.166318 0.239084,3.429807 3.405403,3.444726 2.60173,0.01226 3.046952,0.262775 1.846154,1.038791 -1.150203,0.743318 -0.274792,1.027049 3.205044,1.03879 5.30843,0.01791 14.36892,-3.92157 13.93782,-6.060135 -0.14506,-0.719579 0.43741,-1.308326 1.29436,-1.308326 4.39046,0 7.092,-13.955874 3.41359,-17.634278 -2.15392,-2.153918 -8.85587,-1.985452 -11.36546,0.285693 -1.13037,1.022972 -2.04579,1.318325 -2.04579,0.660058 0,-1.602628 5.60086,-4.410375 8.79778,-4.410375 6.65417,0 10.0789,9.001225 6.59614,17.336654 -0.93903,2.247411 -1.58242,4.168742 -1.42975,4.269625 0.15267,0.100884 1.74223,0.76528 3.53236,1.476439 3.68983,1.465846 9.20811,6.318938 9.79745,8.616447 0.21609,0.842384 0.91457,4.736001 1.55217,8.652485 0.63761,3.916484 1.53297,7.120879 1.98968,7.120879 0.45672,0 0.4057,0.83077 -0.11337,1.846154 -0.51908,1.015385 -1.98544,6.093711 -3.25858,11.285169 -3.26473,13.31252 -6.49885,18.98816 -13.74959,24.12949 -2.37443,1.68365 -2.45828,1.97283 -0.8411,2.90057 4.80869,2.75865 11.12067,8.3479 13.91122,12.31837 5.04944,7.18448 5.08065,19.25651 0.0498,19.25651 -0.76503,0 -1.68102,-0.46929 -2.0355,-1.04286 z m -72.840984,-8.5201 c -2.024306,-3.27539 2.924437,-14.79067 8.651485,-20.13122 3.539304,-3.30045 10.68152,-7.22889 13.142677,-7.22889 1.5217,0 1.414385,-0.80404 -0.858291,-6.43062 -1.428592,-3.53683 -2.807371,-8.16541 -3.063956,-10.28571 -0.385024,-3.181688 -0.199249,-2.933705 1.063507,1.41962 2.404461,8.28934 5.85387,15.29671 7.529874,15.29671 0.843178,0 1.533052,0.42955 1.533052,0.95455 0,0.52502 -1.78022,0.74052 -3.956044,0.4789 -5.470337,-0.65772 -13.776445,4.2855 -18.398672,10.94962 -2.859362,4.1225 -3.484943,6.01634 -3.487871,10.55886 -0.0035,5.34207 -0.701093,6.77189 -2.155761,4.41818 z m 69.917184,-2.31184 -1.86139,-3.4219 2.12512,2.49049 c 1.80832,2.11923 2.77481,4.38309 1.86139,4.35999 -0.14505,-0.003 -1.10136,-1.54653 -2.12512,-3.42858 z m -64.072682,0.95632 c 0,-0.24378 1.245264,-1.25918 2.767252,-2.25643 1.521988,-0.99724 2.444998,-1.29176 2.051136,-0.65447 -0.752656,1.21782 -4.818388,3.67403 -4.818388,2.9109 z M 121.08,133.23963 c -4.0757,-4.07569 -5.85699,-5.08331 -10.0081,-5.66124 l -5.04992,-0.70307 4.57629,-0.14096 c 4.1929,-0.12914 5.07671,0.34337 10.54945,5.63999 3.28523,3.17951 5.72955,5.7905 5.4318,5.8022 -0.29773,0.0117 -2.77253,-2.20992 -5.49952,-4.93692 z M 74.901099,92.307696 c 0,-2.03077 0.3794,-3.692308 0.843111,-3.692308 0.463711,0 0.649136,1.661538 0.412055,3.692308 -0.237081,2.030769 -0.616481,3.692308 -0.843111,3.692308 -0.226631,0 -0.412055,-1.661539 -0.412055,-3.692308 z M 140.05626,74.15498 c 1.31225,-0.252335 3.21115,-0.242755 4.21978,0.02129 1.00862,0.264044 -0.0651,0.470501 -2.38593,0.458792 -2.32088,-0.01171 -3.14611,-0.227746 -1.83385,-0.480082 z m 10.27341,-1.509413 c 2.32088,-0.53605 6.46764,-2.620945 9.21502,-4.633099 6.88254,-5.040698 10.56343,-10.914607 11.09317,-17.702338 0.3759,-4.816322 0.0378,-5.997972 -2.81081,-9.822473 -3.14104,-4.217189 -9.16685,-8.167493 -10.86128,-7.120273 -0.45865,0.283458 -0.8339,1.427172 -0.8339,2.541586 0,3.867438 -3.46465,19.492712 -5.02016,22.640483 -2.98394,6.038383 -4.32318,6.872547 -10.70379,6.666991 l -5.90243,-0.190152 5.27473,-0.404262 c 8.86897,-0.679731 11.52042,-4.976736 14.23488,-23.069376 0.68669,-4.577036 1.4255,-8.906188 1.64178,-9.620338 0.67209,-2.219196 9.00923,2.965224 12.8229,7.973872 6.06136,7.960654 4.07354,17.677217 -5.39523,26.372065 -5.33054,4.894848 -10.68865,7.636932 -14.56715,7.454927 -1.47081,-0.06903 -0.76572,-0.492179 1.81227,-1.087613 z M 76.02473,67.950159 C 73.45152,67.142971 69.998601,65.191497 68.35158,63.61355 65.434092,60.818419 62.180326,52.458751 62.302571,48.072264 c 0.03345,-1.200184 0.891638,1.002703 1.907089,4.895302 2.193374,8.408017 4.048178,10.710153 10.556895,13.102955 2.684988,0.987084 5.332785,2.190958 5.883994,2.675276 1.188771,1.044511 1.302935,1.064147 -4.625819,-0.795638 z m 4.808893,-7.331599 c -1.018,-2.652864 -0.717691,-3.337377 0.525926,-1.198774 0.615761,1.058902 0.897334,2.147508 0.625719,2.419124 -0.271615,0.271615 -0.789856,-0.277543 -1.151645,-1.22035 z m -1.546174,-5.761415 c 0,-1.45055 0.239444,-2.043956 0.5321,-1.318681 0.292654,0.725274 0.292654,1.912088 0,2.637362 -0.292656,0.725275 -0.5321,0.131868 -0.5321,-1.318681 z m 26.760661,-1.097229 c 0.34423,-0.556964 1.19125,-1.015586 1.88228,-1.019161 0.69104,-0.0036 2.6806,-0.74269 4.42126,-1.642479 2.46187,-1.272602 2.81336,-1.301936 1.58242,-0.132065 -1.91033,1.815554 -8.78707,4.251731 -7.88596,2.793705 z M 78.331973,46.945057 c 0.01171,-2.32088 0.227747,-3.146113 0.480082,-1.833855 0.252336,1.31226 0.242756,3.211161 -0.02129,4.219781 -0.264045,1.00862 -0.470502,-0.06505 -0.458792,-2.385926 z m -16.94698,-8.175825 c 0.460442,-6.837986 5.394854,-19.78022 7.541492,-19.78022 0.712488,0 0.659916,0.46195 -0.144068,1.265934 -1.988628,1.988628 -1.524864,2.73409 2.162638,3.476257 6.260247,1.259971 7.234806,1.749777 8.121433,4.081783 0.483829,1.27257 0.480735,5.148432 -0.0069,8.613026 L 78.173,42.725276 78.539501,36.213243 c 0.451837,-8.028297 -1.159502,-10.894561 -6.124639,-10.894561 -1.881824,0 -3.940496,-0.518997 -4.574827,-1.153328 -1.851924,-1.851924 -5.842885,10.070384 -5.418538,16.186952 0.191229,2.756405 -0.06366,5.01135 -0.566415,5.010989 -0.502757,-3.61e-4 -0.714317,-2.967689 -0.470132,-6.594063 z"
       id="path3781"
       inkscape:connector-curvature="0" />
    <path
       style="fill:#090909;stroke-width:1.05494511"
       d="m 131.86813,153.61755 c 0,-0.22244 0.95011,-0.65288 2.11135,-0.95656 1.16124,-0.30367 1.84531,-0.12168 1.52015,0.40443 -0.56782,0.91877 -3.6315,1.38455 -3.6315,0.55213 z m 4.30307,-4.43073 c 0.0506,-1.22896 0.3006,-1.47893 0.63736,-0.63736 0.30474,0.76153 0.26727,1.67142 -0.0832,2.02198 -0.35056,0.35055 -0.59988,-0.27254 -0.55408,-1.38462 z m 0.0833,-5.71429 c 0,-1.45055 0.23945,-2.04395 0.5321,-1.31868 0.29265,0.72528 0.29265,1.91209 0,2.63736 -0.29265,0.72528 -0.5321,0.13187 -0.5321,-1.31868 z m -77.868465,-0.57297 c -0.34358,-0.89535 -0.388972,-1.86363 -0.100874,-2.15173 0.288099,-0.2881 0.777028,0.44446 1.086508,1.62792 0.657389,2.51386 -0.07302,2.90204 -0.985634,0.52381 z m 0.774193,-5.31713 c 0.05062,-1.22896 0.300597,-1.47893 0.637363,-0.63737 0.304743,0.76153 0.267264,1.67142 -0.08329,2.02198 -0.35055,0.35055 -0.599885,-0.27253 -0.554079,-1.38461 z m 69.463242,-7.56045 -2.55752,-2.9011 2.9011,2.55752 c 1.59561,1.40664 2.9011,2.71214 2.9011,2.9011 0,0.82737 -0.85429,0.154 -3.24468,-2.55752 z m -50.557516,-2.9011 c 1.968298,-2.03077 3.816088,-3.6923 4.106198,-3.6923 0.29011,0 -1.082955,1.66153 -3.051253,3.6923 -1.968299,2.03077 -3.816089,3.69231 -4.106199,3.69231 -0.29011,0 1.082955,-1.66154 3.051254,-3.69231 z M 66.13473,125.4225 c 1.270806,-1.38677 3.881795,-3.426 5.802198,-4.53162 4.391654,-2.52838 3.801418,-1.88447 -2.838027,3.09615 -3.106851,2.33062 -4.325104,2.92059 -2.964171,1.43547 z m 45.49164,1.50521 c 0.76154,-0.30474 1.67143,-0.26727 2.02198,0.0832 0.35055,0.35056 -0.27253,0.59988 -1.38461,0.55408 -1.22896,-0.0506 -1.47893,-0.3006 -0.63737,-0.63736 z m -22.659338,-5.0648 c 0,-0.9725 0.432988,-1.226 1.142858,-0.66913 0.628571,0.4931 1.854945,1.16018 2.725274,1.48239 0.943138,0.34916 0.481435,0.61948 -1.142856,0.66912 -1.743625,0.0533 -2.725276,-0.48067 -2.725276,-1.48238 z m 27.076928,-0.0168 -2.63737,-1.50766 2.55447,-0.0373 c 1.62126,-0.0237 4.22266,-1.77842 7.12088,-4.80317 4.70886,-4.91444 5.59877,-6.83861 3.16279,-6.83861 -0.772,0 -3.73904,-1.19217 -6.59341,-2.64925 -2.85438,-1.45708 -7.01117,-2.94851 -9.23729,-3.31429 -3.95509,-0.64986 -4.25016,-0.46345 -12.923077,8.16442 -4.881563,4.8562 -8.875569,8.30288 -8.875569,7.65928 0,-0.6436 1.609966,-2.39817 3.577702,-3.89903 1.967736,-1.50087 5.349716,-5.14281 7.515511,-8.09321 3.551483,-4.83809 3.883653,-5.84488 3.385773,-10.262044 -0.39407,-3.496112 -0.2582,-4.3726 0.47478,-3.062842 0.56475,1.009154 1.11031,3.356949 1.21235,5.217322 0.17891,3.261794 0.35494,3.386074 4.93279,3.482834 2.61098,0.0552 6.74592,1.12331 9.18874,2.37362 2.44282,1.25032 5.78921,2.2733 7.43642,2.2733 2.42869,0 3.22252,-0.64824 4.19864,-3.42858 1.91602,-5.45749 4.65522,-16.806683 4.17283,-17.289071 -0.24215,-0.242157 -1.72384,0.04773 -3.29263,0.644175 -1.56879,0.596453 -3.41484,1.046982 -4.10235,1.001176 -0.6875,-0.04581 0.17417,-0.584275 1.91483,-1.196596 4.60916,-1.621389 5.8022,-2.857616 5.8022,-6.012265 0,-4.937802 -3.19045,-15.273258 -5.5607,-18.013889 l -2.29188,-2.650042 2.82696,2.637363 c 3.20733,2.992234 6.11935,12.460626 6.2187,20.220032 0.0787,6.14388 -4.67995,22.968577 -7.9707,28.181457 -1.3567,2.14916 -4.20852,5.43686 -6.33739,7.30604 -2.12885,1.86916 -3.5813,3.86667 -3.22765,4.43889 0.82748,1.3389 0.54152,1.28033 -2.64635,-0.54202 z M 80.296792,117.4541 c 1.504163,-0.40175 1.401953,-1.20124 -0.873914,-6.83572 -1.417515,-3.50941 -2.762547,-8.11555 -2.988959,-10.23585 -0.226412,-2.120308 -0.158992,-2.905653 0.149822,-1.745214 2.144423,8.058144 5.206575,15.856244 6.885826,17.535494 1.938013,1.93802 1.906613,1.97833 -1.447589,1.85862 -1.885715,-0.0673 -2.662048,-0.32711 -1.725186,-0.57733 z M 75.067669,93.890113 c 0,-1.450549 0.239444,-2.043956 0.5321,-1.318681 0.292654,0.725275 0.292654,1.912088 0,2.637363 -0.292656,0.725275 -0.5321,0.131868 -0.5321,-1.318682 z M 89.106911,83.705464 c 8.015329,-5.360008 11.318469,-6.988948 13.969969,-6.889269 3.14354,0.118178 3.47257,-0.153787 3.47257,-2.870294 0,-1.650464 -0.28437,-4.422688 -0.63193,-6.160499 -0.60218,-3.010889 -0.93745,-3.188061 -7.12088,-3.762973 -5.817366,-0.540877 -6.90664,-0.316125 -10.524766,2.171599 -2.2197,1.526205 -5.013788,3.990971 -6.209084,5.477259 -1.195296,1.486288 -1.952553,1.990254 -1.682794,1.119925 0.269758,-0.87033 2.909847,-3.481319 5.866866,-5.802199 2.957017,-2.320879 5.411712,-4.717862 5.454876,-5.326627 0.04556,-0.642668 1.676048,-0.920341 3.887912,-0.662119 2.645493,0.308847 3.370733,0.722681 2.373627,1.354431 -0.924191,0.58555 0.322689,0.915456 3.499273,0.925853 l 4.93508,0.01615 0.7228,5.78512 c 0.95282,7.626097 0.3247,8.984111 -4.15543,8.984111 -2.69656,0 -6.148803,1.654261 -13.20925,6.329671 -5.257223,3.481318 -9.915808,6.32967 -10.352412,6.32967 -0.436604,0 3.930004,-3.158917 9.703573,-7.019814 z m 11.708169,5.219158 c -0.5725,-1.503506 -0.45133,-1.624681 0.59055,-0.590553 0.72097,0.715605 1.0451,1.566848 0.7203,1.891651 -0.3248,0.324805 -0.91469,-0.260689 -1.31085,-1.301098 z m 9.91006,-4.161318 c -2.58674,-2.698865 -3.51635,-4.044045 -2.0658,-2.989288 2.47904,1.80261 8.00222,7.896317 7.15703,7.896317 -0.21343,0 -2.50449,-2.208163 -5.09123,-4.907029 z m -34.602526,0.687249 c 0,-1.45055 0.239444,-2.043956 0.5321,-1.318682 0.292654,0.725275 0.292654,1.912088 0,2.637363 -0.292656,0.725275 -0.5321,0.131868 -0.5321,-1.318681 z m 21.852712,-0.791209 c -1.312215,-1.673202 -1.274902,-1.710516 0.3983,-0.3983 1.757274,1.378148 2.316114,2.244454 1.447854,2.244454 -0.219066,0 -1.049835,-0.83077 -1.846154,-1.846154 z M 77.10129,81.230772 c -0.0319,-0.870329 0.402193,-2.294505 0.964644,-3.164835 1.24623,-1.928404 1.24623,-0.262771 0,2.637363 -0.597819,1.391198 -0.926406,1.570871 -0.964644,0.527472 z m 62.41519,-7.056871 c 1.01539,-0.265348 2.67693,-0.265348 3.69231,0 1.01539,0.265348 0.18462,0.48245 -1.84615,0.48245 -2.03077,0 -2.86154,-0.217102 -1.84616,-0.48245 z m 9.03297,-1.048392 c 0.76153,-0.304743 1.67142,-0.267264 2.02198,0.08329 0.35055,0.35055 -0.27253,0.599885 -1.38461,0.554078 -1.22896,-0.05062 -1.47893,-0.300597 -0.63737,-0.637363 z m 14.96703,-8.246386 c 1.9683,-2.030769 3.81609,-3.692308 4.1062,-3.692308 0.29011,0 -1.08296,1.661539 -3.05125,3.692308 -1.9683,2.03077 -3.81609,3.692308 -4.1062,3.692308 -0.29011,0 1.08296,-1.661538 3.05125,-3.692308 z M 67.520391,62.773393 C 66.15982,61.325131 65.2463,59.963516 65.490345,59.747582 c 0.244047,-0.215934 1.547959,0.969006 2.897584,2.633203 3.020295,3.724265 2.48849,3.964936 -0.867538,0.392608 z m 73.513779,1.670276 c 6.18198,-0.752013 5.66417,-0.430459 8.64236,-5.366744 1.22522,-2.030769 2.22945,-3.20453 2.23161,-2.608358 0.005,1.414453 -3.0233,5.939565 -5.09928,7.619347 -0.89634,0.725275 -3.79392,1.251842 -6.43906,1.170148 l -4.80936,-0.148534 z m -27.88588,-4.328851 c 1.59859,-1.252203 2.63871,-2.710081 2.31136,-3.23973 -0.32734,-0.529649 0.32302,-0.962998 1.44523,-0.962998 1.25197,0 2.69346,-1.324807 3.73054,-3.428572 0.92959,-1.885714 1.70098,-2.761293 1.71418,-1.945731 0.0382,2.35734 -4.682,7.836539 -8.55678,9.932714 l -3.55106,1.921049 z m 11.33523,-1.037893 c -0.95082,-0.614463 -1.08093,-1.029084 -0.326,-1.03879 0.69103,-0.0089 1.54982,0.45857 1.90841,1.03879 0.80946,1.309741 0.44426,1.309741 -1.58241,0 z m 44.39239,-1.054945 c 1.53791,-3.229221 2.02519,-3.827698 2.02519,-2.487345 0,0.566025 -0.73827,1.950641 -1.64062,3.076922 -1.54694,1.930873 -1.5689,1.897212 -0.38457,-0.589577 z M 91.796374,55.824178 c 0.0089,-1.402198 0.482946,-3.261539 1.05347,-4.131868 0.729805,-1.11331 0.836463,-0.487833 0.359786,2.10989 -0.83487,4.549752 -1.434711,5.407957 -1.413256,2.021978 z M 63.379988,54.241761 c 0.05062,-1.228951 0.300597,-1.478928 0.637363,-0.637363 0.304743,0.761538 0.267264,1.671428 -0.08329,2.021978 -0.35055,0.350549 -0.599885,-0.272528 -0.554078,-1.384615 z m 88.615392,-1.054945 c 0.0506,-1.228951 0.30059,-1.478928 0.63735,-0.637363 0.30474,0.761538 0.26727,1.671428 -0.0832,2.021978 -0.35056,0.350549 -0.59989,-0.272528 -0.55408,-1.384615 z m 19.17175,-4.131869 c 0.0117,-2.320879 0.22776,-3.146113 0.48009,-1.833854 0.25233,1.312259 0.24275,3.211161 -0.0213,4.21978 -0.26402,1.00862 -0.47049,-0.06505 -0.45878,-2.385926 z M 62.408329,48.527474 c 0,-1.450549 0.239444,-2.043956 0.532099,-1.318681 0.292654,0.725275 0.292654,1.912088 0,2.637363 -0.292655,0.725274 -0.532099,0.131868 -0.532099,-1.318682 z m 15.824175,-1.054945 c 0,-1.450549 0.239444,-2.043956 0.5321,-1.318681 0.292654,0.725275 0.292654,1.912088 0,2.637363 -0.292656,0.725274 -0.5321,0.131868 -0.5321,-1.318682 z m 15.657605,1.21888 c 0,-1.508748 2.811973,-4.678015 3.784299,-4.265139 0.529625,0.224893 -0.105178,1.460065 -1.410672,2.744827 -1.305495,1.28476 -2.373627,1.968902 -2.373627,1.520312 z M 153.05032,47.91209 c 0.0506,-1.228951 0.3006,-1.478927 0.63736,-0.637363 0.30474,0.761539 0.26727,1.671429 -0.0832,2.021978 -0.35056,0.350549 -0.59988,-0.272528 -0.55408,-1.384615 z m -30.47103,-2.021978 c 0.0215,-1.74066 0.25793,-2.325032 0.5254,-1.298604 0.26747,1.026427 0.24989,2.450603 -0.039,3.164835 -0.28903,0.714232 -0.50787,-0.125572 -0.48637,-1.866231 z m 31.64835,-3.164836 c 0.0215,-1.740659 0.25793,-2.325031 0.5254,-1.298603 0.26747,1.026426 0.24989,2.450602 -0.0391,3.164835 -0.28893,0.714232 -0.50777,-0.125572 -0.48627,-1.866232 z m -92.739098,-4.21978 c 0.0079,-2.901099 0.212796,-3.962704 0.455279,-2.359121 0.242485,1.603582 0.236004,3.977208 -0.0144,5.274725 -0.250403,1.297516 -0.448798,-0.0145 -0.440879,-2.915604 z m 59.289088,1.392184 c -0.57275,-1.26507 -2.70291,-2.890492 -4.73367,-3.61205 -2.36765,-0.841255 -2.93536,-1.33514 -1.58242,-1.376632 3.20581,-0.09832 7.06219,2.261673 8.03175,4.915179 1.11357,3.047636 -0.34093,3.109949 -1.71566,0.0735 z m 45.76912,-1.563147 c -0.79632,-0.964361 -2.87203,-2.624125 -4.61268,-3.688365 -1.74066,-1.064241 -2.56446,-1.936758 -1.83066,-1.938927 1.32538,-0.0039 9.81966,7.297525 8.55323,7.352128 -0.36411,0.0157 -1.31357,-0.760477 -2.10989,-1.724836 z m -57.11379,-1.542361 c 0.71561,-0.720968 1.56685,-1.045103 1.89166,-0.720299 0.3248,0.324804 -0.26069,0.914688 -1.3011,1.310852 -1.50351,0.572503 -1.62468,0.451328 -0.59056,-0.590553 z m 45.96107,-1.795449 c 0.0791,-1.929825 0.51491,-3.738061 0.96834,-4.018304 1.00704,-0.622386 0.90604,1.360435 -0.24906,4.889714 -0.78641,2.402755 -0.85039,2.325238 -0.71928,-0.87141 z M 77.88372,27.409406 c -0.221096,-0.663289 -2.050766,-1.593816 -4.065933,-2.067839 -3.054237,-0.71844 -3.214731,-0.879828 -0.964474,-0.969845 2.88054,-0.115228 7.245843,2.430223 6.112061,3.564004 -0.373813,0.373813 -0.860557,0.136968 -1.081654,-0.52632 z M 64.38903,27.112448 c -0.03929,-0.886642 2.983167,-7.068491 3.455957,-7.068491 0.150877,0 0.274322,0.926844 0.274322,2.059655 0,1.132809 -0.229646,1.830009 -0.510324,1.54933 -0.280679,-0.280679 -1.111581,0.572697 -1.846448,1.896389 -0.734869,1.323693 -1.352946,2.027095 -1.373507,1.563117 z"
       id="path3779"
       inkscape:connector-curvature="0" />
  </g>
  <path
     style="fill:none;stroke:#000000;stroke-width:1px;stroke-linecap:butt;stroke-linejoin:miter;stroke-opacity:1"
     d="m 100.25828,46.834286 c 0.026,0.103868 0.0603,0.205996 0.0779,0.311604 0.0163,0.09792 0,0.28061 0,0.389503 0,0.233703 0,0.467405 0,0.701107 0,0.137118 -0.0644,0.155802 0.0779,0.155802"
     id="path3797"
     inkscape:connector-curvature="0" />
  <path
     style="fill:none;stroke:#000000;stroke-width:1px;stroke-linecap:butt;stroke-linejoin:miter;stroke-opacity:1"
     d="m 113.034,44.964668 c 0.0223,-0.367227 -0.29769,0.09181 -0.3895,0 -0.0184,-0.01836 0.0184,-0.05954 0,-0.0779 -0.0184,-0.01836 -0.0779,0.02597 -0.0779,0 0,-0.02597 0.0519,0 0.0779,0 0.026,0 0.0524,-0.0051 0.0779,0 0.57844,0.115689 0.0362,0.0779 0.77901,0.0779"
     id="path3799"
     inkscape:connector-curvature="0" />
</svg>
