<?xml version="1.0" encoding="UTF-8" standalone="no"?><svg xmlns="http://www.w3.org/2000/svg" xmlns:xlink="http://www.w3.org/1999/xlink" contentScriptType="application/ecmascript" contentStyleType="text/css" height="729px" preserveAspectRatio="none" style="width:2967px;height:729px;" version="1.1" viewBox="0 0 2967 729" width="2967px" zoomAndPan="magnify"><defs><filter height="300%" id="fmff8k723hom0" width="300%" x="-1" y="-1"><feGaussianBlur result="blurOut" stdDeviation="2.0"/><feColorMatrix in="blurOut" result="blurOut2" type="matrix" values="0 0 0 0 0 0 0 0 0 0 0 0 0 0 0 0 0 0 .4 0"/><feOffset dx="4.0" dy="4.0" in="blurOut2" result="blurOut3"/><feBlend in="SourceGraphic" in2="blurOut3" mode="normal"/></filter></defs><g><!--MD5=[552dc1abada32b1139fee4676f830162]
cluster Events--><polygon fill="#FFFFFF" filter="url(#fmff8k723hom0)" points="959,297,1018,297,1025,319.2969,2072,319.2969,2072,722,959,722,959,297" style="stroke:#000000;stroke-width:1.5;"/><line style="stroke:#000000;stroke-width:1.5;" x1="959" x2="1025" y1="319.2969" y2="319.2969"/><text fill="#000000" font-family="sans-serif" font-size="14" font-weight="bold" lengthAdjust="spacingAndGlyphs" textLength="53" x="963" y="311.9951">Events</text><!--MD5=[e320b41f2d43b11d6de1346cab4ea5fc]
cluster View--><polygon fill="#FFFFFF" filter="url(#fmff8k723hom0)" points="2104,6,2149,6,2156,28.2969,2950,28.2969,2950,429.5,2104,429.5,2104,6" style="stroke:#000000;stroke-width:1.5;"/><line style="stroke:#000000;stroke-width:1.5;" x1="2104" x2="2156" y1="28.2969" y2="28.2969"/><text fill="#000000" font-family="sans-serif" font-size="14" font-weight="bold" lengthAdjust="spacingAndGlyphs" textLength="39" x="2108" y="20.9951">View</text><!--MD5=[15636c1ca4a123c16a2a1a8e90aca7a9]
cluster Model--><polygon fill="#FFFFFF" filter="url(#fmff8k723hom0)" points="16,13.5,69,13.5,76,35.7969,919,35.7969,919,450,16,450,16,13.5" style="stroke:#000000;stroke-width:1.5;"/><line style="stroke:#000000;stroke-width:1.5;" x1="16" x2="76" y1="35.7969" y2="35.7969"/><text fill="#000000" font-family="sans-serif" font-size="14" font-weight="bold" lengthAdjust="spacingAndGlyphs" textLength="47" x="20" y="28.4951">Model</text><!--MD5=[cbb8d5d351f00e4340f350ee047d1d83]
class TrackableTurtle--><rect codeLine="10" fill="#FEFECE" filter="url(#fmff8k723hom0)" height="112.0234" id="TrackableTurtle" style="stroke:#A80036;stroke-width:1.5;" width="324" x="991" y="486"/><ellipse cx="1100.25" cy="502" fill="#B4A7E5" rx="11" ry="11" style="stroke:#A80036;stroke-width:1.0;"/><path d="M1096.1719,497.7656 L1096.1719,495.6094 L1103.5625,495.6094 L1103.5625,497.7656 L1101.0938,497.7656 L1101.0938,505.8438 L1103.5625,505.8438 L1103.5625,508 L1096.1719,508 L1096.1719,505.8438 L1098.6406,505.8438 L1098.6406,497.7656 L1096.1719,497.7656 Z " fill="#000000"/><text fill="#000000" font-family="sans-serif" font-size="12" font-style="italic" lengthAdjust="spacingAndGlyphs" textLength="97" x="1120.75" y="506.1543">TrackableTurtle</text><line style="stroke:#A80036;stroke-width:1.5;" x1="992" x2="1314" y1="518" y2="518"/><line style="stroke:#A80036;stroke-width:1.5;" x1="992" x2="1314" y1="526" y2="526"/><ellipse cx="1002" cy="537" fill="#84BE84" rx="3" ry="3" style="stroke:#038048;stroke-width:1.0;"/><text fill="#000000" font-family="sans-serif" font-size="11" lengthAdjust="spacingAndGlyphs" textLength="241" x="1011" y="540.2104">setOnTurtleUpdate(UpdateTurtle callback);</text><ellipse cx="1002" cy="549.8047" fill="#84BE84" rx="3" ry="3" style="stroke:#038048;stroke-width:1.0;"/><text fill="#000000" font-family="sans-serif" font-size="11" lengthAdjust="spacingAndGlyphs" textLength="267" x="1011" y="553.0151">setOnVariableUpdate(UpdateVariable callback);</text><ellipse cx="1002" cy="562.6094" fill="#84BE84" rx="3" ry="3" style="stroke:#038048;stroke-width:1.0;"/><text fill="#000000" font-family="sans-serif" font-size="11" lengthAdjust="spacingAndGlyphs" textLength="298" x="1011" y="565.8198">setOnCommandUpdate(UpdateCommands callback);</text><ellipse cx="1002" cy="575.4141" fill="#84BE84" rx="3" ry="3" style="stroke:#038048;stroke-width:1.0;"/><text fill="#000000" font-family="sans-serif" font-size="11" lengthAdjust="spacingAndGlyphs" textLength="243" x="1011" y="578.6245">parseCommand(String command) : double</text><ellipse cx="1002" cy="588.2188" fill="#84BE84" rx="3" ry="3" style="stroke:#038048;stroke-width:1.0;"/><text fill="#000000" font-family="sans-serif" font-size="11" lengthAdjust="spacingAndGlyphs" textLength="228" x="1011" y="591.4292">parseCommand(File command) : double</text><path d="M1039,340 L1039,425.6641 A0,0 0 0 0 1039,425.6641 L1149,425.6641 L1153,485.8 L1157,425.6641 L1267,425.6641 A0,0 0 0 0 1267,425.6641 L1267,350 L1257,340 L1039,340 A0,0 0 0 0 1039,340 " fill="#FBFB77" filter="url(#fmff8k723hom0)" style="stroke:#A80036;stroke-width:1.0;"/><path d="M1257,340 L1257,350 L1267,350 L1257,340 " fill="#FBFB77" style="stroke:#A80036;stroke-width:1.0;"/><text fill="#000000" font-family="sans-serif" font-size="13" lengthAdjust="spacingAndGlyphs" textLength="168" x="1045" y="357.0669">The trackable interface will</text><text fill="#000000" font-family="sans-serif" font-size="13" lengthAdjust="spacingAndGlyphs" textLength="181" x="1045" y="372.1997">define a class internal to the</text><text fill="#000000" font-family="sans-serif" font-size="13" lengthAdjust="spacingAndGlyphs" textLength="206" x="1045" y="387.3325">model which represents a turtle.</text><text fill="#000000" font-family="sans-serif" font-size="13" lengthAdjust="spacingAndGlyphs" textLength="207" x="1045" y="402.4653">This interface defines how a view</text><text fill="#000000" font-family="sans-serif" font-size="13" lengthAdjust="spacingAndGlyphs" textLength="165" x="1045" y="417.5981">can observe the changes.</text><path d="M1011.5,658 L1011.5,698.2656 A0,0 0 0 0 1011.5,698.2656 L1294.5,698.2656 A0,0 0 0 0 1294.5,698.2656 L1294.5,668 L1284.5,658 L1157,658 L1153,598.28 L1149,658 L1011.5,658 A0,0 0 0 0 1011.5,658 " fill="#FBFB77" filter="url(#fmff8k723hom0)" style="stroke:#A80036;stroke-width:1.0;"/><path d="M1284.5,658 L1284.5,668 L1294.5,668 L1284.5,658 " fill="#FBFB77" style="stroke:#A80036;stroke-width:1.0;"/><text fill="#000000" font-family="sans-serif" font-size="13" lengthAdjust="spacingAndGlyphs" textLength="262" x="1017.5" y="675.0669">One possible change is to create a single</text><text fill="#000000" font-family="sans-serif" font-size="13" lengthAdjust="spacingAndGlyphs" textLength="222" x="1017.5" y="690.1997">interface that has all the callbacks.</text><!--MD5=[127c0bf9d5b22241e4ccdf18661fbe4f]
class UpdateTurtle--><rect codeLine="23" fill="#FEFECE" filter="url(#fmff8k723hom0)" height="60.8047" id="UpdateTurtle" style="stroke:#A80036;stroke-width:1.5;" width="143" x="1395.5" y="352.5"/><ellipse cx="1423.55" cy="368.5" fill="#B4A7E5" rx="11" ry="11" style="stroke:#A80036;stroke-width:1.0;"/><path d="M1419.4719,364.2656 L1419.4719,362.1094 L1426.8625,362.1094 L1426.8625,364.2656 L1424.3938,364.2656 L1424.3938,372.3438 L1426.8625,372.3438 L1426.8625,374.5 L1419.4719,374.5 L1419.4719,372.3438 L1421.9406,372.3438 L1421.9406,364.2656 L1419.4719,364.2656 Z " fill="#000000"/><text fill="#000000" font-family="sans-serif" font-size="12" font-style="italic" lengthAdjust="spacingAndGlyphs" textLength="82" x="1440.45" y="372.6543">UpdateTurtle</text><line style="stroke:#A80036;stroke-width:1.5;" x1="1396.5" x2="1537.5" y1="384.5" y2="384.5"/><line style="stroke:#A80036;stroke-width:1.5;" x1="1396.5" x2="1537.5" y1="392.5" y2="392.5"/><ellipse cx="1406.5" cy="403.5" fill="#84BE84" rx="3" ry="3" style="stroke:#038048;stroke-width:1.0;"/><text fill="#000000" font-family="sans-serif" font-size="11" lengthAdjust="spacingAndGlyphs" textLength="117" x="1415.5" y="406.7104">execute(TurtleInfo e)</text><!--MD5=[849e9af05bb26f66384182859f5ff325]
class UpdateCommands--><rect codeLine="27" fill="#FEFECE" filter="url(#fmff8k723hom0)" height="60.8047" id="UpdateCommands" style="stroke:#A80036;stroke-width:1.5;" width="175" x="1573.5" y="352.5"/><ellipse cx="1601.55" cy="368.5" fill="#B4A7E5" rx="11" ry="11" style="stroke:#A80036;stroke-width:1.0;"/><path d="M1597.4719,364.2656 L1597.4719,362.1094 L1604.8625,362.1094 L1604.8625,364.2656 L1602.3938,364.2656 L1602.3938,372.3438 L1604.8625,372.3438 L1604.8625,374.5 L1597.4719,374.5 L1597.4719,372.3438 L1599.9406,372.3438 L1599.9406,364.2656 L1597.4719,364.2656 Z " fill="#000000"/><text fill="#000000" font-family="sans-serif" font-size="12" font-style="italic" lengthAdjust="spacingAndGlyphs" textLength="114" x="1618.45" y="372.6543">UpdateCommands</text><line style="stroke:#A80036;stroke-width:1.5;" x1="1574.5" x2="1747.5" y1="384.5" y2="384.5"/><line style="stroke:#A80036;stroke-width:1.5;" x1="1574.5" x2="1747.5" y1="392.5" y2="392.5"/><ellipse cx="1584.5" cy="403.5" fill="#84BE84" rx="3" ry="3" style="stroke:#038048;stroke-width:1.0;"/><text fill="#000000" font-family="sans-serif" font-size="11" lengthAdjust="spacingAndGlyphs" textLength="149" x="1593.5" y="406.7104">execute(CommandsInfo e)</text><!--MD5=[7c2e74d6b2c3697d8333153d0b1fea61]
class UpdateVariables--><rect codeLine="31" fill="#FEFECE" filter="url(#fmff8k723hom0)" height="60.8047" id="UpdateVariables" style="stroke:#A80036;stroke-width:1.5;" width="163" x="1783.5" y="352.5"/><ellipse cx="1811.1" cy="368.5" fill="#B4A7E5" rx="11" ry="11" style="stroke:#A80036;stroke-width:1.0;"/><path d="M1807.0219,364.2656 L1807.0219,362.1094 L1814.4125,362.1094 L1814.4125,364.2656 L1811.9438,364.2656 L1811.9438,372.3438 L1814.4125,372.3438 L1814.4125,374.5 L1807.0219,374.5 L1807.0219,372.3438 L1809.4906,372.3438 L1809.4906,364.2656 L1807.0219,364.2656 Z " fill="#000000"/><text fill="#000000" font-family="sans-serif" font-size="12" font-style="italic" lengthAdjust="spacingAndGlyphs" textLength="103" x="1827.9" y="372.6543">UpdateVariables</text><line style="stroke:#A80036;stroke-width:1.5;" x1="1784.5" x2="1945.5" y1="384.5" y2="384.5"/><line style="stroke:#A80036;stroke-width:1.5;" x1="1784.5" x2="1945.5" y1="392.5" y2="392.5"/><ellipse cx="1794.5" cy="403.5" fill="#84BE84" rx="3" ry="3" style="stroke:#038048;stroke-width:1.0;"/><text fill="#000000" font-family="sans-serif" font-size="11" lengthAdjust="spacingAndGlyphs" textLength="137" x="1803.5" y="406.7104">execute(VariablesInfo e)</text><!--MD5=[433a7a862f07798050e8b415e0a1cee8]
class VariablesInfo--><rect codeLine="35" fill="#FEFECE" filter="url(#fmff8k723hom0)" height="60.8047" id="VariablesInfo" style="stroke:#A80036;stroke-width:1.5;" width="234" x="1350" y="511.5"/><ellipse cx="1422.25" cy="527.5" fill="#B4A7E5" rx="11" ry="11" style="stroke:#A80036;stroke-width:1.0;"/><path d="M1418.1719,523.2656 L1418.1719,521.1094 L1425.5625,521.1094 L1425.5625,523.2656 L1423.0938,523.2656 L1423.0938,531.3438 L1425.5625,531.3438 L1425.5625,533.5 L1418.1719,533.5 L1418.1719,531.3438 L1420.6406,531.3438 L1420.6406,523.2656 L1418.1719,523.2656 Z " fill="#000000"/><text fill="#000000" font-family="sans-serif" font-size="12" font-style="italic" lengthAdjust="spacingAndGlyphs" textLength="81" x="1442.75" y="531.6543">VariablesInfo</text><line style="stroke:#A80036;stroke-width:1.5;" x1="1351" x2="1583" y1="543.5" y2="543.5"/><line style="stroke:#A80036;stroke-width:1.5;" x1="1351" x2="1583" y1="551.5" y2="551.5"/><ellipse cx="1361" cy="562.5" fill="#84BE84" rx="3" ry="3" style="stroke:#038048;stroke-width:1.0;"/><text fill="#000000" font-family="sans-serif" font-size="11" lengthAdjust="spacingAndGlyphs" textLength="208" x="1370" y="565.7104">getVariables() : Map&lt;String, String&gt;</text><!--MD5=[ef682e21d4533a454283dfde255f064e]
class CommandsInfo--><rect codeLine="39" fill="#FEFECE" filter="url(#fmff8k723hom0)" height="60.8047" id="CommandsInfo" style="stroke:#A80036;stroke-width:1.5;" width="246" x="1619" y="511.5"/><ellipse cx="1691.75" cy="527.5" fill="#B4A7E5" rx="11" ry="11" style="stroke:#A80036;stroke-width:1.0;"/><path d="M1687.6719,523.2656 L1687.6719,521.1094 L1695.0625,521.1094 L1695.0625,523.2656 L1692.5938,523.2656 L1692.5938,531.3438 L1695.0625,531.3438 L1695.0625,533.5 L1687.6719,533.5 L1687.6719,531.3438 L1690.1406,531.3438 L1690.1406,523.2656 L1687.6719,523.2656 Z " fill="#000000"/><text fill="#000000" font-family="sans-serif" font-size="12" font-style="italic" lengthAdjust="spacingAndGlyphs" textLength="92" x="1712.25" y="531.6543">CommandsInfo</text><line style="stroke:#A80036;stroke-width:1.5;" x1="1620" x2="1864" y1="543.5" y2="543.5"/><line style="stroke:#A80036;stroke-width:1.5;" x1="1620" x2="1864" y1="551.5" y2="551.5"/><ellipse cx="1630" cy="562.5" fill="#84BE84" rx="3" ry="3" style="stroke:#038048;stroke-width:1.0;"/><text fill="#000000" font-family="sans-serif" font-size="11" lengthAdjust="spacingAndGlyphs" textLength="220" x="1639" y="565.7104">getCommands() : Map&lt;String, String&gt;</text><!--MD5=[0fb1cd1774856714fad682bead7f8b2b]
class TurtleInfo--><rect codeLine="43" fill="#FEFECE" filter="url(#fmff8k723hom0)" height="86.4141" id="TurtleInfo" style="stroke:#A80036;stroke-width:1.5;" width="148" x="1900" y="499"/><ellipse cx="1940.2" cy="515" fill="#B4A7E5" rx="11" ry="11" style="stroke:#A80036;stroke-width:1.0;"/><path d="M1936.1219,510.7656 L1936.1219,508.6094 L1943.5125,508.6094 L1943.5125,510.7656 L1941.0438,510.7656 L1941.0438,518.8438 L1943.5125,518.8438 L1943.5125,521 L1936.1219,521 L1936.1219,518.8438 L1938.5906,518.8438 L1938.5906,510.7656 L1936.1219,510.7656 Z " fill="#000000"/><text fill="#000000" font-family="sans-serif" font-size="12" font-style="italic" lengthAdjust="spacingAndGlyphs" textLength="60" x="1959.8" y="519.1543">TurtleInfo</text><line style="stroke:#A80036;stroke-width:1.5;" x1="1901" x2="2047" y1="531" y2="531"/><line style="stroke:#A80036;stroke-width:1.5;" x1="1901" x2="2047" y1="539" y2="539"/><ellipse cx="1911" cy="550" fill="#84BE84" rx="3" ry="3" style="stroke:#038048;stroke-width:1.0;"/><text fill="#000000" font-family="sans-serif" font-size="11" lengthAdjust="spacingAndGlyphs" textLength="59" x="1920" y="553.2104">getX() : int</text><ellipse cx="1911" cy="562.8047" fill="#84BE84" rx="3" ry="3" style="stroke:#038048;stroke-width:1.0;"/><text fill="#000000" font-family="sans-serif" font-size="11" lengthAdjust="spacingAndGlyphs" textLength="59" x="1920" y="566.0151">getY() : int</text><ellipse cx="1911" cy="575.6094" fill="#84BE84" rx="3" ry="3" style="stroke:#038048;stroke-width:1.0;"/><text fill="#000000" font-family="sans-serif" font-size="11" lengthAdjust="spacingAndGlyphs" textLength="122" x="1920" y="578.8198">getRotation() : double</text><!--MD5=[c045e12321b83266d36d22b9096c24ea]
class View--><rect codeLine="51" fill="#FEFECE" filter="url(#fmff8k723hom0)" height="60.8047" id="View" style="stroke:#A80036;stroke-width:1.5;" width="309" x="2366.5" y="352.5"/><ellipse cx="2502.75" cy="368.5" fill="#ADD1B2" rx="11" ry="11" style="stroke:#A80036;stroke-width:1.0;"/><path d="M2505.7188,374.1406 Q2505.1406,374.4375 2504.5,374.5781 Q2503.8594,374.7344 2503.1563,374.7344 Q2500.6563,374.7344 2499.3281,373.0938 Q2498.0156,371.4375 2498.0156,368.3125 Q2498.0156,365.1875 2499.3281,363.5313 Q2500.6563,361.875 2503.1563,361.875 Q2503.8594,361.875 2504.5,362.0313 Q2505.1563,362.1875 2505.7188,362.4844 L2505.7188,365.2031 Q2505.0938,364.625 2504.5,364.3594 Q2503.9063,364.0781 2503.2813,364.0781 Q2501.9375,364.0781 2501.25,365.1563 Q2500.5625,366.2188 2500.5625,368.3125 Q2500.5625,370.4063 2501.25,371.4844 Q2501.9375,372.5469 2503.2813,372.5469 Q2503.9063,372.5469 2504.5,372.2813 Q2505.0938,372 2505.7188,371.4219 L2505.7188,374.1406 Z " fill="#000000"/><text fill="#000000" font-family="sans-serif" font-size="12" lengthAdjust="spacingAndGlyphs" textLength="28" x="2523.25" y="372.6543">View</text><line style="stroke:#A80036;stroke-width:1.5;" x1="2367.5" x2="2674.5" y1="384.5" y2="384.5"/><line style="stroke:#A80036;stroke-width:1.5;" x1="2367.5" x2="2674.5" y1="392.5" y2="392.5"/><ellipse cx="2377.5" cy="403.5" fill="#84BE84" rx="3" ry="3" style="stroke:#038048;stroke-width:1.0;"/><text fill="#000000" font-family="sans-serif" font-size="11" lengthAdjust="spacingAndGlyphs" textLength="283" x="2386.5" y="406.7104">View(Controller controller, TrackableTurtle model)</text><!--MD5=[8fb2ca2ef64ab3f4a6773900ee7ab83b]
class TurtleSandbox--><rect codeLine="60" fill="#FEFECE" filter="url(#fmff8k723hom0)" height="48" id="TurtleSandbox" style="stroke:#A80036;stroke-width:1.5;" width="122" x="2716" y="206"/><ellipse cx="2731" cy="222" fill="#ADD1B2" rx="11" ry="11" style="stroke:#A80036;stroke-width:1.0;"/><path d="M2733.9688,227.6406 Q2733.3906,227.9375 2732.75,228.0781 Q2732.1094,228.2344 2731.4063,228.2344 Q2728.9063,228.2344 2727.5781,226.5938 Q2726.2656,224.9375 2726.2656,221.8125 Q2726.2656,218.6875 2727.5781,217.0313 Q2728.9063,215.375 2731.4063,215.375 Q2732.1094,215.375 2732.75,215.5313 Q2733.4063,215.6875 2733.9688,215.9844 L2733.9688,218.7031 Q2733.3438,218.125 2732.75,217.8594 Q2732.1563,217.5781 2731.5313,217.5781 Q2730.1875,217.5781 2729.5,218.6563 Q2728.8125,219.7188 2728.8125,221.8125 Q2728.8125,223.9063 2729.5,224.9844 Q2730.1875,226.0469 2731.5313,226.0469 Q2732.1563,226.0469 2732.75,225.7813 Q2733.3438,225.5 2733.9688,224.9219 L2733.9688,227.6406 Z " fill="#000000"/><text fill="#000000" font-family="sans-serif" font-size="12" lengthAdjust="spacingAndGlyphs" textLength="90" x="2745" y="226.1543">TurtleSandbox</text><line style="stroke:#A80036;stroke-width:1.5;" x1="2717" x2="2837" y1="238" y2="238"/><line style="stroke:#A80036;stroke-width:1.5;" x1="2717" x2="2837" y1="246" y2="246"/><path d="M2680.5,64 L2680.5,104.2656 A0,0 0 0 0 2680.5,104.2656 L2799.02,104.2656 L2781.79,205.99 L2807.02,104.2656 L2933.5,104.2656 A0,0 0 0 0 2933.5,104.2656 L2933.5,74 L2923.5,64 L2680.5,64 A0,0 0 0 0 2680.5,64 " fill="#FBFB77" filter="url(#fmff8k723hom0)" style="stroke:#A80036;stroke-width:1.0;"/><path d="M2923.5,64 L2923.5,74 L2933.5,74 L2923.5,64 " fill="#FBFB77" style="stroke:#A80036;stroke-width:1.0;"/><text fill="#000000" font-family="sans-serif" font-size="13" lengthAdjust="spacingAndGlyphs" textLength="188" x="2686.5" y="81.0669">where the turtle's displayed :)</text><text fill="#000000" font-family="sans-serif" font-size="13" lengthAdjust="spacingAndGlyphs" textLength="232" x="2686.5" y="96.1997">Probably extends some kind of Pane</text><!--MD5=[3b3b6896349c39f54fba09a0a4f08330]
class ViewController--><rect codeLine="71" fill="#FEFECE" filter="url(#fmff8k723hom0)" height="86.4141" id="ViewController" style="stroke:#A80036;stroke-width:1.5;" width="260" x="2391" y="187"/><ellipse cx="2471.75" cy="203" fill="#B4A7E5" rx="11" ry="11" style="stroke:#A80036;stroke-width:1.0;"/><path d="M2467.6719,198.7656 L2467.6719,196.6094 L2475.0625,196.6094 L2475.0625,198.7656 L2472.5938,198.7656 L2472.5938,206.8438 L2475.0625,206.8438 L2475.0625,209 L2467.6719,209 L2467.6719,206.8438 L2470.1406,206.8438 L2470.1406,198.7656 L2467.6719,198.7656 Z " fill="#000000"/><text fill="#000000" font-family="sans-serif" font-size="12" font-style="italic" lengthAdjust="spacingAndGlyphs" textLength="90" x="2492.25" y="207.1543">ViewController</text><line style="stroke:#A80036;stroke-width:1.5;" x1="2392" x2="2650" y1="219" y2="219"/><line style="stroke:#A80036;stroke-width:1.5;" x1="2392" x2="2650" y1="227" y2="227"/><ellipse cx="2402" cy="238" fill="#84BE84" rx="3" ry="3" style="stroke:#038048;stroke-width:1.0;"/><text fill="#000000" font-family="sans-serif" font-size="11" lengthAdjust="spacingAndGlyphs" textLength="159" x="2411" y="241.2104">setBackground(String color)</text><ellipse cx="2402" cy="250.8047" fill="#84BE84" rx="3" ry="3" style="stroke:#038048;stroke-width:1.0;"/><text fill="#000000" font-family="sans-serif" font-size="11" lengthAdjust="spacingAndGlyphs" textLength="234" x="2411" y="254.0151">setLanguage(String englishSucksAmirite)</text><ellipse cx="2402" cy="263.6094" fill="#84BE84" rx="3" ry="3" style="stroke:#038048;stroke-width:1.0;"/><text fill="#000000" font-family="sans-serif" font-size="11" lengthAdjust="spacingAndGlyphs" textLength="114" x="2411" y="266.8198">otherStyleMethods()</text><path d="M2397,41 L2397,126.6641 A0,0 0 0 0 2397,126.6641 L2517,126.6641 L2521,186.66 L2525,126.6641 L2645,126.6641 A0,0 0 0 0 2645,126.6641 L2645,51 L2635,41 L2397,41 A0,0 0 0 0 2397,41 " fill="#FBFB77" filter="url(#fmff8k723hom0)" style="stroke:#A80036;stroke-width:1.0;"/><path d="M2635,41 L2635,51 L2645,51 L2635,41 " fill="#FBFB77" style="stroke:#A80036;stroke-width:1.0;"/><text fill="#000000" font-family="sans-serif" font-size="13" lengthAdjust="spacingAndGlyphs" textLength="148" x="2403" y="58.0669">Set aspects of the view</text><text fill="#000000" font-family="sans-serif" font-size="13" lengthAdjust="spacingAndGlyphs" textLength="226" x="2403" y="73.1997">such as language and stuff. Nested</text><text fill="#000000" font-family="sans-serif" font-size="13" lengthAdjust="spacingAndGlyphs" textLength="227" x="2403" y="88.3325">class implements this in view and is</text><text fill="#000000" font-family="sans-serif" font-size="13" lengthAdjust="spacingAndGlyphs" textLength="220" x="2403" y="103.4653">passed to classes that manipulate</text><text fill="#000000" font-family="sans-serif" font-size="13" lengthAdjust="spacingAndGlyphs" textLength="122" x="2403" y="118.5981">how the view looks.</text><!--MD5=[129e7c0b9d53eb958cd6b211ffdc83bd]
class ModelController--><rect codeLine="81" fill="#FEFECE" filter="url(#fmff8k723hom0)" height="86.4141" id="ModelController" style="stroke:#A80036;stroke-width:1.5;" width="214" x="2138" y="187"/><ellipse cx="2191.75" cy="203" fill="#ADD1B2" rx="11" ry="11" style="stroke:#A80036;stroke-width:1.0;"/><path d="M2194.7188,208.6406 Q2194.1406,208.9375 2193.5,209.0781 Q2192.8594,209.2344 2192.1563,209.2344 Q2189.6563,209.2344 2188.3281,207.5938 Q2187.0156,205.9375 2187.0156,202.8125 Q2187.0156,199.6875 2188.3281,198.0313 Q2189.6563,196.375 2192.1563,196.375 Q2192.8594,196.375 2193.5,196.5313 Q2194.1563,196.6875 2194.7188,196.9844 L2194.7188,199.7031 Q2194.0938,199.125 2193.5,198.8594 Q2192.9063,198.5781 2192.2813,198.5781 Q2190.9375,198.5781 2190.25,199.6563 Q2189.5625,200.7188 2189.5625,202.8125 Q2189.5625,204.9063 2190.25,205.9844 Q2190.9375,207.0469 2192.2813,207.0469 Q2192.9063,207.0469 2193.5,206.7813 Q2194.0938,206.5 2194.7188,205.9219 L2194.7188,208.6406 Z " fill="#000000"/><text fill="#000000" font-family="sans-serif" font-size="12" lengthAdjust="spacingAndGlyphs" textLength="98" x="2212.25" y="207.1543">ModelController</text><line style="stroke:#A80036;stroke-width:1.5;" x1="2139" x2="2351" y1="219" y2="219"/><line style="stroke:#A80036;stroke-width:1.5;" x1="2139" x2="2351" y1="227" y2="227"/><ellipse cx="2149" cy="238" fill="#84BE84" rx="3" ry="3" style="stroke:#038048;stroke-width:1.0;"/><text fill="#000000" font-family="sans-serif" font-size="11" lengthAdjust="spacingAndGlyphs" textLength="188" x="2158" y="241.2104">sendCommand(String command)</text><ellipse cx="2149" cy="250.8047" fill="#84BE84" rx="3" ry="3" style="stroke:#038048;stroke-width:1.0;"/><text fill="#000000" font-family="sans-serif" font-size="11" lengthAdjust="spacingAndGlyphs" textLength="173" x="2158" y="254.0151">sendCommand(File command)</text><ellipse cx="2149" cy="263.6094" fill="#84BE84" rx="3" ry="3" style="stroke:#038048;stroke-width:1.0;"/><text fill="#000000" font-family="sans-serif" font-size="11" lengthAdjust="spacingAndGlyphs" textLength="143" x="2158" y="266.8198">setLanguage(String lang)</text><path d="M2120.5,64 L2120.5,104.2656 A0,0 0 0 0 2120.5,104.2656 L2237.53,104.2656 L2243.83,186.72 L2245.53,104.2656 L2361.5,104.2656 A0,0 0 0 0 2361.5,104.2656 L2361.5,74 L2351.5,64 L2120.5,64 A0,0 0 0 0 2120.5,64 " fill="#FBFB77" filter="url(#fmff8k723hom0)" style="stroke:#A80036;stroke-width:1.0;"/><path d="M2351.5,64 L2351.5,74 L2361.5,74 L2351.5,64 " fill="#FBFB77" style="stroke:#A80036;stroke-width:1.0;"/><text fill="#000000" font-family="sans-serif" font-size="13" lengthAdjust="spacingAndGlyphs" textLength="196" x="2126.5" y="81.0669">This contains methods needed</text><text fill="#000000" font-family="sans-serif" font-size="13" lengthAdjust="spacingAndGlyphs" textLength="220" x="2126.5" y="96.1997">to talk to the model from the view.</text><!--MD5=[70634ee612bcfc4c55efbdc895e52de3]
class ModelThing--><rect codeLine="93" fill="#FEFECE" filter="url(#fmff8k723hom0)" height="86.4141" id="ModelThing" style="stroke:#A80036;stroke-width:1.5;" width="163" x="457.5" y="340"/><ellipse cx="499.5" cy="356" fill="#ADD1B2" rx="11" ry="11" style="stroke:#A80036;stroke-width:1.0;"/><path d="M502.4688,361.6406 Q501.8906,361.9375 501.25,362.0781 Q500.6094,362.2344 499.9063,362.2344 Q497.4063,362.2344 496.0781,360.5938 Q494.7656,358.9375 494.7656,355.8125 Q494.7656,352.6875 496.0781,351.0313 Q497.4063,349.375 499.9063,349.375 Q500.6094,349.375 501.25,349.5313 Q501.9063,349.6875 502.4688,349.9844 L502.4688,352.7031 Q501.8438,352.125 501.25,351.8594 Q500.6563,351.5781 500.0313,351.5781 Q498.6875,351.5781 498,352.6563 Q497.3125,353.7188 497.3125,355.8125 Q497.3125,357.9063 498,358.9844 Q498.6875,360.0469 500.0313,360.0469 Q500.6563,360.0469 501.25,359.7813 Q501.8438,359.5 502.4688,358.9219 L502.4688,361.6406 Z " fill="#000000"/><text fill="#000000" font-family="sans-serif" font-size="12" lengthAdjust="spacingAndGlyphs" textLength="71" x="519.5" y="360.1543">ModelThing</text><line style="stroke:#A80036;stroke-width:1.5;" x1="458.5" x2="619.5" y1="372" y2="372"/><line style="stroke:#A80036;stroke-width:1.5;" x1="458.5" x2="619.5" y1="380" y2="380"/><polygon fill="#FFFF44" points="468.5,386,472.5,390,468.5,394,464.5,390" style="stroke:#B38D22;stroke-width:1.0;"/><text fill="#000000" font-family="sans-serif" font-size="11" lengthAdjust="spacingAndGlyphs" textLength="112" x="477.5" y="394.2104">notifyTurtleUpdate()</text><polygon fill="#FFFF44" points="468.5,398.8047,472.5,402.8047,468.5,406.8047,464.5,402.8047" style="stroke:#B38D22;stroke-width:1.0;"/><text fill="#000000" font-family="sans-serif" font-size="11" lengthAdjust="spacingAndGlyphs" textLength="137" x="477.5" y="407.0151">notifyCommandUpdate()</text><polygon fill="#FFFF44" points="468.5,411.6094,472.5,415.6094,468.5,419.6094,464.5,415.6094" style="stroke:#B38D22;stroke-width:1.0;"/><text fill="#000000" font-family="sans-serif" font-size="11" lengthAdjust="spacingAndGlyphs" textLength="125" x="477.5" y="419.8198">notifyVariableUpdate()</text><!--MD5=[233a2d19c655b777edfb614a31c605c2]
class TurtleFactory--><rect codeLine="104" fill="#FEFECE" filter="url(#fmff8k723hom0)" height="60.8047" id="TurtleFactory" style="stroke:#A80036;stroke-width:1.5;" width="189" x="697.5" y="199.5"/><ellipse cx="746.75" cy="215.5" fill="#ADD1B2" rx="11" ry="11" style="stroke:#A80036;stroke-width:1.0;"/><path d="M749.7188,221.1406 Q749.1406,221.4375 748.5,221.5781 Q747.8594,221.7344 747.1563,221.7344 Q744.6563,221.7344 743.3281,220.0938 Q742.0156,218.4375 742.0156,215.3125 Q742.0156,212.1875 743.3281,210.5313 Q744.6563,208.875 747.1563,208.875 Q747.8594,208.875 748.5,209.0313 Q749.1563,209.1875 749.7188,209.4844 L749.7188,212.2031 Q749.0938,211.625 748.5,211.3594 Q747.9063,211.0781 747.2813,211.0781 Q745.9375,211.0781 745.25,212.1563 Q744.5625,213.2188 744.5625,215.3125 Q744.5625,217.4063 745.25,218.4844 Q745.9375,219.5469 747.2813,219.5469 Q747.9063,219.5469 748.5,219.2813 Q749.0938,219 749.7188,218.4219 L749.7188,221.1406 Z " fill="#000000"/><text fill="#000000" font-family="sans-serif" font-size="12" lengthAdjust="spacingAndGlyphs" textLength="82" x="767.25" y="219.6543">TurtleFactory</text><line style="stroke:#A80036;stroke-width:1.5;" x1="698.5" x2="885.5" y1="231.5" y2="231.5"/><line style="stroke:#A80036;stroke-width:1.5;" x1="698.5" x2="885.5" y1="239.5" y2="239.5"/><text fill="#000000" font-family="sans-serif" font-size="11" lengthAdjust="spacingAndGlyphs" text-decoration="underline" textLength="177" x="703.5" y="253.7104">createTurtle() : TrackableTurtle</text><path d="M690,56.5 L690,111.8984 A0,0 0 0 0 690,111.8984 L780.67,111.8984 L790.15,199.42 L788.67,111.8984 L876,111.8984 A0,0 0 0 0 876,111.8984 L876,66.5 L866,56.5 L690,56.5 A0,0 0 0 0 690,56.5 " fill="#FBFB77" filter="url(#fmff8k723hom0)" style="stroke:#A80036;stroke-width:1.0;"/><path d="M866,56.5 L866,66.5 L876,66.5 L866,56.5 " fill="#FBFB77" style="stroke:#A80036;stroke-width:1.0;"/><text fill="#000000" font-family="sans-serif" font-size="13" lengthAdjust="spacingAndGlyphs" textLength="140" x="696" y="73.5669">Just a static class that</text><text fill="#000000" font-family="sans-serif" font-size="13" lengthAdjust="spacingAndGlyphs" textLength="165" x="696" y="88.6997">creates a trackable turtle.</text><text fill="#000000" font-family="sans-serif" font-size="13" lengthAdjust="spacingAndGlyphs" textLength="159" x="696" y="103.8325">Which will be ModelThing.</text><!--MD5=[9576cffdcfadfab2c93d5099f3fbacae]
class Turtle--><rect codeLine="108" fill="#FEFECE" filter="url(#fmff8k723hom0)" height="86.4141" id="Turtle" style="stroke:#A80036;stroke-width:1.5;" width="70" x="592" y="187"/><ellipse cx="607.9" cy="203" fill="#ADD1B2" rx="11" ry="11" style="stroke:#A80036;stroke-width:1.0;"/><path d="M610.8688,208.6406 Q610.2906,208.9375 609.65,209.0781 Q609.0094,209.2344 608.3063,209.2344 Q605.8063,209.2344 604.4781,207.5938 Q603.1656,205.9375 603.1656,202.8125 Q603.1656,199.6875 604.4781,198.0313 Q605.8063,196.375 608.3063,196.375 Q609.0094,196.375 609.65,196.5313 Q610.3063,196.6875 610.8688,196.9844 L610.8688,199.7031 Q610.2438,199.125 609.65,198.8594 Q609.0563,198.5781 608.4313,198.5781 Q607.0875,198.5781 606.4,199.6563 Q605.7125,200.7188 605.7125,202.8125 Q605.7125,204.9063 606.4,205.9844 Q607.0875,207.0469 608.4313,207.0469 Q609.0563,207.0469 609.65,206.7813 Q610.2438,206.5 610.8688,205.9219 L610.8688,208.6406 Z " fill="#000000"/><text fill="#000000" font-family="sans-serif" font-size="12" lengthAdjust="spacingAndGlyphs" textLength="36" x="622.1" y="207.1543">Turtle</text><line style="stroke:#A80036;stroke-width:1.5;" x1="593" x2="661" y1="219" y2="219"/><rect fill="none" height="6" style="stroke:#C82930;stroke-width:1.0;" width="6" x="600" y="227"/><text fill="#000000" font-family="sans-serif" font-size="11" lengthAdjust="spacingAndGlyphs" textLength="6" x="612" y="233.2104">x</text><rect fill="none" height="6" style="stroke:#C82930;stroke-width:1.0;" width="6" x="600" y="239.8047"/><text fill="#000000" font-family="sans-serif" font-size="11" lengthAdjust="spacingAndGlyphs" textLength="6" x="612" y="246.0151">y</text><rect fill="none" height="6" style="stroke:#C82930;stroke-width:1.0;" width="6" x="600" y="252.6094"/><text fill="#000000" font-family="sans-serif" font-size="11" lengthAdjust="spacingAndGlyphs" textLength="44" x="612" y="258.8198">rotation</text><line style="stroke:#A80036;stroke-width:1.5;" x1="593" x2="661" y1="265.4141" y2="265.4141"/><!--MD5=[6fcaee6a057491da9461637638e12ee7]
class VariableEnvironment--><rect codeLine="114" fill="#FEFECE" filter="url(#fmff8k723hom0)" height="60.8047" id="VariableEnvironment" style="stroke:#A80036;stroke-width:1.5;" width="212" x="345" y="199.5"/><ellipse cx="382.95" cy="215.5" fill="#ADD1B2" rx="11" ry="11" style="stroke:#A80036;stroke-width:1.0;"/><path d="M385.9188,221.1406 Q385.3406,221.4375 384.7,221.5781 Q384.0594,221.7344 383.3563,221.7344 Q380.8563,221.7344 379.5281,220.0938 Q378.2156,218.4375 378.2156,215.3125 Q378.2156,212.1875 379.5281,210.5313 Q380.8563,208.875 383.3563,208.875 Q384.0594,208.875 384.7,209.0313 Q385.3563,209.1875 385.9188,209.4844 L385.9188,212.2031 Q385.2938,211.625 384.7,211.3594 Q384.1063,211.0781 383.4813,211.0781 Q382.1375,211.0781 381.45,212.1563 Q380.7625,213.2188 380.7625,215.3125 Q380.7625,217.4063 381.45,218.4844 Q382.1375,219.5469 383.4813,219.5469 Q384.1063,219.5469 384.7,219.2813 Q385.2938,219 385.9188,218.4219 L385.9188,221.1406 Z " fill="#000000"/><text fill="#000000" font-family="sans-serif" font-size="12" lengthAdjust="spacingAndGlyphs" textLength="129" x="402.05" y="219.6543">VariableEnvironment</text><line style="stroke:#A80036;stroke-width:1.5;" x1="346" x2="556" y1="231.5" y2="231.5"/><rect fill="none" height="6" style="stroke:#C82930;stroke-width:1.0;" width="6" x="353" y="239.5"/><text fill="#000000" font-family="sans-serif" font-size="11" lengthAdjust="spacingAndGlyphs" textLength="186" x="365" y="245.7104">variables : Map&lt;String, Double&gt;</text><line style="stroke:#A80036;stroke-width:1.5;" x1="346" x2="556" y1="252.3047" y2="252.3047"/><!--MD5=[cce9edf21250f63b98fba7740e334d5f]
class Executioner--><rect codeLine="122" fill="#FEFECE" filter="url(#fmff8k723hom0)" height="73.6094" id="Executioner" style="stroke:#A80036;stroke-width:1.5;" width="269" x="40.5" y="193"/><ellipse cx="133.25" cy="209" fill="#B4A7E5" rx="11" ry="11" style="stroke:#A80036;stroke-width:1.0;"/><path d="M129.1719,204.7656 L129.1719,202.6094 L136.5625,202.6094 L136.5625,204.7656 L134.0938,204.7656 L134.0938,212.8438 L136.5625,212.8438 L136.5625,215 L129.1719,215 L129.1719,212.8438 L131.6406,212.8438 L131.6406,204.7656 L129.1719,204.7656 Z " fill="#000000"/><text fill="#000000" font-family="sans-serif" font-size="12" font-style="italic" lengthAdjust="spacingAndGlyphs" textLength="75" x="153.75" y="213.1543">Executioner</text><line style="stroke:#A80036;stroke-width:1.5;" x1="41.5" x2="308.5" y1="225" y2="225"/><line style="stroke:#A80036;stroke-width:1.5;" x1="41.5" x2="308.5" y1="233" y2="233"/><ellipse cx="51.5" cy="244" fill="#84BE84" rx="3" ry="3" style="stroke:#038048;stroke-width:1.0;"/><text fill="#000000" font-family="sans-serif" font-size="11" lengthAdjust="spacingAndGlyphs" textLength="243" x="60.5" y="247.2104">parseCommand(String command) : double</text><ellipse cx="51.5" cy="256.8047" fill="#84BE84" rx="3" ry="3" style="stroke:#038048;stroke-width:1.0;"/><text fill="#000000" font-family="sans-serif" font-size="11" lengthAdjust="spacingAndGlyphs" textLength="189" x="60.5" y="260.0151">parseCommand(File file) : double</text><path d="M68,64 L68,104.2656 A0,0 0 0 0 68,104.2656 L171,104.2656 L175,192.88 L179,104.2656 L282,104.2656 A0,0 0 0 0 282,104.2656 L282,74 L272,64 L68,64 A0,0 0 0 0 68,64 " fill="#FBFB77" filter="url(#fmff8k723hom0)" style="stroke:#A80036;stroke-width:1.0;"/><path d="M272,64 L272,74 L282,74 L272,64 " fill="#FBFB77" style="stroke:#A80036;stroke-width:1.0;"/><text fill="#000000" font-family="sans-serif" font-size="13" lengthAdjust="spacingAndGlyphs" textLength="193" x="74" y="81.0669">The parse command methods</text><text fill="#000000" font-family="sans-serif" font-size="13" lengthAdjust="spacingAndGlyphs" textLength="135" x="74" y="96.1997">can throw exceptions</text><!--MD5=[39005f893e54732bbecdb217897e58e7]
link ModelController to View--><path codeLine="88" d="M2321.88,273.06 C2366.36,297.39 2421.45,327.53 2462.4,349.94 " fill="none" id="ModelController-to-View" style="stroke:#A80036;stroke-width:1.0;"/><polygon fill="#A80036" points="2466.82,352.36,2460.8451,344.5306,2462.4338,349.9597,2457.0046,351.5485,2466.82,352.36" style="stroke:#A80036;stroke-width:1.0;"/><text fill="#000000" font-family="sans-serif" font-size="13" lengthAdjust="spacingAndGlyphs" textLength="8" x="2446.8204" y="341.5944">1</text><!--MD5=[c2151deb1ef9b11b55a89783c55fabb9]
link ViewController to View--><path codeLine="89" d="M2521,273.06 C2521,296.33 2521,324.91 2521,346.95 " fill="none" id="ViewController-to-View" style="stroke:#A80036;stroke-width:1.0;"/><polygon fill="#A80036" points="2521,352.12,2525,343.12,2521,347.12,2517,343.12,2521,352.12" style="stroke:#A80036;stroke-width:1.0;"/><text fill="#000000" font-family="sans-serif" font-size="13" lengthAdjust="spacingAndGlyphs" textLength="8" x="2512.175" y="341.3049">1</text><!--MD5=[5efc0e67d88f5b24ef870c79163e7437]
link TurtleSandbox to View--><path codeLine="90" d="M2737.84,254.1 C2694.47,279.68 2624.24,321.1 2575.51,349.85 " fill="none" id="TurtleSandbox-to-View" style="stroke:#A80036;stroke-width:1.0;"/><polygon fill="#A80036" points="2571.16,352.41,2580.9429,351.2719,2575.4638,349.8649,2576.8707,344.3858,2571.16,352.41" style="stroke:#A80036;stroke-width:1.0;"/><text fill="#000000" font-family="sans-serif" font-size="13" lengthAdjust="spacingAndGlyphs" textLength="8" x="2572.6805" y="341.6547">1</text><!--MD5=[d72164c82074bdb484acf93e597ecdb3]
reverse link TrackableTurtle to ModelThing--><path d="M971.47,494.58 C855.06,464.82 709.59,427.62 620.53,404.85 " fill="none" id="TrackableTurtle-backto-ModelThing" style="stroke:#A80036;stroke-width:1.0;stroke-dasharray:7.0,7.0;"/><polygon fill="none" points="973.35,487.84,990.99,499.57,969.88,501.4,973.35,487.84" style="stroke:#A80036;stroke-width:1.0;"/><!--MD5=[fa44f372c5fc3850ad4d268b21e37fc0]
link Executioner to ModelThing--><path codeLine="128" d="M262.19,267.17 C319.77,291.06 394.93,322.24 452.4,346.08 " fill="none" id="Executioner-to-ModelThing" style="stroke:#A80036;stroke-width:1.0;"/><polygon fill="#A80036" points="457.2,348.07,450.4198,340.9266,452.5817,346.154,447.3542,348.3159,457.2,348.07" style="stroke:#A80036;stroke-width:1.0;"/><text fill="#000000" font-family="sans-serif" font-size="13" lengthAdjust="spacingAndGlyphs" textLength="8" x="441.5584" y="341.3454">1</text><!--MD5=[6dc146b363df474edd7e2b46f271534d]
link Turtle to ModelThing--><path codeLine="129" d="M602.49,273.06 C591.19,292.45 577.74,315.53 566.13,335.44 " fill="none" id="Turtle-to-ModelThing" style="stroke:#A80036;stroke-width:1.0;"/><polygon fill="#A80036" points="563.53,339.9,571.5176,334.1382,566.0476,335.5801,564.6057,330.1101,563.53,339.9" style="stroke:#A80036;stroke-width:1.0;"/><text fill="#000000" font-family="sans-serif" font-size="13" lengthAdjust="spacingAndGlyphs" textLength="8" x="558.802" y="328.8801">1</text><!--MD5=[014067dbd8bda48c8fd808585baf7fb6]
link VariableEnvironment to ModelThing--><path codeLine="130" d="M468.39,260.83 C480.79,282.11 497.71,311.15 511.88,335.46 " fill="none" id="VariableEnvironment-to-ModelThing" style="stroke:#A80036;stroke-width:1.0;"/><polygon fill="#A80036" points="514.49,339.94,513.4143,330.1501,511.9724,335.6201,506.5024,334.1782,514.49,339.94" style="stroke:#A80036;stroke-width:1.0;"/><text fill="#000000" font-family="sans-serif" font-size="13" lengthAdjust="spacingAndGlyphs" textLength="8" x="501.9462" y="328.9265">1</text><!--MD5=[15154f82b8372b5f5c5863ee7223e201]
link Model to Events--><!--MD5=[86e78d055f300d886fcc525ca0008cf8]
link UpdateTurtle to UpdateCommands--><!--MD5=[2545c549832a4e15ab1225e8c1e9f671]
link UpdateCommands to UpdateVariables--><!--MD5=[ea0c93305495b09b46b23a7c1e1374a7]
link UpdateTurtle to VariablesInfo--><!--MD5=[c43e5749a777b1ce920316ff45fde822]
link VariablesInfo to CommandsInfo--><!--MD5=[995cb1ffe28aece48b09abb9759b9da6]
link CommandsInfo to TurtleInfo--><!--MD5=[dc5baa65ceadbb9a50c04ee9d48cc788]
@startuml
package Events {
	note top of TrackableTurtle
		The trackable interface will
		define a class internal to the
		model which represents a turtle.
		This interface defines how a view
		can observe the changes.
	end note

	interface TrackableTurtle {
		+ setOnTurtleUpdate(UpdateTurtle callback);
		+ setOnVariableUpdate(UpdateVariable callback);
		+ setOnCommandUpdate(UpdateCommands callback);
		+ parseCommand(String command) : double
		+ parseCommand(File command) : double
	}

	note bottom of TrackableTurtle
		One possible change is to create a single
		interface that has all the callbacks.
	end note

	interface UpdateTurtle {
		+ execute(TurtleInfo e)
	}

	interface UpdateCommands {
		+ execute(CommandsInfo e)
	}

	interface UpdateVariables {
		+ execute(VariablesInfo e)
	}

	interface VariablesInfo {
		+ getVariables() : Map<String, String>
	}

	interface CommandsInfo {
		+ getCommands() : Map<String, String>
	}

	interface TurtleInfo {
		+ getX() : int
		+ getY() : int
		+ getRotation() : double
	}
}

package View {
	class View {
		+ View(Controller controller, TrackableTurtle model)
	}


	note top of TurtleSandbox
		where the turtle's displayed :)
		Probably extends some kind of Pane
	end note
	class TurtleSandbox {

	}

	note top of ViewController
		Set aspects of the view
		such as language and stuff. Nested
		class implements this in view and is
		passed to classes that manipulate
		how the view looks.
	end note
	interface ViewController {
		+ setBackground(String color)
		+ setLanguage(String englishSucksAmirite)
		+ otherStyleMethods()
	}

	note top of ModelController
		This contains methods needed
		to talk to the model from the view.
	end note
	class ModelController {
		+ sendCommand(String command)
		+ sendCommand(File command)
		+ setLanguage(String lang)
	}
}

ModelController - -> "1" View
ViewController - -> "1" View
TurtleSandbox - -> "1" View

package Model {
	class ModelThing implements TrackableTurtle {
		# notifyTurtleUpdate()
		# notifyCommandUpdate()
		# notifyVariableUpdate()
	}

	note top of TurtleFactory
		Just a static class that
		creates a trackable turtle.
		Which will be ModelThing.
	end note
	class TurtleFactory {
		{static} createTurtle() : TrackableTurtle
	}

	class Turtle {
		- x
		- y
		- rotation
	}

	class VariableEnvironment {
		- variables : Map<String, Double>
	}

	note top of Executioner
		The parse command methods
		can throw exceptions
	end note
	interface Executioner {
		+ parseCommand(String command) : double
		+ parseCommand(File file) : double
	}
}

Executioner - -> "1" ModelThing 
Turtle - -> "1" ModelThing
VariableEnvironment - -> "1" ModelThing

Model -[hidden]- -> Events
@enduml

PlantUML version 1.2020.22(Sun Dec 06 04:36:27 EST 2020)
(GPL source distribution)
Java Runtime: OpenJDK Runtime Environment
JVM: OpenJDK 64-Bit Server VM
Default Encoding: UTF-8
Language: en
Country: US
--></g></svg>